G04 #@! TF.GenerationSoftware,KiCad,Pcbnew,5.1.8-db9833491~88~ubuntu18.04.1*
G04 #@! TF.CreationDate,2020-12-12T18:03:07+01:00*
G04 #@! TF.ProjectId,UselessBox,5573656c-6573-4734-926f-782e6b696361,rev?*
G04 #@! TF.SameCoordinates,Original*
G04 #@! TF.FileFunction,Other,Fab,Top*
%FSLAX46Y46*%
G04 Gerber Fmt 4.6, Leading zero omitted, Abs format (unit mm)*
G04 Created by KiCad (PCBNEW 5.1.8-db9833491~88~ubuntu18.04.1) date 2020-12-12 18:03:07*
%MOMM*%
%LPD*%
G01*
G04 APERTURE LIST*
%ADD10C,0.100000*%
%ADD11C,0.120000*%
%ADD12C,0.150000*%
%ADD13C,0.108000*%
G04 APERTURE END LIST*
D10*
X116960699Y-99389057D02*
X116133384Y-100216372D01*
X116133384Y-100216372D02*
X116953628Y-101036616D01*
X116953628Y-101036616D02*
X117780943Y-100209301D01*
X121780000Y-97790000D02*
G75*
G03*
X121780000Y-97790000I-2400000J0D01*
G01*
X117782044Y-100210028D02*
G75*
G03*
X116960699Y-99389057I1597956J2420028D01*
G01*
X115962500Y-89426759D02*
X116762500Y-89426759D01*
X116362500Y-89826759D02*
X116362500Y-89026759D01*
X122110000Y-86400000D02*
G75*
G03*
X122110000Y-86400000I-4000000J0D01*
G01*
D11*
X127822000Y-92156000D02*
X128732000Y-91146000D01*
X137862000Y-91146000D02*
X128732000Y-91146000D01*
X127822000Y-92156000D02*
X127822000Y-112036000D01*
X127822000Y-111526000D02*
X137862000Y-111526000D01*
X137862000Y-111526000D02*
X137862000Y-91146000D01*
D10*
X99060000Y-113030000D02*
X106680000Y-113030000D01*
X106680000Y-113030000D02*
X106680000Y-123190000D01*
X106680000Y-123190000D02*
X99060000Y-123190000D01*
X99060000Y-123190000D02*
X99060000Y-113030000D01*
X111760000Y-120650000D02*
X93980000Y-120650000D01*
X93980000Y-120650000D02*
X93980000Y-78740000D01*
X93980000Y-78740000D02*
X95250000Y-77470000D01*
X95250000Y-77470000D02*
X111760000Y-77470000D01*
X111760000Y-77470000D02*
X111760000Y-120650000D01*
X131350000Y-85360000D02*
X131350000Y-87360000D01*
X131350000Y-87360000D02*
X135350000Y-87360000D01*
X135350000Y-87360000D02*
X135350000Y-85360000D01*
X135350000Y-85360000D02*
X131350000Y-85360000D01*
X129540000Y-86360000D02*
X131350000Y-86360000D01*
X137160000Y-86360000D02*
X135350000Y-86360000D01*
X131950000Y-85360000D02*
X131950000Y-87360000D01*
X132050000Y-85360000D02*
X132050000Y-87360000D01*
X131850000Y-85360000D02*
X131850000Y-87360000D01*
X131318000Y-117475000D02*
X131318000Y-115570000D01*
X131318000Y-115570000D02*
X136398000Y-115570000D01*
X136398000Y-115570000D02*
X136398000Y-118110000D01*
X136398000Y-118110000D02*
X131953000Y-118110000D01*
X131953000Y-118110000D02*
X131318000Y-117475000D01*
X85725000Y-101600000D02*
X87630000Y-101600000D01*
X87630000Y-101600000D02*
X87630000Y-109220000D01*
X87630000Y-109220000D02*
X85090000Y-109220000D01*
X85090000Y-109220000D02*
X85090000Y-102235000D01*
X85090000Y-102235000D02*
X85725000Y-101600000D01*
X85090000Y-114935000D02*
X85725000Y-114300000D01*
X85090000Y-121920000D02*
X85090000Y-114935000D01*
X87630000Y-121920000D02*
X85090000Y-121920000D01*
X87630000Y-114300000D02*
X87630000Y-121920000D01*
X85725000Y-114300000D02*
X87630000Y-114300000D01*
X85725000Y-83820000D02*
X87630000Y-83820000D01*
X87630000Y-83820000D02*
X87630000Y-96520000D01*
X87630000Y-96520000D02*
X85090000Y-96520000D01*
X85090000Y-96520000D02*
X85090000Y-84455000D01*
X85090000Y-84455000D02*
X85725000Y-83820000D01*
X125260000Y-83290000D02*
X123660000Y-83290000D01*
X123660000Y-83290000D02*
X123660000Y-86890000D01*
X123660000Y-86890000D02*
X125260000Y-86890000D01*
X125260000Y-86890000D02*
X125260000Y-83290000D01*
X124460000Y-81280000D02*
X124460000Y-83290000D01*
X124460000Y-88900000D02*
X124460000Y-86890000D01*
X122936000Y-111760000D02*
X120926000Y-111760000D01*
X115316000Y-111760000D02*
X117326000Y-111760000D01*
X120926000Y-110960000D02*
X117326000Y-110960000D01*
X120926000Y-112560000D02*
X120926000Y-110960000D01*
X117326000Y-112560000D02*
X120926000Y-112560000D01*
X117326000Y-110960000D02*
X117326000Y-112560000D01*
X120926000Y-107480000D02*
X120926000Y-105880000D01*
X120926000Y-105880000D02*
X117326000Y-105880000D01*
X117326000Y-105880000D02*
X117326000Y-107480000D01*
X117326000Y-107480000D02*
X120926000Y-107480000D01*
X122936000Y-106680000D02*
X120926000Y-106680000D01*
X115316000Y-106680000D02*
X117326000Y-106680000D01*
X116840000Y-120523000D02*
X116840000Y-118618000D01*
X116840000Y-118618000D02*
X127000000Y-118618000D01*
X127000000Y-118618000D02*
X127000000Y-121158000D01*
X127000000Y-121158000D02*
X117475000Y-121158000D01*
X117475000Y-121158000D02*
X116840000Y-120523000D01*
D12*
X118792857Y-93908571D02*
X118935714Y-93956190D01*
X118983333Y-94003809D01*
X119030952Y-94099047D01*
X119030952Y-94241904D01*
X118983333Y-94337142D01*
X118935714Y-94384761D01*
X118840476Y-94432380D01*
X118459523Y-94432380D01*
X118459523Y-93432380D01*
X118792857Y-93432380D01*
X118888095Y-93480000D01*
X118935714Y-93527619D01*
X118983333Y-93622857D01*
X118983333Y-93718095D01*
X118935714Y-93813333D01*
X118888095Y-93860952D01*
X118792857Y-93908571D01*
X118459523Y-93908571D01*
X120030952Y-94337142D02*
X119983333Y-94384761D01*
X119840476Y-94432380D01*
X119745238Y-94432380D01*
X119602380Y-94384761D01*
X119507142Y-94289523D01*
X119459523Y-94194285D01*
X119411904Y-94003809D01*
X119411904Y-93860952D01*
X119459523Y-93670476D01*
X119507142Y-93575238D01*
X119602380Y-93480000D01*
X119745238Y-93432380D01*
X119840476Y-93432380D01*
X119983333Y-93480000D01*
X120030952Y-93527619D01*
X120983333Y-94432380D02*
X120411904Y-94432380D01*
X120697619Y-94432380D02*
X120697619Y-93432380D01*
X120602380Y-93575238D01*
X120507142Y-93670476D01*
X120411904Y-93718095D01*
X121602380Y-93432380D02*
X121697619Y-93432380D01*
X121792857Y-93480000D01*
X121840476Y-93527619D01*
X121888095Y-93622857D01*
X121935714Y-93813333D01*
X121935714Y-94051428D01*
X121888095Y-94241904D01*
X121840476Y-94337142D01*
X121792857Y-94384761D01*
X121697619Y-94432380D01*
X121602380Y-94432380D01*
X121507142Y-94384761D01*
X121459523Y-94337142D01*
X121411904Y-94241904D01*
X121364285Y-94051428D01*
X121364285Y-93813333D01*
X121411904Y-93622857D01*
X121459523Y-93527619D01*
X121507142Y-93480000D01*
X121602380Y-93432380D01*
X122269047Y-93432380D02*
X122935714Y-93432380D01*
X122507142Y-94432380D01*
X116884761Y-98337619D02*
X116789523Y-98290000D01*
X116694285Y-98194761D01*
X116551428Y-98051904D01*
X116456190Y-98004285D01*
X116360952Y-98004285D01*
X116408571Y-98242380D02*
X116313333Y-98194761D01*
X116218095Y-98099523D01*
X116170476Y-97909047D01*
X116170476Y-97575714D01*
X116218095Y-97385238D01*
X116313333Y-97290000D01*
X116408571Y-97242380D01*
X116599047Y-97242380D01*
X116694285Y-97290000D01*
X116789523Y-97385238D01*
X116837142Y-97575714D01*
X116837142Y-97909047D01*
X116789523Y-98099523D01*
X116694285Y-98194761D01*
X116599047Y-98242380D01*
X116408571Y-98242380D01*
X117789523Y-98242380D02*
X117218095Y-98242380D01*
X117503809Y-98242380D02*
X117503809Y-97242380D01*
X117408571Y-97385238D01*
X117313333Y-97480476D01*
X117218095Y-97528095D01*
X125967142Y-86590476D02*
X126014761Y-86638095D01*
X126062380Y-86780952D01*
X126062380Y-86876190D01*
X126014761Y-87019047D01*
X125919523Y-87114285D01*
X125824285Y-87161904D01*
X125633809Y-87209523D01*
X125490952Y-87209523D01*
X125300476Y-87161904D01*
X125205238Y-87114285D01*
X125110000Y-87019047D01*
X125062380Y-86876190D01*
X125062380Y-86780952D01*
X125110000Y-86638095D01*
X125157619Y-86590476D01*
X126062380Y-86161904D02*
X125062380Y-86161904D01*
X125062380Y-85780952D01*
X125110000Y-85685714D01*
X125157619Y-85638095D01*
X125252857Y-85590476D01*
X125395714Y-85590476D01*
X125490952Y-85638095D01*
X125538571Y-85685714D01*
X125586190Y-85780952D01*
X125586190Y-86161904D01*
X120483333Y-81637142D02*
X120435714Y-81684761D01*
X120292857Y-81732380D01*
X120197619Y-81732380D01*
X120054761Y-81684761D01*
X119959523Y-81589523D01*
X119911904Y-81494285D01*
X119864285Y-81303809D01*
X119864285Y-81160952D01*
X119911904Y-80970476D01*
X119959523Y-80875238D01*
X120054761Y-80780000D01*
X120197619Y-80732380D01*
X120292857Y-80732380D01*
X120435714Y-80780000D01*
X120483333Y-80827619D01*
X121435714Y-81732380D02*
X120864285Y-81732380D01*
X121150000Y-81732380D02*
X121150000Y-80732380D01*
X121054761Y-80875238D01*
X120959523Y-80970476D01*
X120864285Y-81018095D01*
X134151904Y-89670000D02*
X134056666Y-89622380D01*
X133913809Y-89622380D01*
X133770952Y-89670000D01*
X133675714Y-89765238D01*
X133628095Y-89860476D01*
X133580476Y-90050952D01*
X133580476Y-90193809D01*
X133628095Y-90384285D01*
X133675714Y-90479523D01*
X133770952Y-90574761D01*
X133913809Y-90622380D01*
X134009047Y-90622380D01*
X134151904Y-90574761D01*
X134199523Y-90527142D01*
X134199523Y-90193809D01*
X134009047Y-90193809D01*
X135104285Y-89622380D02*
X134628095Y-89622380D01*
X134580476Y-90098571D01*
X134628095Y-90050952D01*
X134723333Y-90003333D01*
X134961428Y-90003333D01*
X135056666Y-90050952D01*
X135104285Y-90098571D01*
X135151904Y-90193809D01*
X135151904Y-90431904D01*
X135104285Y-90527142D01*
X135056666Y-90574761D01*
X134961428Y-90622380D01*
X134723333Y-90622380D01*
X134628095Y-90574761D01*
X134580476Y-90527142D01*
X135437619Y-89622380D02*
X135770952Y-90622380D01*
X136104285Y-89622380D01*
X136437619Y-90241428D02*
X137199523Y-90241428D01*
X137628095Y-89717619D02*
X137675714Y-89670000D01*
X137770952Y-89622380D01*
X138009047Y-89622380D01*
X138104285Y-89670000D01*
X138151904Y-89717619D01*
X138199523Y-89812857D01*
X138199523Y-89908095D01*
X138151904Y-90050952D01*
X137580476Y-90622380D01*
X138199523Y-90622380D01*
X132233904Y-102068380D02*
X132233904Y-101068380D01*
X132805333Y-102068380D02*
X132376761Y-101496952D01*
X132805333Y-101068380D02*
X132233904Y-101639809D01*
X133757714Y-102068380D02*
X133186285Y-102068380D01*
X133472000Y-102068380D02*
X133472000Y-101068380D01*
X133376761Y-101211238D01*
X133281523Y-101306476D01*
X133186285Y-101354095D01*
X104306666Y-107068095D02*
X104306666Y-106591904D01*
X104592380Y-107163333D02*
X103592380Y-106830000D01*
X104592380Y-106496666D01*
X104592380Y-106163333D02*
X103925714Y-106163333D01*
X104116190Y-106163333D02*
X104020952Y-106115714D01*
X103973333Y-106068095D01*
X103925714Y-105972857D01*
X103925714Y-105877619D01*
X104592380Y-105115714D02*
X103592380Y-105115714D01*
X104544761Y-105115714D02*
X104592380Y-105210952D01*
X104592380Y-105401428D01*
X104544761Y-105496666D01*
X104497142Y-105544285D01*
X104401904Y-105591904D01*
X104116190Y-105591904D01*
X104020952Y-105544285D01*
X103973333Y-105496666D01*
X103925714Y-105401428D01*
X103925714Y-105210952D01*
X103973333Y-105115714D01*
X103925714Y-104210952D02*
X104592380Y-104210952D01*
X103925714Y-104639523D02*
X104449523Y-104639523D01*
X104544761Y-104591904D01*
X104592380Y-104496666D01*
X104592380Y-104353809D01*
X104544761Y-104258571D01*
X104497142Y-104210952D01*
X104592380Y-103734761D02*
X103925714Y-103734761D01*
X103592380Y-103734761D02*
X103640000Y-103782380D01*
X103687619Y-103734761D01*
X103640000Y-103687142D01*
X103592380Y-103734761D01*
X103687619Y-103734761D01*
X103925714Y-103258571D02*
X104592380Y-103258571D01*
X104020952Y-103258571D02*
X103973333Y-103210952D01*
X103925714Y-103115714D01*
X103925714Y-102972857D01*
X103973333Y-102877619D01*
X104068571Y-102830000D01*
X104592380Y-102830000D01*
X104592380Y-102210952D02*
X104544761Y-102306190D01*
X104497142Y-102353809D01*
X104401904Y-102401428D01*
X104116190Y-102401428D01*
X104020952Y-102353809D01*
X103973333Y-102306190D01*
X103925714Y-102210952D01*
X103925714Y-102068095D01*
X103973333Y-101972857D01*
X104020952Y-101925238D01*
X104116190Y-101877619D01*
X104401904Y-101877619D01*
X104497142Y-101925238D01*
X104544761Y-101972857D01*
X104592380Y-102068095D01*
X104592380Y-102210952D01*
X104687619Y-101687142D02*
X104687619Y-100925238D01*
X104592380Y-100687142D02*
X103592380Y-100687142D01*
X104592380Y-100115714D01*
X103592380Y-100115714D01*
X104592380Y-99210952D02*
X104068571Y-99210952D01*
X103973333Y-99258571D01*
X103925714Y-99353809D01*
X103925714Y-99544285D01*
X103973333Y-99639523D01*
X104544761Y-99210952D02*
X104592380Y-99306190D01*
X104592380Y-99544285D01*
X104544761Y-99639523D01*
X104449523Y-99687142D01*
X104354285Y-99687142D01*
X104259047Y-99639523D01*
X104211428Y-99544285D01*
X104211428Y-99306190D01*
X104163809Y-99210952D01*
X103925714Y-98734761D02*
X104592380Y-98734761D01*
X104020952Y-98734761D02*
X103973333Y-98687142D01*
X103925714Y-98591904D01*
X103925714Y-98449047D01*
X103973333Y-98353809D01*
X104068571Y-98306190D01*
X104592380Y-98306190D01*
X104592380Y-97687142D02*
X104544761Y-97782380D01*
X104497142Y-97830000D01*
X104401904Y-97877619D01*
X104116190Y-97877619D01*
X104020952Y-97830000D01*
X103973333Y-97782380D01*
X103925714Y-97687142D01*
X103925714Y-97544285D01*
X103973333Y-97449047D01*
X104020952Y-97401428D01*
X104116190Y-97353809D01*
X104401904Y-97353809D01*
X104497142Y-97401428D01*
X104544761Y-97449047D01*
X104592380Y-97544285D01*
X104592380Y-97687142D01*
X104687619Y-97163333D02*
X104687619Y-96401428D01*
X103925714Y-96258571D02*
X104592380Y-96020476D01*
X103925714Y-95782380D01*
X103592380Y-95496666D02*
X103592380Y-94877619D01*
X103973333Y-95210952D01*
X103973333Y-95068095D01*
X104020952Y-94972857D01*
X104068571Y-94925238D01*
X104163809Y-94877619D01*
X104401904Y-94877619D01*
X104497142Y-94925238D01*
X104544761Y-94972857D01*
X104592380Y-95068095D01*
X104592380Y-95353809D01*
X104544761Y-95449047D01*
X104497142Y-95496666D01*
X104497142Y-94449047D02*
X104544761Y-94401428D01*
X104592380Y-94449047D01*
X104544761Y-94496666D01*
X104497142Y-94449047D01*
X104592380Y-94449047D01*
X104592380Y-94068095D02*
X103925714Y-93544285D01*
X103925714Y-94068095D02*
X104592380Y-93544285D01*
X101766666Y-101044285D02*
X101766666Y-100568095D01*
X102052380Y-101139523D02*
X101052380Y-100806190D01*
X102052380Y-100472857D01*
X102052380Y-99615714D02*
X102052380Y-100187142D01*
X102052380Y-99901428D02*
X101052380Y-99901428D01*
X101195238Y-99996666D01*
X101290476Y-100091904D01*
X101338095Y-100187142D01*
X135017142Y-84272380D02*
X134445714Y-84272380D01*
X134731428Y-84272380D02*
X134731428Y-83272380D01*
X134636190Y-83415238D01*
X134540952Y-83510476D01*
X134445714Y-83558095D01*
X135445714Y-84272380D02*
X135445714Y-83272380D01*
X136017142Y-84272380D01*
X136017142Y-83272380D01*
X136921904Y-83605714D02*
X136921904Y-84272380D01*
X136683809Y-83224761D02*
X136445714Y-83939047D01*
X137064761Y-83939047D01*
X137969523Y-84272380D02*
X137398095Y-84272380D01*
X137683809Y-84272380D02*
X137683809Y-83272380D01*
X137588571Y-83415238D01*
X137493333Y-83510476D01*
X137398095Y-83558095D01*
X138826666Y-83605714D02*
X138826666Y-84272380D01*
X138588571Y-83224761D02*
X138350476Y-83939047D01*
X138969523Y-83939047D01*
X139493333Y-83700952D02*
X139398095Y-83653333D01*
X139350476Y-83605714D01*
X139302857Y-83510476D01*
X139302857Y-83462857D01*
X139350476Y-83367619D01*
X139398095Y-83320000D01*
X139493333Y-83272380D01*
X139683809Y-83272380D01*
X139779047Y-83320000D01*
X139826666Y-83367619D01*
X139874285Y-83462857D01*
X139874285Y-83510476D01*
X139826666Y-83605714D01*
X139779047Y-83653333D01*
X139683809Y-83700952D01*
X139493333Y-83700952D01*
X139398095Y-83748571D01*
X139350476Y-83796190D01*
X139302857Y-83891428D01*
X139302857Y-84081904D01*
X139350476Y-84177142D01*
X139398095Y-84224761D01*
X139493333Y-84272380D01*
X139683809Y-84272380D01*
X139779047Y-84224761D01*
X139826666Y-84177142D01*
X139874285Y-84081904D01*
X139874285Y-83891428D01*
X139826666Y-83796190D01*
X139779047Y-83748571D01*
X139683809Y-83700952D01*
D11*
X133059523Y-86721904D02*
X133059523Y-85921904D01*
X133250000Y-85921904D01*
X133364285Y-85960000D01*
X133440476Y-86036190D01*
X133478571Y-86112380D01*
X133516666Y-86264761D01*
X133516666Y-86379047D01*
X133478571Y-86531428D01*
X133440476Y-86607619D01*
X133364285Y-86683809D01*
X133250000Y-86721904D01*
X133059523Y-86721904D01*
X134278571Y-86721904D02*
X133821428Y-86721904D01*
X134050000Y-86721904D02*
X134050000Y-85921904D01*
X133973809Y-86036190D01*
X133897619Y-86112380D01*
X133821428Y-86150476D01*
D12*
X129278095Y-85012380D02*
X129278095Y-84012380D01*
X129849523Y-85012380D02*
X129420952Y-84440952D01*
X129849523Y-84012380D02*
X129278095Y-84583809D01*
X130230952Y-121102380D02*
X130230952Y-120102380D01*
X130611904Y-120102380D01*
X130707142Y-120150000D01*
X130754761Y-120197619D01*
X130802380Y-120292857D01*
X130802380Y-120435714D01*
X130754761Y-120530952D01*
X130707142Y-120578571D01*
X130611904Y-120626190D01*
X130230952Y-120626190D01*
X131373809Y-121102380D02*
X131278571Y-121054761D01*
X131230952Y-121007142D01*
X131183333Y-120911904D01*
X131183333Y-120626190D01*
X131230952Y-120530952D01*
X131278571Y-120483333D01*
X131373809Y-120435714D01*
X131516666Y-120435714D01*
X131611904Y-120483333D01*
X131659523Y-120530952D01*
X131707142Y-120626190D01*
X131707142Y-120911904D01*
X131659523Y-121007142D01*
X131611904Y-121054761D01*
X131516666Y-121102380D01*
X131373809Y-121102380D01*
X132040476Y-120435714D02*
X132230952Y-121102380D01*
X132421428Y-120626190D01*
X132611904Y-121102380D01*
X132802380Y-120435714D01*
X133564285Y-121054761D02*
X133469047Y-121102380D01*
X133278571Y-121102380D01*
X133183333Y-121054761D01*
X133135714Y-120959523D01*
X133135714Y-120578571D01*
X133183333Y-120483333D01*
X133278571Y-120435714D01*
X133469047Y-120435714D01*
X133564285Y-120483333D01*
X133611904Y-120578571D01*
X133611904Y-120673809D01*
X133135714Y-120769047D01*
X134040476Y-121102380D02*
X134040476Y-120435714D01*
X134040476Y-120626190D02*
X134088095Y-120530952D01*
X134135714Y-120483333D01*
X134230952Y-120435714D01*
X134326190Y-120435714D01*
X135421428Y-121102380D02*
X135421428Y-120102380D01*
X135897619Y-121102380D02*
X135897619Y-120102380D01*
X136469047Y-121102380D01*
X136469047Y-120102380D01*
X133524666Y-116292380D02*
X133524666Y-117006666D01*
X133477047Y-117149523D01*
X133381809Y-117244761D01*
X133238952Y-117292380D01*
X133143714Y-117292380D01*
X134524666Y-117292380D02*
X133953238Y-117292380D01*
X134238952Y-117292380D02*
X134238952Y-116292380D01*
X134143714Y-116435238D01*
X134048476Y-116530476D01*
X133953238Y-116578095D01*
X82954761Y-109362380D02*
X83002380Y-109219523D01*
X83002380Y-108981428D01*
X82954761Y-108886190D01*
X82907142Y-108838571D01*
X82811904Y-108790952D01*
X82716666Y-108790952D01*
X82621428Y-108838571D01*
X82573809Y-108886190D01*
X82526190Y-108981428D01*
X82478571Y-109171904D01*
X82430952Y-109267142D01*
X82383333Y-109314761D01*
X82288095Y-109362380D01*
X82192857Y-109362380D01*
X82097619Y-109314761D01*
X82050000Y-109267142D01*
X82002380Y-109171904D01*
X82002380Y-108933809D01*
X82050000Y-108790952D01*
X82954761Y-107981428D02*
X83002380Y-108076666D01*
X83002380Y-108267142D01*
X82954761Y-108362380D01*
X82859523Y-108409999D01*
X82478571Y-108409999D01*
X82383333Y-108362380D01*
X82335714Y-108267142D01*
X82335714Y-108076666D01*
X82383333Y-107981428D01*
X82478571Y-107933809D01*
X82573809Y-107933809D01*
X82669047Y-108409999D01*
X83002380Y-107505238D02*
X82335714Y-107505238D01*
X82526190Y-107505238D02*
X82430952Y-107457619D01*
X82383333Y-107409999D01*
X82335714Y-107314761D01*
X82335714Y-107219523D01*
X82335714Y-106981428D02*
X83002380Y-106743333D01*
X82335714Y-106505238D01*
X83002380Y-105981428D02*
X82954761Y-106076666D01*
X82907142Y-106124285D01*
X82811904Y-106171904D01*
X82526190Y-106171904D01*
X82430952Y-106124285D01*
X82383333Y-106076666D01*
X82335714Y-105981428D01*
X82335714Y-105838571D01*
X82383333Y-105743333D01*
X82430952Y-105695714D01*
X82526190Y-105648095D01*
X82811904Y-105648095D01*
X82907142Y-105695714D01*
X82954761Y-105743333D01*
X83002380Y-105838571D01*
X83002380Y-105981428D01*
X83002380Y-104457619D02*
X82002380Y-104457619D01*
X82002380Y-104219523D01*
X82050000Y-104076666D01*
X82145238Y-103981428D01*
X82240476Y-103933809D01*
X82430952Y-103886190D01*
X82573809Y-103886190D01*
X82764285Y-103933809D01*
X82859523Y-103981428D01*
X82954761Y-104076666D01*
X83002380Y-104219523D01*
X83002380Y-104457619D01*
X83002380Y-103314761D02*
X82954761Y-103409999D01*
X82907142Y-103457619D01*
X82811904Y-103505238D01*
X82526190Y-103505238D01*
X82430952Y-103457619D01*
X82383333Y-103409999D01*
X82335714Y-103314761D01*
X82335714Y-103171904D01*
X82383333Y-103076666D01*
X82430952Y-103029047D01*
X82526190Y-102981428D01*
X82811904Y-102981428D01*
X82907142Y-103029047D01*
X82954761Y-103076666D01*
X83002380Y-103171904D01*
X83002380Y-103314761D01*
X83002380Y-102409999D02*
X82954761Y-102505238D01*
X82907142Y-102552857D01*
X82811904Y-102600476D01*
X82526190Y-102600476D01*
X82430952Y-102552857D01*
X82383333Y-102505238D01*
X82335714Y-102409999D01*
X82335714Y-102267142D01*
X82383333Y-102171904D01*
X82430952Y-102124285D01*
X82526190Y-102076666D01*
X82811904Y-102076666D01*
X82907142Y-102124285D01*
X82954761Y-102171904D01*
X83002380Y-102267142D01*
X83002380Y-102409999D01*
X83002380Y-101648095D02*
X82335714Y-101648095D01*
X82526190Y-101648095D02*
X82430952Y-101600476D01*
X82383333Y-101552857D01*
X82335714Y-101457619D01*
X82335714Y-101362380D01*
X85812380Y-105743333D02*
X86526666Y-105743333D01*
X86669523Y-105790952D01*
X86764761Y-105886190D01*
X86812380Y-106029047D01*
X86812380Y-106124285D01*
X86145714Y-104838571D02*
X86812380Y-104838571D01*
X85764761Y-105076666D02*
X86479047Y-105314761D01*
X86479047Y-104695714D01*
X82954761Y-122657619D02*
X83002380Y-122514761D01*
X83002380Y-122276666D01*
X82954761Y-122181428D01*
X82907142Y-122133809D01*
X82811904Y-122086190D01*
X82716666Y-122086190D01*
X82621428Y-122133809D01*
X82573809Y-122181428D01*
X82526190Y-122276666D01*
X82478571Y-122467142D01*
X82430952Y-122562380D01*
X82383333Y-122610000D01*
X82288095Y-122657619D01*
X82192857Y-122657619D01*
X82097619Y-122610000D01*
X82050000Y-122562380D01*
X82002380Y-122467142D01*
X82002380Y-122229047D01*
X82050000Y-122086190D01*
X82954761Y-121276666D02*
X83002380Y-121371904D01*
X83002380Y-121562380D01*
X82954761Y-121657619D01*
X82859523Y-121705238D01*
X82478571Y-121705238D01*
X82383333Y-121657619D01*
X82335714Y-121562380D01*
X82335714Y-121371904D01*
X82383333Y-121276666D01*
X82478571Y-121229047D01*
X82573809Y-121229047D01*
X82669047Y-121705238D01*
X83002380Y-120800476D02*
X82335714Y-120800476D01*
X82526190Y-120800476D02*
X82430952Y-120752857D01*
X82383333Y-120705238D01*
X82335714Y-120610000D01*
X82335714Y-120514761D01*
X82335714Y-120276666D02*
X83002380Y-120038571D01*
X82335714Y-119800476D01*
X83002380Y-119276666D02*
X82954761Y-119371904D01*
X82907142Y-119419523D01*
X82811904Y-119467142D01*
X82526190Y-119467142D01*
X82430952Y-119419523D01*
X82383333Y-119371904D01*
X82335714Y-119276666D01*
X82335714Y-119133809D01*
X82383333Y-119038571D01*
X82430952Y-118990952D01*
X82526190Y-118943333D01*
X82811904Y-118943333D01*
X82907142Y-118990952D01*
X82954761Y-119038571D01*
X83002380Y-119133809D01*
X83002380Y-119276666D01*
X82478571Y-117419523D02*
X82478571Y-117752857D01*
X83002380Y-117752857D02*
X82002380Y-117752857D01*
X82002380Y-117276666D01*
X83002380Y-116895714D02*
X82335714Y-116895714D01*
X82002380Y-116895714D02*
X82050000Y-116943333D01*
X82097619Y-116895714D01*
X82050000Y-116848095D01*
X82002380Y-116895714D01*
X82097619Y-116895714D01*
X82335714Y-116419523D02*
X83002380Y-116419523D01*
X82430952Y-116419523D02*
X82383333Y-116371904D01*
X82335714Y-116276666D01*
X82335714Y-116133809D01*
X82383333Y-116038571D01*
X82478571Y-115990952D01*
X83002380Y-115990952D01*
X82335714Y-115086190D02*
X83145238Y-115086190D01*
X83240476Y-115133809D01*
X83288095Y-115181428D01*
X83335714Y-115276666D01*
X83335714Y-115419523D01*
X83288095Y-115514761D01*
X82954761Y-115086190D02*
X83002380Y-115181428D01*
X83002380Y-115371904D01*
X82954761Y-115467142D01*
X82907142Y-115514761D01*
X82811904Y-115562380D01*
X82526190Y-115562380D01*
X82430952Y-115514761D01*
X82383333Y-115467142D01*
X82335714Y-115371904D01*
X82335714Y-115181428D01*
X82383333Y-115086190D01*
X82954761Y-114229047D02*
X83002380Y-114324285D01*
X83002380Y-114514761D01*
X82954761Y-114610000D01*
X82859523Y-114657619D01*
X82478571Y-114657619D01*
X82383333Y-114610000D01*
X82335714Y-114514761D01*
X82335714Y-114324285D01*
X82383333Y-114229047D01*
X82478571Y-114181428D01*
X82573809Y-114181428D01*
X82669047Y-114657619D01*
X83002380Y-113752857D02*
X82335714Y-113752857D01*
X82526190Y-113752857D02*
X82430952Y-113705238D01*
X82383333Y-113657619D01*
X82335714Y-113562380D01*
X82335714Y-113467142D01*
X85812380Y-118443333D02*
X86526666Y-118443333D01*
X86669523Y-118490952D01*
X86764761Y-118586190D01*
X86812380Y-118729047D01*
X86812380Y-118824285D01*
X85812380Y-117490952D02*
X85812380Y-117967142D01*
X86288571Y-118014761D01*
X86240952Y-117967142D01*
X86193333Y-117871904D01*
X86193333Y-117633809D01*
X86240952Y-117538571D01*
X86288571Y-117490952D01*
X86383809Y-117443333D01*
X86621904Y-117443333D01*
X86717142Y-117490952D01*
X86764761Y-117538571D01*
X86812380Y-117633809D01*
X86812380Y-117871904D01*
X86764761Y-117967142D01*
X86717142Y-118014761D01*
X82907142Y-97074761D02*
X82954761Y-97122380D01*
X83002380Y-97265238D01*
X83002380Y-97360476D01*
X82954761Y-97503333D01*
X82859523Y-97598571D01*
X82764285Y-97646190D01*
X82573809Y-97693809D01*
X82430952Y-97693809D01*
X82240476Y-97646190D01*
X82145238Y-97598571D01*
X82050000Y-97503333D01*
X82002380Y-97360476D01*
X82002380Y-97265238D01*
X82050000Y-97122380D01*
X82097619Y-97074761D01*
X83002380Y-96217619D02*
X82478571Y-96217619D01*
X82383333Y-96265238D01*
X82335714Y-96360476D01*
X82335714Y-96550952D01*
X82383333Y-96646190D01*
X82954761Y-96217619D02*
X83002380Y-96312857D01*
X83002380Y-96550952D01*
X82954761Y-96646190D01*
X82859523Y-96693809D01*
X82764285Y-96693809D01*
X82669047Y-96646190D01*
X82621428Y-96550952D01*
X82621428Y-96312857D01*
X82573809Y-96217619D01*
X83002380Y-95598571D02*
X82954761Y-95693809D01*
X82859523Y-95741428D01*
X82002380Y-95741428D01*
X83002380Y-95217619D02*
X82335714Y-95217619D01*
X82002380Y-95217619D02*
X82050000Y-95265238D01*
X82097619Y-95217619D01*
X82050000Y-95170000D01*
X82002380Y-95217619D01*
X82097619Y-95217619D01*
X83002380Y-94741428D02*
X82002380Y-94741428D01*
X82383333Y-94741428D02*
X82335714Y-94646190D01*
X82335714Y-94455714D01*
X82383333Y-94360476D01*
X82430952Y-94312857D01*
X82526190Y-94265238D01*
X82811904Y-94265238D01*
X82907142Y-94312857D01*
X82954761Y-94360476D01*
X83002380Y-94455714D01*
X83002380Y-94646190D01*
X82954761Y-94741428D01*
X83002380Y-93836666D02*
X82335714Y-93836666D01*
X82526190Y-93836666D02*
X82430952Y-93789047D01*
X82383333Y-93741428D01*
X82335714Y-93646190D01*
X82335714Y-93550952D01*
X83002380Y-92789047D02*
X82478571Y-92789047D01*
X82383333Y-92836666D01*
X82335714Y-92931904D01*
X82335714Y-93122380D01*
X82383333Y-93217619D01*
X82954761Y-92789047D02*
X83002380Y-92884285D01*
X83002380Y-93122380D01*
X82954761Y-93217619D01*
X82859523Y-93265238D01*
X82764285Y-93265238D01*
X82669047Y-93217619D01*
X82621428Y-93122380D01*
X82621428Y-92884285D01*
X82573809Y-92789047D01*
X82335714Y-92455714D02*
X82335714Y-92074761D01*
X82002380Y-92312857D02*
X82859523Y-92312857D01*
X82954761Y-92265238D01*
X83002380Y-92170000D01*
X83002380Y-92074761D01*
X83002380Y-91741428D02*
X82335714Y-91741428D01*
X82002380Y-91741428D02*
X82050000Y-91789047D01*
X82097619Y-91741428D01*
X82050000Y-91693809D01*
X82002380Y-91741428D01*
X82097619Y-91741428D01*
X83002380Y-91122380D02*
X82954761Y-91217619D01*
X82907142Y-91265238D01*
X82811904Y-91312857D01*
X82526190Y-91312857D01*
X82430952Y-91265238D01*
X82383333Y-91217619D01*
X82335714Y-91122380D01*
X82335714Y-90979523D01*
X82383333Y-90884285D01*
X82430952Y-90836666D01*
X82526190Y-90789047D01*
X82811904Y-90789047D01*
X82907142Y-90836666D01*
X82954761Y-90884285D01*
X83002380Y-90979523D01*
X83002380Y-91122380D01*
X82335714Y-90360476D02*
X83002380Y-90360476D01*
X82430952Y-90360476D02*
X82383333Y-90312857D01*
X82335714Y-90217619D01*
X82335714Y-90074761D01*
X82383333Y-89979523D01*
X82478571Y-89931904D01*
X83002380Y-89931904D01*
X82954761Y-88741428D02*
X83002380Y-88598571D01*
X83002380Y-88360476D01*
X82954761Y-88265238D01*
X82907142Y-88217619D01*
X82811904Y-88170000D01*
X82716666Y-88170000D01*
X82621428Y-88217619D01*
X82573809Y-88265238D01*
X82526190Y-88360476D01*
X82478571Y-88550952D01*
X82430952Y-88646190D01*
X82383333Y-88693809D01*
X82288095Y-88741428D01*
X82192857Y-88741428D01*
X82097619Y-88693809D01*
X82050000Y-88646190D01*
X82002380Y-88550952D01*
X82002380Y-88312857D01*
X82050000Y-88170000D01*
X82335714Y-87836666D02*
X83002380Y-87646190D01*
X82526190Y-87455714D01*
X83002380Y-87265238D01*
X82335714Y-87074761D01*
X83002380Y-86693809D02*
X82335714Y-86693809D01*
X82002380Y-86693809D02*
X82050000Y-86741428D01*
X82097619Y-86693809D01*
X82050000Y-86646190D01*
X82002380Y-86693809D01*
X82097619Y-86693809D01*
X82335714Y-86360476D02*
X82335714Y-85979523D01*
X82002380Y-86217619D02*
X82859523Y-86217619D01*
X82954761Y-86170000D01*
X83002380Y-86074761D01*
X83002380Y-85979523D01*
X82954761Y-85217619D02*
X83002380Y-85312857D01*
X83002380Y-85503333D01*
X82954761Y-85598571D01*
X82907142Y-85646190D01*
X82811904Y-85693809D01*
X82526190Y-85693809D01*
X82430952Y-85646190D01*
X82383333Y-85598571D01*
X82335714Y-85503333D01*
X82335714Y-85312857D01*
X82383333Y-85217619D01*
X83002380Y-84789047D02*
X82002380Y-84789047D01*
X83002380Y-84360476D02*
X82478571Y-84360476D01*
X82383333Y-84408095D01*
X82335714Y-84503333D01*
X82335714Y-84646190D01*
X82383333Y-84741428D01*
X82430952Y-84789047D01*
X82954761Y-83503333D02*
X83002380Y-83598571D01*
X83002380Y-83789047D01*
X82954761Y-83884285D01*
X82859523Y-83931904D01*
X82478571Y-83931904D01*
X82383333Y-83884285D01*
X82335714Y-83789047D01*
X82335714Y-83598571D01*
X82383333Y-83503333D01*
X82478571Y-83455714D01*
X82573809Y-83455714D01*
X82669047Y-83931904D01*
X82954761Y-83074761D02*
X83002380Y-82979523D01*
X83002380Y-82789047D01*
X82954761Y-82693809D01*
X82859523Y-82646190D01*
X82811904Y-82646190D01*
X82716666Y-82693809D01*
X82669047Y-82789047D01*
X82669047Y-82931904D01*
X82621428Y-83027142D01*
X82526190Y-83074761D01*
X82478571Y-83074761D01*
X82383333Y-83027142D01*
X82335714Y-82931904D01*
X82335714Y-82789047D01*
X82383333Y-82693809D01*
X85812380Y-90503333D02*
X86526666Y-90503333D01*
X86669523Y-90550952D01*
X86764761Y-90646190D01*
X86812380Y-90789047D01*
X86812380Y-90884285D01*
X85812380Y-89598571D02*
X85812380Y-89789047D01*
X85860000Y-89884285D01*
X85907619Y-89931904D01*
X86050476Y-90027142D01*
X86240952Y-90074761D01*
X86621904Y-90074761D01*
X86717142Y-90027142D01*
X86764761Y-89979523D01*
X86812380Y-89884285D01*
X86812380Y-89693809D01*
X86764761Y-89598571D01*
X86717142Y-89550952D01*
X86621904Y-89503333D01*
X86383809Y-89503333D01*
X86288571Y-89550952D01*
X86240952Y-89598571D01*
X86193333Y-89693809D01*
X86193333Y-89884285D01*
X86240952Y-89979523D01*
X86288571Y-90027142D01*
X86383809Y-90074761D01*
X122992380Y-84780476D02*
X122516190Y-85113809D01*
X122992380Y-85351904D02*
X121992380Y-85351904D01*
X121992380Y-84970952D01*
X122040000Y-84875714D01*
X122087619Y-84828095D01*
X122182857Y-84780476D01*
X122325714Y-84780476D01*
X122420952Y-84828095D01*
X122468571Y-84875714D01*
X122516190Y-84970952D01*
X122516190Y-85351904D01*
D13*
X124785714Y-85210000D02*
X124442857Y-85450000D01*
X124785714Y-85621428D02*
X124065714Y-85621428D01*
X124065714Y-85347142D01*
X124100000Y-85278571D01*
X124134285Y-85244285D01*
X124202857Y-85210000D01*
X124305714Y-85210000D01*
X124374285Y-85244285D01*
X124408571Y-85278571D01*
X124442857Y-85347142D01*
X124442857Y-85621428D01*
X124785714Y-84524285D02*
X124785714Y-84935714D01*
X124785714Y-84730000D02*
X124065714Y-84730000D01*
X124168571Y-84798571D01*
X124237142Y-84867142D01*
X124271428Y-84935714D01*
D12*
X119435523Y-114132380D02*
X119102190Y-113656190D01*
X118864095Y-114132380D02*
X118864095Y-113132380D01*
X119245047Y-113132380D01*
X119340285Y-113180000D01*
X119387904Y-113227619D01*
X119435523Y-113322857D01*
X119435523Y-113465714D01*
X119387904Y-113560952D01*
X119340285Y-113608571D01*
X119245047Y-113656190D01*
X118864095Y-113656190D01*
D13*
X119006000Y-112085714D02*
X118766000Y-111742857D01*
X118594571Y-112085714D02*
X118594571Y-111365714D01*
X118868857Y-111365714D01*
X118937428Y-111400000D01*
X118971714Y-111434285D01*
X119006000Y-111502857D01*
X119006000Y-111605714D01*
X118971714Y-111674285D01*
X118937428Y-111708571D01*
X118868857Y-111742857D01*
X118594571Y-111742857D01*
X119280285Y-111434285D02*
X119314571Y-111400000D01*
X119383142Y-111365714D01*
X119554571Y-111365714D01*
X119623142Y-111400000D01*
X119657428Y-111434285D01*
X119691714Y-111502857D01*
X119691714Y-111571428D01*
X119657428Y-111674285D01*
X119246000Y-112085714D01*
X119691714Y-112085714D01*
D12*
X119435523Y-105212380D02*
X119102190Y-104736190D01*
X118864095Y-105212380D02*
X118864095Y-104212380D01*
X119245047Y-104212380D01*
X119340285Y-104260000D01*
X119387904Y-104307619D01*
X119435523Y-104402857D01*
X119435523Y-104545714D01*
X119387904Y-104640952D01*
X119340285Y-104688571D01*
X119245047Y-104736190D01*
X118864095Y-104736190D01*
D13*
X119006000Y-107005714D02*
X118766000Y-106662857D01*
X118594571Y-107005714D02*
X118594571Y-106285714D01*
X118868857Y-106285714D01*
X118937428Y-106320000D01*
X118971714Y-106354285D01*
X119006000Y-106422857D01*
X119006000Y-106525714D01*
X118971714Y-106594285D01*
X118937428Y-106628571D01*
X118868857Y-106662857D01*
X118594571Y-106662857D01*
X119246000Y-106285714D02*
X119691714Y-106285714D01*
X119451714Y-106560000D01*
X119554571Y-106560000D01*
X119623142Y-106594285D01*
X119657428Y-106628571D01*
X119691714Y-106697142D01*
X119691714Y-106868571D01*
X119657428Y-106937142D01*
X119623142Y-106971428D01*
X119554571Y-107005714D01*
X119348857Y-107005714D01*
X119280285Y-106971428D01*
X119246000Y-106937142D01*
D12*
X116547047Y-123594761D02*
X116689904Y-123642380D01*
X116928000Y-123642380D01*
X117023238Y-123594761D01*
X117070857Y-123547142D01*
X117118476Y-123451904D01*
X117118476Y-123356666D01*
X117070857Y-123261428D01*
X117023238Y-123213809D01*
X116928000Y-123166190D01*
X116737523Y-123118571D01*
X116642285Y-123070952D01*
X116594666Y-123023333D01*
X116547047Y-122928095D01*
X116547047Y-122832857D01*
X116594666Y-122737619D01*
X116642285Y-122690000D01*
X116737523Y-122642380D01*
X116975619Y-122642380D01*
X117118476Y-122690000D01*
X117451809Y-122975714D02*
X117642285Y-123642380D01*
X117832761Y-123166190D01*
X118023238Y-123642380D01*
X118213714Y-122975714D01*
X118594666Y-123642380D02*
X118594666Y-122975714D01*
X118594666Y-122642380D02*
X118547047Y-122690000D01*
X118594666Y-122737619D01*
X118642285Y-122690000D01*
X118594666Y-122642380D01*
X118594666Y-122737619D01*
X118928000Y-122975714D02*
X119308952Y-122975714D01*
X119070857Y-122642380D02*
X119070857Y-123499523D01*
X119118476Y-123594761D01*
X119213714Y-123642380D01*
X119308952Y-123642380D01*
X120070857Y-123594761D02*
X119975619Y-123642380D01*
X119785142Y-123642380D01*
X119689904Y-123594761D01*
X119642285Y-123547142D01*
X119594666Y-123451904D01*
X119594666Y-123166190D01*
X119642285Y-123070952D01*
X119689904Y-123023333D01*
X119785142Y-122975714D01*
X119975619Y-122975714D01*
X120070857Y-123023333D01*
X120499428Y-123642380D02*
X120499428Y-122642380D01*
X120928000Y-123642380D02*
X120928000Y-123118571D01*
X120880380Y-123023333D01*
X120785142Y-122975714D01*
X120642285Y-122975714D01*
X120547047Y-123023333D01*
X120499428Y-123070952D01*
X122451809Y-124023333D02*
X122404190Y-123975714D01*
X122308952Y-123832857D01*
X122261333Y-123737619D01*
X122213714Y-123594761D01*
X122166095Y-123356666D01*
X122166095Y-123166190D01*
X122213714Y-122928095D01*
X122261333Y-122785238D01*
X122308952Y-122690000D01*
X122404190Y-122547142D01*
X122451809Y-122499523D01*
X122785142Y-122737619D02*
X122832761Y-122690000D01*
X122928000Y-122642380D01*
X123166095Y-122642380D01*
X123261333Y-122690000D01*
X123308952Y-122737619D01*
X123356571Y-122832857D01*
X123356571Y-122928095D01*
X123308952Y-123070952D01*
X122737523Y-123642380D01*
X123356571Y-123642380D01*
X124451809Y-123642380D02*
X124975619Y-122975714D01*
X124451809Y-122975714D02*
X124975619Y-123642380D01*
X126308952Y-122642380D02*
X126499428Y-122642380D01*
X126594666Y-122690000D01*
X126689904Y-122785238D01*
X126737523Y-122975714D01*
X126737523Y-123309047D01*
X126689904Y-123499523D01*
X126594666Y-123594761D01*
X126499428Y-123642380D01*
X126308952Y-123642380D01*
X126213714Y-123594761D01*
X126118476Y-123499523D01*
X126070857Y-123309047D01*
X126070857Y-122975714D01*
X126118476Y-122785238D01*
X126213714Y-122690000D01*
X126308952Y-122642380D01*
X127166095Y-122975714D02*
X127166095Y-123642380D01*
X127166095Y-123070952D02*
X127213714Y-123023333D01*
X127308952Y-122975714D01*
X127451809Y-122975714D01*
X127547047Y-123023333D01*
X127594666Y-123118571D01*
X127594666Y-123642380D01*
X127975619Y-124023333D02*
X128023238Y-123975714D01*
X128118476Y-123832857D01*
X128166095Y-123737619D01*
X128213714Y-123594761D01*
X128261333Y-123356666D01*
X128261333Y-123166190D01*
X128213714Y-122928095D01*
X128166095Y-122785238D01*
X128118476Y-122690000D01*
X128023238Y-122547142D01*
X127975619Y-122499523D01*
X121586666Y-116292380D02*
X121586666Y-117006666D01*
X121539047Y-117149523D01*
X121443809Y-117244761D01*
X121300952Y-117292380D01*
X121205714Y-117292380D01*
X122015238Y-116387619D02*
X122062857Y-116340000D01*
X122158095Y-116292380D01*
X122396190Y-116292380D01*
X122491428Y-116340000D01*
X122539047Y-116387619D01*
X122586666Y-116482857D01*
X122586666Y-116578095D01*
X122539047Y-116720952D01*
X121967619Y-117292380D01*
X122586666Y-117292380D01*
M02*
