G04 #@! TF.GenerationSoftware,KiCad,Pcbnew,5.1.8-db9833491~88~ubuntu18.04.1*
G04 #@! TF.CreationDate,2020-12-12T18:03:07+01:00*
G04 #@! TF.ProjectId,UselessBox,5573656c-6573-4734-926f-782e6b696361,rev?*
G04 #@! TF.SameCoordinates,Original*
G04 #@! TF.FileFunction,Copper,L1,Top*
G04 #@! TF.FilePolarity,Positive*
%FSLAX46Y46*%
G04 Gerber Fmt 4.6, Leading zero omitted, Abs format (unit mm)*
G04 Created by KiCad (PCBNEW 5.1.8-db9833491~88~ubuntu18.04.1) date 2020-12-12 18:03:07*
%MOMM*%
%LPD*%
G01*
G04 APERTURE LIST*
G04 #@! TA.AperFunction,ComponentPad*
%ADD10O,1.200000X1.600000*%
G04 #@! TD*
G04 #@! TA.AperFunction,ComponentPad*
%ADD11O,1.200000X1.200000*%
G04 #@! TD*
G04 #@! TA.AperFunction,ComponentPad*
%ADD12C,1.600000*%
G04 #@! TD*
G04 #@! TA.AperFunction,ComponentPad*
%ADD13R,1.600000X1.600000*%
G04 #@! TD*
G04 #@! TA.AperFunction,ComponentPad*
%ADD14R,1.400000X1.400000*%
G04 #@! TD*
G04 #@! TA.AperFunction,ComponentPad*
%ADD15C,1.400000*%
G04 #@! TD*
G04 #@! TA.AperFunction,ComponentPad*
%ADD16O,1.600000X1.600000*%
G04 #@! TD*
G04 #@! TA.AperFunction,ComponentPad*
%ADD17R,1.700000X1.700000*%
G04 #@! TD*
G04 #@! TA.AperFunction,ComponentPad*
%ADD18O,1.700000X1.700000*%
G04 #@! TD*
G04 #@! TA.AperFunction,ComponentPad*
%ADD19O,1.400000X1.400000*%
G04 #@! TD*
G04 APERTURE END LIST*
D10*
X119380000Y-99060000D03*
D11*
X120650000Y-97790000D03*
X119380000Y-96520000D03*
D12*
X118110000Y-83900000D03*
D13*
X118110000Y-88900000D03*
D14*
X129032000Y-92456000D03*
D15*
X136652000Y-92456000D03*
X129032000Y-105146000D03*
X129032000Y-110236000D03*
X129032000Y-100076000D03*
X136662000Y-105166000D03*
X136662000Y-110246000D03*
X136652000Y-100076000D03*
D13*
X95250000Y-81280000D03*
D16*
X110490000Y-114300000D03*
X95250000Y-83820000D03*
X110490000Y-111760000D03*
X95250000Y-86360000D03*
X110490000Y-109220000D03*
X95250000Y-88900000D03*
X110490000Y-106680000D03*
X95250000Y-91440000D03*
X110490000Y-104140000D03*
X95250000Y-93980000D03*
X110490000Y-101600000D03*
X95250000Y-96520000D03*
X110490000Y-99060000D03*
X95250000Y-99060000D03*
X110490000Y-96520000D03*
X95250000Y-101600000D03*
X110490000Y-93980000D03*
X95250000Y-104140000D03*
X110490000Y-91440000D03*
X95250000Y-106680000D03*
X110490000Y-88900000D03*
X95250000Y-109220000D03*
X110490000Y-86360000D03*
X95250000Y-111760000D03*
X110490000Y-83820000D03*
X95250000Y-114300000D03*
X110490000Y-81280000D03*
X95250000Y-116840000D03*
X110490000Y-116840000D03*
D13*
X129540000Y-86360000D03*
D16*
X137160000Y-86360000D03*
D17*
X132588000Y-116840000D03*
D18*
X135128000Y-116840000D03*
D17*
X86360000Y-102870000D03*
D18*
X86360000Y-105410000D03*
X86360000Y-107950000D03*
X86360000Y-120650000D03*
X86360000Y-118110000D03*
D17*
X86360000Y-115570000D03*
X86360000Y-85090000D03*
D18*
X86360000Y-87630000D03*
X86360000Y-90170000D03*
X86360000Y-92710000D03*
X86360000Y-95250000D03*
D15*
X124460000Y-81280000D03*
D19*
X124460000Y-88900000D03*
X122936000Y-111760000D03*
D15*
X115316000Y-111760000D03*
X122936000Y-106680000D03*
D19*
X115316000Y-106680000D03*
D17*
X118110000Y-119888000D03*
D18*
X120650000Y-119888000D03*
X123190000Y-119888000D03*
X125730000Y-119888000D03*
M02*
