G04 #@! TF.GenerationSoftware,KiCad,Pcbnew,5.1.8-db9833491~88~ubuntu18.04.1*
G04 #@! TF.CreationDate,2020-12-13T17:35:25+01:00*
G04 #@! TF.ProjectId,UselessBox,5573656c-6573-4734-926f-782e6b696361,rev?*
G04 #@! TF.SameCoordinates,Original*
G04 #@! TF.FileFunction,Other,User*
%FSLAX46Y46*%
G04 Gerber Fmt 4.6, Leading zero omitted, Abs format (unit mm)*
G04 Created by KiCad (PCBNEW 5.1.8-db9833491~88~ubuntu18.04.1) date 2020-12-13 17:35:25*
%MOMM*%
%LPD*%
G01*
G04 APERTURE LIST*
%ADD10C,0.050000*%
G04 APERTURE END LIST*
D10*
X121510000Y-87650000D02*
G75*
G03*
X121510000Y-87650000I-3400000J0D01*
G01*
X114864000Y-101290000D02*
X121514000Y-101290000D01*
X121514000Y-101290000D02*
X121514000Y-94640000D01*
X121514000Y-94640000D02*
X114864000Y-94640000D01*
X114864000Y-94640000D02*
X114864000Y-101290000D01*
X138102000Y-111786000D02*
X127582000Y-111786000D01*
X127582000Y-90906000D02*
X138102000Y-90906000D01*
X138102000Y-90906000D02*
X138102000Y-111786000D01*
X127582000Y-90906000D02*
X127582000Y-111786000D01*
X93720000Y-77220000D02*
X112000000Y-77220000D01*
X93720000Y-77220000D02*
X93720000Y-123440000D01*
X112000000Y-123440000D02*
X112000000Y-77220000D01*
X112000000Y-123440000D02*
X93720000Y-123440000D01*
X128490000Y-85110000D02*
X128490000Y-87610000D01*
X128490000Y-87610000D02*
X138210000Y-87610000D01*
X138210000Y-87610000D02*
X138210000Y-85110000D01*
X138210000Y-85110000D02*
X128490000Y-85110000D01*
X130788000Y-118640000D02*
X136938000Y-118640000D01*
X136938000Y-118640000D02*
X136938000Y-115040000D01*
X136938000Y-115040000D02*
X130788000Y-115040000D01*
X130788000Y-115040000D02*
X130788000Y-118640000D01*
X84560000Y-101070000D02*
X84560000Y-109720000D01*
X84560000Y-109720000D02*
X88160000Y-109720000D01*
X88160000Y-109720000D02*
X88160000Y-101070000D01*
X88160000Y-101070000D02*
X84560000Y-101070000D01*
X88160000Y-113770000D02*
X84560000Y-113770000D01*
X88160000Y-122420000D02*
X88160000Y-113770000D01*
X84560000Y-122420000D02*
X88160000Y-122420000D01*
X84560000Y-113770000D02*
X84560000Y-122420000D01*
X84560000Y-83290000D02*
X84560000Y-97040000D01*
X84560000Y-97040000D02*
X88160000Y-97040000D01*
X88160000Y-97040000D02*
X88160000Y-83290000D01*
X88160000Y-83290000D02*
X84560000Y-83290000D01*
X125510000Y-80330000D02*
X123410000Y-80330000D01*
X123410000Y-80330000D02*
X123410000Y-89850000D01*
X123410000Y-89850000D02*
X125510000Y-89850000D01*
X125510000Y-89850000D02*
X125510000Y-80330000D01*
X123886000Y-110710000D02*
X114366000Y-110710000D01*
X123886000Y-112810000D02*
X123886000Y-110710000D01*
X114366000Y-112810000D02*
X123886000Y-112810000D01*
X114366000Y-110710000D02*
X114366000Y-112810000D01*
X123886000Y-107730000D02*
X123886000Y-105630000D01*
X123886000Y-105630000D02*
X114366000Y-105630000D01*
X114366000Y-105630000D02*
X114366000Y-107730000D01*
X114366000Y-107730000D02*
X123886000Y-107730000D01*
X116310000Y-121688000D02*
X127510000Y-121688000D01*
X127510000Y-121688000D02*
X127510000Y-118088000D01*
X127510000Y-118088000D02*
X116310000Y-118088000D01*
X116310000Y-118088000D02*
X116310000Y-121688000D01*
M02*
