M48
; DRILL file {KiCad 5.1.8-db9833491~88~ubuntu18.04.1} date Sun Dec 13 17:35:48 2020
; FORMAT={-:-/ absolute / inch / decimal}
; #@! TF.CreationDate,2020-12-13T17:35:48+01:00
; #@! TF.GenerationSoftware,Kicad,Pcbnew,5.1.8-db9833491~88~ubuntu18.04.1
; #@! TF.FileFunction,Plated,1,2,PTH
FMAT,2
INCH
T1C0.0276
T2C0.0315
T3C0.0394
%
G90
G05
T1
X5.08Y-4.1396
X4.54Y-4.2
X4.66Y-3.8
X4.66Y-3.9
X4.71Y-3.85
X4.54Y-4.4
X4.84Y-4.4
X4.9Y-3.2
X4.9Y-3.5
X5.08Y-3.64
X5.08Y-3.94
X5.08Y-4.34
X5.38Y-3.64
X5.38Y-3.94
X5.3804Y-4.1404
X5.3804Y-4.3404
X4.84Y-4.2
T2
X4.65Y-3.4016
X4.65Y-3.5
X5.1Y-3.4
X5.4Y-3.4
X3.75Y-3.2
X3.75Y-3.3
X3.75Y-3.4
X3.75Y-3.5
X3.75Y-3.6
X3.75Y-3.7
X3.75Y-3.8
X3.75Y-3.9
X3.75Y-4.0
X3.75Y-4.1
X3.75Y-4.2
X3.75Y-4.3
X3.75Y-4.4
X3.75Y-4.5
X3.75Y-4.6
X4.35Y-3.2
X4.35Y-3.3
X4.35Y-3.4
X4.35Y-3.5
X4.35Y-3.6
X4.35Y-3.7
X4.35Y-3.8
X4.35Y-3.9
X4.35Y-4.0
X4.35Y-4.1
X4.35Y-4.2
X4.35Y-4.3
X4.35Y-4.4
X4.35Y-4.5
X4.35Y-4.6
T3
X3.4Y-4.55
X3.4Y-4.65
X3.4Y-4.75
X3.4Y-3.35
X3.4Y-3.45
X3.4Y-3.55
X3.4Y-3.65
X3.4Y-3.75
X4.65Y-4.72
X4.75Y-4.72
X4.85Y-4.72
X4.95Y-4.72
X5.22Y-4.6
X5.32Y-4.6
X3.4Y-4.05
X3.4Y-4.15
X3.4Y-4.25
T0
M30
