G04 #@! TF.GenerationSoftware,KiCad,Pcbnew,5.1.8-db9833491~88~ubuntu18.04.1*
G04 #@! TF.CreationDate,2020-12-13T17:35:25+01:00*
G04 #@! TF.ProjectId,UselessBox,5573656c-6573-4734-926f-782e6b696361,rev?*
G04 #@! TF.SameCoordinates,Original*
G04 #@! TF.FileFunction,Copper,L2,Bot*
G04 #@! TF.FilePolarity,Positive*
%FSLAX46Y46*%
G04 Gerber Fmt 4.6, Leading zero omitted, Abs format (unit mm)*
G04 Created by KiCad (PCBNEW 5.1.8-db9833491~88~ubuntu18.04.1) date 2020-12-13 17:35:25*
%MOMM*%
%LPD*%
G01*
G04 APERTURE LIST*
G04 #@! TA.AperFunction,ComponentPad*
%ADD10C,1.600000*%
G04 #@! TD*
G04 #@! TA.AperFunction,ComponentPad*
%ADD11R,1.600000X1.600000*%
G04 #@! TD*
G04 #@! TA.AperFunction,ComponentPad*
%ADD12O,1.200000X1.600000*%
G04 #@! TD*
G04 #@! TA.AperFunction,ComponentPad*
%ADD13O,1.200000X1.200000*%
G04 #@! TD*
G04 #@! TA.AperFunction,ComponentPad*
%ADD14R,1.400000X1.400000*%
G04 #@! TD*
G04 #@! TA.AperFunction,ComponentPad*
%ADD15C,1.400000*%
G04 #@! TD*
G04 #@! TA.AperFunction,ComponentPad*
%ADD16O,1.600000X1.600000*%
G04 #@! TD*
G04 #@! TA.AperFunction,ComponentPad*
%ADD17R,1.700000X1.700000*%
G04 #@! TD*
G04 #@! TA.AperFunction,ComponentPad*
%ADD18O,1.700000X1.700000*%
G04 #@! TD*
G04 #@! TA.AperFunction,ComponentPad*
%ADD19O,1.400000X1.400000*%
G04 #@! TD*
G04 #@! TA.AperFunction,Conductor*
%ADD20C,0.250000*%
G04 #@! TD*
G04 #@! TA.AperFunction,Conductor*
%ADD21C,0.254000*%
G04 #@! TD*
G04 #@! TA.AperFunction,Conductor*
%ADD22C,0.100000*%
G04 #@! TD*
G04 APERTURE END LIST*
D10*
X118110000Y-86400000D03*
D11*
X118110000Y-88900000D03*
D12*
X118364000Y-99060000D03*
D13*
X119634000Y-97790000D03*
X118364000Y-96520000D03*
D14*
X129032000Y-92456000D03*
D15*
X136652000Y-92456000D03*
X129032000Y-105146000D03*
X129032000Y-110236000D03*
X129032000Y-100076000D03*
X136662000Y-105166000D03*
X136662000Y-110246000D03*
X136652000Y-100076000D03*
D11*
X95250000Y-81280000D03*
D16*
X110490000Y-114300000D03*
X95250000Y-83820000D03*
X110490000Y-111760000D03*
X95250000Y-86360000D03*
X110490000Y-109220000D03*
X95250000Y-88900000D03*
X110490000Y-106680000D03*
X95250000Y-91440000D03*
X110490000Y-104140000D03*
X95250000Y-93980000D03*
X110490000Y-101600000D03*
X95250000Y-96520000D03*
X110490000Y-99060000D03*
X95250000Y-99060000D03*
X110490000Y-96520000D03*
X95250000Y-101600000D03*
X110490000Y-93980000D03*
X95250000Y-104140000D03*
X110490000Y-91440000D03*
X95250000Y-106680000D03*
X110490000Y-88900000D03*
X95250000Y-109220000D03*
X110490000Y-86360000D03*
X95250000Y-111760000D03*
X110490000Y-83820000D03*
X95250000Y-114300000D03*
X110490000Y-81280000D03*
X95250000Y-116840000D03*
X110490000Y-116840000D03*
D11*
X129540000Y-86360000D03*
D16*
X137160000Y-86360000D03*
D17*
X132588000Y-116840000D03*
D18*
X135128000Y-116840000D03*
D17*
X86360000Y-102870000D03*
D18*
X86360000Y-105410000D03*
X86360000Y-107950000D03*
X86360000Y-120650000D03*
X86360000Y-118110000D03*
D17*
X86360000Y-115570000D03*
X86360000Y-85090000D03*
D18*
X86360000Y-87630000D03*
X86360000Y-90170000D03*
X86360000Y-92710000D03*
X86360000Y-95250000D03*
D15*
X124460000Y-81280000D03*
D19*
X124460000Y-88900000D03*
X122936000Y-111760000D03*
D15*
X115316000Y-111760000D03*
X122936000Y-106680000D03*
D19*
X115316000Y-106680000D03*
D17*
X118110000Y-119888000D03*
D18*
X120650000Y-119888000D03*
X123190000Y-119888000D03*
X125730000Y-119888000D03*
D20*
X110490000Y-109220000D02*
X113030000Y-109220000D01*
X115316000Y-111760000D02*
X115316000Y-110236000D01*
X114300000Y-109220000D02*
X113030000Y-109220000D01*
X115316000Y-110236000D02*
X114300000Y-109220000D01*
X113030000Y-106680000D02*
X110490000Y-109220000D01*
X113030000Y-92710000D02*
X113030000Y-106680000D01*
X114300000Y-91440000D02*
X113030000Y-92710000D01*
X120650000Y-91440000D02*
X114300000Y-91440000D01*
X124460000Y-88900000D02*
X123190000Y-88900000D01*
X123190000Y-88900000D02*
X120650000Y-91440000D01*
X105410000Y-96520000D02*
X95250000Y-96520000D01*
X113030000Y-119380000D02*
X111760000Y-120650000D01*
X111760000Y-120650000D02*
X107950000Y-120650000D01*
X113030000Y-115570000D02*
X113030000Y-119380000D01*
X106680000Y-97790000D02*
X105410000Y-96520000D01*
X116840000Y-106680000D02*
X118110000Y-107950000D01*
X114300000Y-114300000D02*
X113030000Y-115570000D01*
X115316000Y-106680000D02*
X116840000Y-106680000D01*
X118110000Y-107950000D02*
X118110000Y-113030000D01*
X118110000Y-113030000D02*
X116840000Y-114300000D01*
X106680000Y-119380000D02*
X106680000Y-97790000D01*
X107950000Y-120650000D02*
X106680000Y-119380000D01*
X116840000Y-114300000D02*
X114300000Y-114300000D01*
X91440000Y-85090000D02*
X86360000Y-85090000D01*
X92710000Y-97790000D02*
X92710000Y-86360000D01*
X92710000Y-86360000D02*
X91440000Y-85090000D01*
X95250000Y-99060000D02*
X93980000Y-99060000D01*
X93980000Y-99060000D02*
X92710000Y-97790000D01*
X95250000Y-101600000D02*
X93980000Y-101600000D01*
X93980000Y-101600000D02*
X91440000Y-99060000D01*
X91440000Y-99060000D02*
X91440000Y-88900000D01*
X91440000Y-88900000D02*
X90170000Y-87630000D01*
X90170000Y-87630000D02*
X86360000Y-87630000D01*
X95250000Y-104140000D02*
X93980000Y-104140000D01*
X93980000Y-104140000D02*
X90170000Y-100330000D01*
X90170000Y-100330000D02*
X90170000Y-91440000D01*
X90170000Y-91440000D02*
X88900000Y-90170000D01*
X88900000Y-90170000D02*
X86360000Y-90170000D01*
X120650000Y-119888000D02*
X120650000Y-118110000D01*
X120650000Y-118110000D02*
X119380000Y-116840000D01*
X119380000Y-116840000D02*
X115570000Y-116840000D01*
X115570000Y-116840000D02*
X114300000Y-118110000D01*
X114300000Y-118110000D02*
X114300000Y-120650000D01*
X114300000Y-120650000D02*
X113030000Y-121920000D01*
X113030000Y-121920000D02*
X106680000Y-121920000D01*
X106680000Y-121920000D02*
X105410000Y-120650000D01*
X105410000Y-120650000D02*
X105410000Y-107950000D01*
X105410000Y-107950000D02*
X104140000Y-106680000D01*
X104140000Y-106680000D02*
X95250000Y-106680000D01*
X86360000Y-105410000D02*
X88900000Y-105410000D01*
X88900000Y-105410000D02*
X90170000Y-106680000D01*
X90170000Y-106680000D02*
X90170000Y-116840000D01*
X90170000Y-116840000D02*
X88900000Y-118110000D01*
X88900000Y-118110000D02*
X86360000Y-118110000D01*
X129540000Y-91948000D02*
X129032000Y-92456000D01*
X129540000Y-86360000D02*
X129540000Y-91948000D01*
X110490000Y-88900000D02*
X118110000Y-88900000D01*
X120650000Y-88900000D02*
X118110000Y-88900000D01*
X129540000Y-86360000D02*
X123190000Y-86360000D01*
X123190000Y-86360000D02*
X120650000Y-88900000D01*
X88900000Y-105410000D02*
X90170000Y-104140000D01*
X90170000Y-104140000D02*
X90170000Y-102870000D01*
X90170000Y-102870000D02*
X88900000Y-101600000D01*
X88900000Y-101600000D02*
X88900000Y-91440000D01*
X88900000Y-91440000D02*
X83820000Y-91440000D01*
X83820000Y-91440000D02*
X83820000Y-80010000D01*
X83820000Y-80010000D02*
X85090000Y-78740000D01*
X85090000Y-78740000D02*
X99060000Y-78740000D01*
X99060000Y-78740000D02*
X105410000Y-85090000D01*
X105410000Y-85090000D02*
X105410000Y-87630000D01*
X105410000Y-87630000D02*
X106680000Y-88900000D01*
X106680000Y-88900000D02*
X110490000Y-88900000D01*
X90170000Y-119380000D02*
X91440000Y-118110000D01*
X87630000Y-107950000D02*
X88900000Y-109220000D01*
X92710000Y-109220000D02*
X95250000Y-109220000D01*
X88900000Y-109220000D02*
X88900000Y-116840000D01*
X83820000Y-119380000D02*
X90170000Y-119380000D01*
X91440000Y-110490000D02*
X92710000Y-109220000D01*
X91440000Y-118110000D02*
X91440000Y-110490000D01*
X86360000Y-107950000D02*
X87630000Y-107950000D01*
X88900000Y-116840000D02*
X83820000Y-116840000D01*
X83820000Y-116840000D02*
X83820000Y-119380000D01*
X95250000Y-111760000D02*
X93980000Y-111760000D01*
X93980000Y-111760000D02*
X92710000Y-113030000D01*
X92710000Y-113030000D02*
X92710000Y-119380000D01*
X92710000Y-119380000D02*
X91440000Y-120650000D01*
X91440000Y-120650000D02*
X86360000Y-120650000D01*
X82550000Y-78740000D02*
X82550000Y-93980000D01*
X82550000Y-93980000D02*
X83820000Y-95250000D01*
X83820000Y-95250000D02*
X86360000Y-95250000D01*
X83820000Y-95250000D02*
X82550000Y-96520000D01*
X82550000Y-96520000D02*
X82550000Y-101600000D01*
X82550000Y-101600000D02*
X83820000Y-102870000D01*
X86360000Y-102870000D02*
X83820000Y-102870000D01*
X83820000Y-102870000D02*
X82550000Y-104140000D01*
X82550000Y-104140000D02*
X82550000Y-114300000D01*
X83820000Y-115570000D02*
X86360000Y-115570000D01*
X82550000Y-114300000D02*
X83820000Y-115570000D01*
X122936000Y-111760000D02*
X120650000Y-109474000D01*
X83820000Y-115570000D02*
X82550000Y-116840000D01*
X82550000Y-116840000D02*
X82550000Y-121920000D01*
X82550000Y-121920000D02*
X83820000Y-123190000D01*
X83820000Y-123190000D02*
X116840000Y-123190000D01*
X116840000Y-123190000D02*
X118110000Y-121920000D01*
X118110000Y-121920000D02*
X118110000Y-119888000D01*
X135128000Y-116840000D02*
X135128000Y-122682000D01*
X135128000Y-122682000D02*
X134620000Y-123190000D01*
X119380000Y-123190000D02*
X118110000Y-121920000D01*
X134620000Y-123190000D02*
X119380000Y-123190000D01*
X105410000Y-83820000D02*
X110490000Y-83820000D01*
X99060000Y-77470000D02*
X105410000Y-83820000D01*
X82550000Y-78740000D02*
X83820000Y-77470000D01*
X83820000Y-77470000D02*
X99060000Y-77470000D01*
X110490000Y-83820000D02*
X117602000Y-83820000D01*
X117602000Y-83820000D02*
X118110000Y-84328000D01*
X118110000Y-84328000D02*
X118110000Y-84582000D01*
X118110000Y-84582000D02*
X118110000Y-86400000D01*
X127000000Y-83820000D02*
X118618000Y-83820000D01*
X124460000Y-111760000D02*
X125730000Y-110490000D01*
X138430000Y-82550000D02*
X128270000Y-82550000D01*
X139700000Y-83820000D02*
X138430000Y-82550000D01*
X125730000Y-97790000D02*
X127000000Y-96520000D01*
X128270000Y-82550000D02*
X127000000Y-83820000D01*
X138430000Y-96520000D02*
X139700000Y-95250000D01*
X118618000Y-83820000D02*
X118110000Y-84328000D01*
X122936000Y-111760000D02*
X124460000Y-111760000D01*
X125730000Y-110490000D02*
X125730000Y-97790000D01*
X139700000Y-95250000D02*
X139700000Y-83820000D01*
X127000000Y-96520000D02*
X138430000Y-96520000D01*
X118364000Y-99060000D02*
X118364000Y-100076000D01*
X118364000Y-100076000D02*
X120142000Y-101854000D01*
X120142000Y-101854000D02*
X120650000Y-102362000D01*
X120650000Y-109474000D02*
X120650000Y-102362000D01*
X129032000Y-114808000D02*
X129032000Y-110236000D01*
X127508000Y-116332000D02*
X129032000Y-114808000D01*
X125476000Y-81280000D02*
X110490000Y-81280000D01*
X125476000Y-81280000D02*
X127000000Y-81280000D01*
X127000000Y-81280000D02*
X126746000Y-81280000D01*
X139700000Y-81280000D02*
X127000000Y-81280000D01*
X140970000Y-82550000D02*
X139700000Y-81280000D01*
X140970000Y-96520000D02*
X140970000Y-82550000D01*
X129032000Y-110236000D02*
X128016000Y-110236000D01*
X127000000Y-109220000D02*
X127000000Y-99060000D01*
X128016000Y-110236000D02*
X127000000Y-109220000D01*
X127000000Y-99060000D02*
X128270000Y-97790000D01*
X128270000Y-97790000D02*
X139700000Y-97790000D01*
X139700000Y-97790000D02*
X140970000Y-96520000D01*
X127508000Y-116332000D02*
X123698000Y-116332000D01*
X123190000Y-116840000D02*
X123190000Y-119888000D01*
X123698000Y-116332000D02*
X123190000Y-116840000D01*
X137160000Y-91948000D02*
X136652000Y-92456000D01*
X137160000Y-86360000D02*
X137160000Y-91948000D01*
X136652000Y-94488000D02*
X136652000Y-92456000D01*
X135890000Y-95250000D02*
X136652000Y-94488000D01*
X118364000Y-96520000D02*
X119634000Y-95250000D01*
X119634000Y-95250000D02*
X135890000Y-95250000D01*
X130048000Y-116840000D02*
X132588000Y-116840000D01*
X127000000Y-119888000D02*
X130048000Y-116840000D01*
X132588000Y-116840000D02*
X132588000Y-101600000D01*
X131064000Y-100076000D02*
X129032000Y-100076000D01*
X132588000Y-101600000D02*
X131064000Y-100076000D01*
X125730000Y-119888000D02*
X127000000Y-119888000D01*
X122936000Y-98552000D02*
X122936000Y-99314000D01*
X122936000Y-99314000D02*
X122936000Y-106680000D01*
X119634000Y-97790000D02*
X122174000Y-97790000D01*
X122174000Y-97790000D02*
X122936000Y-98552000D01*
D21*
X142113000Y-124333000D02*
X81407000Y-124333000D01*
X81407000Y-114720000D01*
X84871928Y-114720000D01*
X84875000Y-115284250D01*
X85033750Y-115443000D01*
X86233000Y-115443000D01*
X86233000Y-114243750D01*
X86487000Y-114243750D01*
X86487000Y-115443000D01*
X87686250Y-115443000D01*
X87845000Y-115284250D01*
X87848072Y-114720000D01*
X87835812Y-114595518D01*
X87799502Y-114475820D01*
X87740537Y-114365506D01*
X87661185Y-114268815D01*
X87564494Y-114189463D01*
X87454180Y-114130498D01*
X87334482Y-114094188D01*
X87210000Y-114081928D01*
X86645750Y-114085000D01*
X86487000Y-114243750D01*
X86233000Y-114243750D01*
X86074250Y-114085000D01*
X85510000Y-114081928D01*
X85385518Y-114094188D01*
X85265820Y-114130498D01*
X85155506Y-114189463D01*
X85058815Y-114268815D01*
X84979463Y-114365506D01*
X84920498Y-114475820D01*
X84884188Y-114595518D01*
X84871928Y-114720000D01*
X81407000Y-114720000D01*
X81407000Y-102020000D01*
X84871928Y-102020000D01*
X84875000Y-102584250D01*
X85033750Y-102743000D01*
X86233000Y-102743000D01*
X86233000Y-101543750D01*
X86487000Y-101543750D01*
X86487000Y-102743000D01*
X87686250Y-102743000D01*
X87845000Y-102584250D01*
X87848072Y-102020000D01*
X87835812Y-101895518D01*
X87799502Y-101775820D01*
X87740537Y-101665506D01*
X87661185Y-101568815D01*
X87564494Y-101489463D01*
X87454180Y-101430498D01*
X87334482Y-101394188D01*
X87210000Y-101381928D01*
X86645750Y-101385000D01*
X86487000Y-101543750D01*
X86233000Y-101543750D01*
X86074250Y-101385000D01*
X85510000Y-101381928D01*
X85385518Y-101394188D01*
X85265820Y-101430498D01*
X85155506Y-101489463D01*
X85058815Y-101568815D01*
X84979463Y-101665506D01*
X84920498Y-101775820D01*
X84884188Y-101895518D01*
X84871928Y-102020000D01*
X81407000Y-102020000D01*
X81407000Y-95606890D01*
X84918524Y-95606890D01*
X84963175Y-95754099D01*
X85088359Y-96016920D01*
X85262412Y-96250269D01*
X85478645Y-96445178D01*
X85728748Y-96594157D01*
X86003109Y-96691481D01*
X86233000Y-96570814D01*
X86233000Y-95377000D01*
X86487000Y-95377000D01*
X86487000Y-96570814D01*
X86716891Y-96691481D01*
X86991252Y-96594157D01*
X87241355Y-96445178D01*
X87457588Y-96250269D01*
X87631641Y-96016920D01*
X87756825Y-95754099D01*
X87801476Y-95606890D01*
X87680155Y-95377000D01*
X86487000Y-95377000D01*
X86233000Y-95377000D01*
X85039845Y-95377000D01*
X84918524Y-95606890D01*
X81407000Y-95606890D01*
X81407000Y-91440000D01*
X83056323Y-91440000D01*
X83070997Y-91588986D01*
X83114454Y-91732247D01*
X83185026Y-91864276D01*
X83256201Y-91951003D01*
X83279999Y-91980001D01*
X83395724Y-92074974D01*
X83527753Y-92145546D01*
X83671014Y-92189003D01*
X83820000Y-92203677D01*
X83857333Y-92200000D01*
X84963897Y-92200000D01*
X84932068Y-92276842D01*
X84875000Y-92563740D01*
X84875000Y-92856260D01*
X84932068Y-93143158D01*
X85044010Y-93413411D01*
X85206525Y-93656632D01*
X85413368Y-93863475D01*
X85595534Y-93985195D01*
X85478645Y-94054822D01*
X85262412Y-94249731D01*
X85088359Y-94483080D01*
X84963175Y-94745901D01*
X84918524Y-94893110D01*
X85039845Y-95123000D01*
X86233000Y-95123000D01*
X86233000Y-95103000D01*
X86487000Y-95103000D01*
X86487000Y-95123000D01*
X87680155Y-95123000D01*
X87801476Y-94893110D01*
X87756825Y-94745901D01*
X87631641Y-94483080D01*
X87457588Y-94249731D01*
X87241355Y-94054822D01*
X87124466Y-93985195D01*
X87306632Y-93863475D01*
X87513475Y-93656632D01*
X87675990Y-93413411D01*
X87787932Y-93143158D01*
X87845000Y-92856260D01*
X87845000Y-92563740D01*
X87787932Y-92276842D01*
X87756103Y-92200000D01*
X88140001Y-92200000D01*
X88140000Y-101562678D01*
X88136324Y-101600000D01*
X88140000Y-101637322D01*
X88140000Y-101637332D01*
X88150997Y-101748985D01*
X88194454Y-101892246D01*
X88265026Y-102024276D01*
X88304871Y-102072826D01*
X88359999Y-102140001D01*
X88389003Y-102163804D01*
X89410001Y-103184803D01*
X89410000Y-103825198D01*
X88585199Y-104650000D01*
X87638178Y-104650000D01*
X87513475Y-104463368D01*
X87381620Y-104331513D01*
X87454180Y-104309502D01*
X87564494Y-104250537D01*
X87661185Y-104171185D01*
X87740537Y-104074494D01*
X87799502Y-103964180D01*
X87835812Y-103844482D01*
X87848072Y-103720000D01*
X87845000Y-103155750D01*
X87686250Y-102997000D01*
X86487000Y-102997000D01*
X86487000Y-103017000D01*
X86233000Y-103017000D01*
X86233000Y-102997000D01*
X85033750Y-102997000D01*
X84875000Y-103155750D01*
X84871928Y-103720000D01*
X84884188Y-103844482D01*
X84920498Y-103964180D01*
X84979463Y-104074494D01*
X85058815Y-104171185D01*
X85155506Y-104250537D01*
X85265820Y-104309502D01*
X85338380Y-104331513D01*
X85206525Y-104463368D01*
X85044010Y-104706589D01*
X84932068Y-104976842D01*
X84875000Y-105263740D01*
X84875000Y-105556260D01*
X84932068Y-105843158D01*
X85044010Y-106113411D01*
X85206525Y-106356632D01*
X85413368Y-106563475D01*
X85587760Y-106680000D01*
X85413368Y-106796525D01*
X85206525Y-107003368D01*
X85044010Y-107246589D01*
X84932068Y-107516842D01*
X84875000Y-107803740D01*
X84875000Y-108096260D01*
X84932068Y-108383158D01*
X85044010Y-108653411D01*
X85206525Y-108896632D01*
X85413368Y-109103475D01*
X85656589Y-109265990D01*
X85926842Y-109377932D01*
X86213740Y-109435000D01*
X86506260Y-109435000D01*
X86793158Y-109377932D01*
X87063411Y-109265990D01*
X87306632Y-109103475D01*
X87507653Y-108902454D01*
X88140000Y-109534802D01*
X88140001Y-116080000D01*
X87846221Y-116080000D01*
X87845000Y-115855750D01*
X87686250Y-115697000D01*
X86487000Y-115697000D01*
X86487000Y-115717000D01*
X86233000Y-115717000D01*
X86233000Y-115697000D01*
X85033750Y-115697000D01*
X84875000Y-115855750D01*
X84873779Y-116080000D01*
X83857333Y-116080000D01*
X83820000Y-116076323D01*
X83782667Y-116080000D01*
X83671014Y-116090997D01*
X83527753Y-116134454D01*
X83395724Y-116205026D01*
X83279999Y-116299999D01*
X83185026Y-116415724D01*
X83114454Y-116547753D01*
X83070997Y-116691014D01*
X83056323Y-116840000D01*
X83060000Y-116877332D01*
X83060001Y-119342657D01*
X83056323Y-119380000D01*
X83070997Y-119528986D01*
X83114454Y-119672247D01*
X83185026Y-119804276D01*
X83279999Y-119920001D01*
X83395724Y-120014974D01*
X83527753Y-120085546D01*
X83671014Y-120129003D01*
X83782667Y-120140000D01*
X83820000Y-120143677D01*
X83857333Y-120140000D01*
X84963897Y-120140000D01*
X84932068Y-120216842D01*
X84875000Y-120503740D01*
X84875000Y-120796260D01*
X84932068Y-121083158D01*
X85044010Y-121353411D01*
X85206525Y-121596632D01*
X85413368Y-121803475D01*
X85656589Y-121965990D01*
X85926842Y-122077932D01*
X86213740Y-122135000D01*
X86506260Y-122135000D01*
X86793158Y-122077932D01*
X87063411Y-121965990D01*
X87306632Y-121803475D01*
X87513475Y-121596632D01*
X87638178Y-121410000D01*
X91402678Y-121410000D01*
X91440000Y-121413676D01*
X91477322Y-121410000D01*
X91477333Y-121410000D01*
X91588986Y-121399003D01*
X91732247Y-121355546D01*
X91864276Y-121284974D01*
X91980001Y-121190001D01*
X92003804Y-121160997D01*
X93221003Y-119943799D01*
X93250001Y-119920001D01*
X93344974Y-119804276D01*
X93415546Y-119672247D01*
X93459003Y-119528986D01*
X93470000Y-119417333D01*
X93470000Y-119417324D01*
X93473676Y-119380001D01*
X93470000Y-119342678D01*
X93470000Y-113344801D01*
X94137703Y-112677099D01*
X94335241Y-112874637D01*
X94567759Y-113030000D01*
X94335241Y-113185363D01*
X94135363Y-113385241D01*
X93978320Y-113620273D01*
X93870147Y-113881426D01*
X93815000Y-114158665D01*
X93815000Y-114441335D01*
X93870147Y-114718574D01*
X93978320Y-114979727D01*
X94135363Y-115214759D01*
X94335241Y-115414637D01*
X94567759Y-115570000D01*
X94335241Y-115725363D01*
X94135363Y-115925241D01*
X93978320Y-116160273D01*
X93870147Y-116421426D01*
X93815000Y-116698665D01*
X93815000Y-116981335D01*
X93870147Y-117258574D01*
X93978320Y-117519727D01*
X94135363Y-117754759D01*
X94335241Y-117954637D01*
X94570273Y-118111680D01*
X94831426Y-118219853D01*
X95108665Y-118275000D01*
X95391335Y-118275000D01*
X95668574Y-118219853D01*
X95929727Y-118111680D01*
X96164759Y-117954637D01*
X96364637Y-117754759D01*
X96521680Y-117519727D01*
X96629853Y-117258574D01*
X96685000Y-116981335D01*
X96685000Y-116698665D01*
X96629853Y-116421426D01*
X96521680Y-116160273D01*
X96364637Y-115925241D01*
X96164759Y-115725363D01*
X95932241Y-115570000D01*
X96164759Y-115414637D01*
X96364637Y-115214759D01*
X96521680Y-114979727D01*
X96629853Y-114718574D01*
X96685000Y-114441335D01*
X96685000Y-114158665D01*
X96629853Y-113881426D01*
X96521680Y-113620273D01*
X96364637Y-113385241D01*
X96164759Y-113185363D01*
X95932241Y-113030000D01*
X96164759Y-112874637D01*
X96364637Y-112674759D01*
X96521680Y-112439727D01*
X96629853Y-112178574D01*
X96685000Y-111901335D01*
X96685000Y-111618665D01*
X96629853Y-111341426D01*
X96521680Y-111080273D01*
X96364637Y-110845241D01*
X96164759Y-110645363D01*
X95932241Y-110490000D01*
X96164759Y-110334637D01*
X96364637Y-110134759D01*
X96521680Y-109899727D01*
X96629853Y-109638574D01*
X96685000Y-109361335D01*
X96685000Y-109078665D01*
X96629853Y-108801426D01*
X96521680Y-108540273D01*
X96364637Y-108305241D01*
X96164759Y-108105363D01*
X95932241Y-107950000D01*
X96164759Y-107794637D01*
X96364637Y-107594759D01*
X96468043Y-107440000D01*
X103825199Y-107440000D01*
X104650001Y-108264803D01*
X104650000Y-120612678D01*
X104646324Y-120650000D01*
X104650000Y-120687322D01*
X104650000Y-120687332D01*
X104660997Y-120798985D01*
X104704454Y-120942246D01*
X104775026Y-121074276D01*
X104814871Y-121122826D01*
X104869999Y-121190001D01*
X104899003Y-121213804D01*
X106116201Y-122431003D01*
X106139999Y-122460001D01*
X106255724Y-122554974D01*
X106387753Y-122625546D01*
X106531014Y-122669003D01*
X106642667Y-122680000D01*
X106642676Y-122680000D01*
X106679999Y-122683676D01*
X106717322Y-122680000D01*
X112992678Y-122680000D01*
X113030000Y-122683676D01*
X113067322Y-122680000D01*
X113067333Y-122680000D01*
X113178986Y-122669003D01*
X113322247Y-122625546D01*
X113454276Y-122554974D01*
X113570001Y-122460001D01*
X113593804Y-122430997D01*
X114811003Y-121213799D01*
X114840001Y-121190001D01*
X114934974Y-121074276D01*
X115005546Y-120942247D01*
X115049003Y-120798986D01*
X115055009Y-120738000D01*
X116621928Y-120738000D01*
X116634188Y-120862482D01*
X116670498Y-120982180D01*
X116729463Y-121092494D01*
X116808815Y-121189185D01*
X116905506Y-121268537D01*
X117015820Y-121327502D01*
X117135518Y-121363812D01*
X117260000Y-121376072D01*
X117824250Y-121373000D01*
X117983000Y-121214250D01*
X117983000Y-120015000D01*
X116783750Y-120015000D01*
X116625000Y-120173750D01*
X116621928Y-120738000D01*
X115055009Y-120738000D01*
X115060000Y-120687333D01*
X115060000Y-120687324D01*
X115063676Y-120650001D01*
X115060000Y-120612678D01*
X115060000Y-119038000D01*
X116621928Y-119038000D01*
X116625000Y-119602250D01*
X116783750Y-119761000D01*
X117983000Y-119761000D01*
X117983000Y-118561750D01*
X117824250Y-118403000D01*
X117260000Y-118399928D01*
X117135518Y-118412188D01*
X117015820Y-118448498D01*
X116905506Y-118507463D01*
X116808815Y-118586815D01*
X116729463Y-118683506D01*
X116670498Y-118793820D01*
X116634188Y-118913518D01*
X116621928Y-119038000D01*
X115060000Y-119038000D01*
X115060000Y-118424801D01*
X115884802Y-117600000D01*
X119065199Y-117600000D01*
X119890001Y-118424803D01*
X119890001Y-118609821D01*
X119703368Y-118734525D01*
X119571513Y-118866380D01*
X119549502Y-118793820D01*
X119490537Y-118683506D01*
X119411185Y-118586815D01*
X119314494Y-118507463D01*
X119204180Y-118448498D01*
X119084482Y-118412188D01*
X118960000Y-118399928D01*
X118395750Y-118403000D01*
X118237000Y-118561750D01*
X118237000Y-119761000D01*
X118257000Y-119761000D01*
X118257000Y-120015000D01*
X118237000Y-120015000D01*
X118237000Y-121214250D01*
X118395750Y-121373000D01*
X118960000Y-121376072D01*
X119084482Y-121363812D01*
X119204180Y-121327502D01*
X119314494Y-121268537D01*
X119411185Y-121189185D01*
X119490537Y-121092494D01*
X119549502Y-120982180D01*
X119571513Y-120909620D01*
X119703368Y-121041475D01*
X119946589Y-121203990D01*
X120216842Y-121315932D01*
X120503740Y-121373000D01*
X120796260Y-121373000D01*
X121083158Y-121315932D01*
X121353411Y-121203990D01*
X121596632Y-121041475D01*
X121803475Y-120834632D01*
X121920000Y-120660240D01*
X122036525Y-120834632D01*
X122243368Y-121041475D01*
X122486589Y-121203990D01*
X122756842Y-121315932D01*
X123043740Y-121373000D01*
X123336260Y-121373000D01*
X123623158Y-121315932D01*
X123893411Y-121203990D01*
X124136632Y-121041475D01*
X124343475Y-120834632D01*
X124460000Y-120660240D01*
X124576525Y-120834632D01*
X124783368Y-121041475D01*
X125026589Y-121203990D01*
X125296842Y-121315932D01*
X125583740Y-121373000D01*
X125876260Y-121373000D01*
X126163158Y-121315932D01*
X126433411Y-121203990D01*
X126676632Y-121041475D01*
X126883475Y-120834632D01*
X127006125Y-120651073D01*
X127037322Y-120648000D01*
X127037333Y-120648000D01*
X127148986Y-120637003D01*
X127292247Y-120593546D01*
X127424276Y-120522974D01*
X127540001Y-120428001D01*
X127563804Y-120398997D01*
X130362802Y-117600000D01*
X131099928Y-117600000D01*
X131099928Y-117690000D01*
X131112188Y-117814482D01*
X131148498Y-117934180D01*
X131207463Y-118044494D01*
X131286815Y-118141185D01*
X131383506Y-118220537D01*
X131493820Y-118279502D01*
X131613518Y-118315812D01*
X131738000Y-118328072D01*
X133438000Y-118328072D01*
X133562482Y-118315812D01*
X133682180Y-118279502D01*
X133792494Y-118220537D01*
X133889185Y-118141185D01*
X133968537Y-118044494D01*
X134027502Y-117934180D01*
X134051966Y-117853534D01*
X134127731Y-117937588D01*
X134361080Y-118111641D01*
X134623901Y-118236825D01*
X134771110Y-118281476D01*
X135001000Y-118160155D01*
X135001000Y-116967000D01*
X135255000Y-116967000D01*
X135255000Y-118160155D01*
X135484890Y-118281476D01*
X135632099Y-118236825D01*
X135894920Y-118111641D01*
X136128269Y-117937588D01*
X136323178Y-117721355D01*
X136472157Y-117471252D01*
X136569481Y-117196891D01*
X136448814Y-116967000D01*
X135255000Y-116967000D01*
X135001000Y-116967000D01*
X134981000Y-116967000D01*
X134981000Y-116713000D01*
X135001000Y-116713000D01*
X135001000Y-115519845D01*
X135255000Y-115519845D01*
X135255000Y-116713000D01*
X136448814Y-116713000D01*
X136569481Y-116483109D01*
X136472157Y-116208748D01*
X136323178Y-115958645D01*
X136128269Y-115742412D01*
X135894920Y-115568359D01*
X135632099Y-115443175D01*
X135484890Y-115398524D01*
X135255000Y-115519845D01*
X135001000Y-115519845D01*
X134771110Y-115398524D01*
X134623901Y-115443175D01*
X134361080Y-115568359D01*
X134127731Y-115742412D01*
X134051966Y-115826466D01*
X134027502Y-115745820D01*
X133968537Y-115635506D01*
X133889185Y-115538815D01*
X133792494Y-115459463D01*
X133682180Y-115400498D01*
X133562482Y-115364188D01*
X133438000Y-115351928D01*
X133348000Y-115351928D01*
X133348000Y-110114514D01*
X135327000Y-110114514D01*
X135327000Y-110377486D01*
X135378304Y-110635405D01*
X135478939Y-110878359D01*
X135625038Y-111097013D01*
X135810987Y-111282962D01*
X136029641Y-111429061D01*
X136272595Y-111529696D01*
X136530514Y-111581000D01*
X136793486Y-111581000D01*
X137051405Y-111529696D01*
X137294359Y-111429061D01*
X137513013Y-111282962D01*
X137698962Y-111097013D01*
X137845061Y-110878359D01*
X137945696Y-110635405D01*
X137997000Y-110377486D01*
X137997000Y-110114514D01*
X137945696Y-109856595D01*
X137845061Y-109613641D01*
X137698962Y-109394987D01*
X137513013Y-109209038D01*
X137294359Y-109062939D01*
X137051405Y-108962304D01*
X136793486Y-108911000D01*
X136530514Y-108911000D01*
X136272595Y-108962304D01*
X136029641Y-109062939D01*
X135810987Y-109209038D01*
X135625038Y-109394987D01*
X135478939Y-109613641D01*
X135378304Y-109856595D01*
X135327000Y-110114514D01*
X133348000Y-110114514D01*
X133348000Y-105034514D01*
X135327000Y-105034514D01*
X135327000Y-105297486D01*
X135378304Y-105555405D01*
X135478939Y-105798359D01*
X135625038Y-106017013D01*
X135810987Y-106202962D01*
X136029641Y-106349061D01*
X136272595Y-106449696D01*
X136530514Y-106501000D01*
X136793486Y-106501000D01*
X137051405Y-106449696D01*
X137294359Y-106349061D01*
X137513013Y-106202962D01*
X137698962Y-106017013D01*
X137845061Y-105798359D01*
X137945696Y-105555405D01*
X137997000Y-105297486D01*
X137997000Y-105034514D01*
X137945696Y-104776595D01*
X137845061Y-104533641D01*
X137698962Y-104314987D01*
X137513013Y-104129038D01*
X137294359Y-103982939D01*
X137051405Y-103882304D01*
X136793486Y-103831000D01*
X136530514Y-103831000D01*
X136272595Y-103882304D01*
X136029641Y-103982939D01*
X135810987Y-104129038D01*
X135625038Y-104314987D01*
X135478939Y-104533641D01*
X135378304Y-104776595D01*
X135327000Y-105034514D01*
X133348000Y-105034514D01*
X133348000Y-101637322D01*
X133351676Y-101599999D01*
X133348000Y-101562676D01*
X133348000Y-101562667D01*
X133337003Y-101451014D01*
X133293546Y-101307753D01*
X133222974Y-101175724D01*
X133171467Y-101112962D01*
X133151799Y-101088996D01*
X133151795Y-101088992D01*
X133128001Y-101059999D01*
X133099008Y-101036205D01*
X132007316Y-99944514D01*
X135317000Y-99944514D01*
X135317000Y-100207486D01*
X135368304Y-100465405D01*
X135468939Y-100708359D01*
X135615038Y-100927013D01*
X135800987Y-101112962D01*
X136019641Y-101259061D01*
X136262595Y-101359696D01*
X136520514Y-101411000D01*
X136783486Y-101411000D01*
X137041405Y-101359696D01*
X137284359Y-101259061D01*
X137503013Y-101112962D01*
X137688962Y-100927013D01*
X137835061Y-100708359D01*
X137935696Y-100465405D01*
X137987000Y-100207486D01*
X137987000Y-99944514D01*
X137935696Y-99686595D01*
X137835061Y-99443641D01*
X137688962Y-99224987D01*
X137503013Y-99039038D01*
X137284359Y-98892939D01*
X137041405Y-98792304D01*
X136783486Y-98741000D01*
X136520514Y-98741000D01*
X136262595Y-98792304D01*
X136019641Y-98892939D01*
X135800987Y-99039038D01*
X135615038Y-99224987D01*
X135468939Y-99443641D01*
X135368304Y-99686595D01*
X135317000Y-99944514D01*
X132007316Y-99944514D01*
X131627803Y-99565002D01*
X131604001Y-99535999D01*
X131488276Y-99441026D01*
X131356247Y-99370454D01*
X131212986Y-99326997D01*
X131101333Y-99316000D01*
X131101322Y-99316000D01*
X131064000Y-99312324D01*
X131026678Y-99316000D01*
X130129775Y-99316000D01*
X130068962Y-99224987D01*
X129883013Y-99039038D01*
X129664359Y-98892939D01*
X129421405Y-98792304D01*
X129163486Y-98741000D01*
X128900514Y-98741000D01*
X128642595Y-98792304D01*
X128399641Y-98892939D01*
X128180987Y-99039038D01*
X127995038Y-99224987D01*
X127848939Y-99443641D01*
X127760000Y-99658358D01*
X127760000Y-99374801D01*
X128584802Y-98550000D01*
X139662678Y-98550000D01*
X139700000Y-98553676D01*
X139737322Y-98550000D01*
X139737333Y-98550000D01*
X139848986Y-98539003D01*
X139992247Y-98495546D01*
X140124276Y-98424974D01*
X140240001Y-98330001D01*
X140263804Y-98300997D01*
X141481004Y-97083798D01*
X141510001Y-97060001D01*
X141604974Y-96944276D01*
X141675546Y-96812247D01*
X141719003Y-96668986D01*
X141730000Y-96557333D01*
X141730000Y-96557324D01*
X141733676Y-96520001D01*
X141730000Y-96482678D01*
X141730000Y-82587322D01*
X141733676Y-82549999D01*
X141730000Y-82512676D01*
X141730000Y-82512667D01*
X141719003Y-82401014D01*
X141675546Y-82257753D01*
X141604974Y-82125724D01*
X141510001Y-82009999D01*
X141481003Y-81986201D01*
X140263804Y-80769003D01*
X140240001Y-80739999D01*
X140124276Y-80645026D01*
X139992247Y-80574454D01*
X139848986Y-80530997D01*
X139737333Y-80520000D01*
X139737322Y-80520000D01*
X139700000Y-80516324D01*
X139662678Y-80520000D01*
X125557775Y-80520000D01*
X125496962Y-80428987D01*
X125311013Y-80243038D01*
X125092359Y-80096939D01*
X124849405Y-79996304D01*
X124591486Y-79945000D01*
X124328514Y-79945000D01*
X124070595Y-79996304D01*
X123827641Y-80096939D01*
X123608987Y-80243038D01*
X123423038Y-80428987D01*
X123362225Y-80520000D01*
X111708043Y-80520000D01*
X111604637Y-80365241D01*
X111404759Y-80165363D01*
X111169727Y-80008320D01*
X110908574Y-79900147D01*
X110631335Y-79845000D01*
X110348665Y-79845000D01*
X110071426Y-79900147D01*
X109810273Y-80008320D01*
X109575241Y-80165363D01*
X109375363Y-80365241D01*
X109218320Y-80600273D01*
X109110147Y-80861426D01*
X109055000Y-81138665D01*
X109055000Y-81421335D01*
X109110147Y-81698574D01*
X109218320Y-81959727D01*
X109375363Y-82194759D01*
X109575241Y-82394637D01*
X109810273Y-82551680D01*
X109820865Y-82556067D01*
X109634869Y-82667615D01*
X109426481Y-82856586D01*
X109258963Y-83082580D01*
X109138754Y-83336913D01*
X109098096Y-83470961D01*
X109220085Y-83693000D01*
X110363000Y-83693000D01*
X110363000Y-83673000D01*
X110617000Y-83673000D01*
X110617000Y-83693000D01*
X111759915Y-83693000D01*
X111881904Y-83470961D01*
X111841246Y-83336913D01*
X111721037Y-83082580D01*
X111553519Y-82856586D01*
X111345131Y-82667615D01*
X111159135Y-82556067D01*
X111169727Y-82551680D01*
X111404759Y-82394637D01*
X111604637Y-82194759D01*
X111708043Y-82040000D01*
X123362225Y-82040000D01*
X123423038Y-82131013D01*
X123608987Y-82316962D01*
X123827641Y-82463061D01*
X124070595Y-82563696D01*
X124328514Y-82615000D01*
X124591486Y-82615000D01*
X124849405Y-82563696D01*
X125092359Y-82463061D01*
X125311013Y-82316962D01*
X125496962Y-82131013D01*
X125557775Y-82040000D01*
X139385199Y-82040000D01*
X140210001Y-82864803D01*
X140210000Y-96205198D01*
X139385199Y-97030000D01*
X128307322Y-97030000D01*
X128269999Y-97026324D01*
X128232676Y-97030000D01*
X128232667Y-97030000D01*
X128121014Y-97040997D01*
X127977753Y-97084454D01*
X127845724Y-97155026D01*
X127729999Y-97249999D01*
X127706201Y-97278997D01*
X126488998Y-98496201D01*
X126460000Y-98519999D01*
X126436202Y-98548997D01*
X126436201Y-98548998D01*
X126365026Y-98635724D01*
X126294454Y-98767754D01*
X126264180Y-98867558D01*
X126250998Y-98911014D01*
X126248833Y-98933000D01*
X126236324Y-99060000D01*
X126240001Y-99097332D01*
X126240000Y-109182678D01*
X126236324Y-109220000D01*
X126240000Y-109257322D01*
X126240000Y-109257332D01*
X126250997Y-109368985D01*
X126282344Y-109472323D01*
X126294454Y-109512246D01*
X126365026Y-109644276D01*
X126404871Y-109692826D01*
X126459999Y-109760001D01*
X126489002Y-109783804D01*
X127452201Y-110747003D01*
X127475999Y-110776001D01*
X127504997Y-110799799D01*
X127591723Y-110870974D01*
X127662840Y-110908987D01*
X127723753Y-110941546D01*
X127867014Y-110985003D01*
X127931095Y-110991314D01*
X127995038Y-111087013D01*
X128180987Y-111272962D01*
X128272001Y-111333775D01*
X128272000Y-114493197D01*
X127193199Y-115572000D01*
X123735322Y-115572000D01*
X123697999Y-115568324D01*
X123660676Y-115572000D01*
X123660667Y-115572000D01*
X123549014Y-115582997D01*
X123405753Y-115626454D01*
X123273724Y-115697026D01*
X123157999Y-115791999D01*
X123134200Y-115820998D01*
X122679002Y-116276197D01*
X122649999Y-116299999D01*
X122594871Y-116367174D01*
X122555026Y-116415724D01*
X122520142Y-116480987D01*
X122484454Y-116547754D01*
X122440997Y-116691015D01*
X122430000Y-116802668D01*
X122430000Y-116802678D01*
X122426324Y-116840000D01*
X122430000Y-116877323D01*
X122430001Y-118609821D01*
X122243368Y-118734525D01*
X122036525Y-118941368D01*
X121920000Y-119115760D01*
X121803475Y-118941368D01*
X121596632Y-118734525D01*
X121410000Y-118609822D01*
X121410000Y-118147322D01*
X121413676Y-118109999D01*
X121410000Y-118072676D01*
X121410000Y-118072667D01*
X121399003Y-117961014D01*
X121355546Y-117817753D01*
X121284974Y-117685724D01*
X121190001Y-117569999D01*
X121161003Y-117546201D01*
X119943804Y-116329003D01*
X119920001Y-116299999D01*
X119804276Y-116205026D01*
X119672247Y-116134454D01*
X119528986Y-116090997D01*
X119417333Y-116080000D01*
X119417322Y-116080000D01*
X119380000Y-116076324D01*
X119342678Y-116080000D01*
X115607322Y-116080000D01*
X115569999Y-116076324D01*
X115532676Y-116080000D01*
X115532667Y-116080000D01*
X115421014Y-116090997D01*
X115277753Y-116134454D01*
X115145724Y-116205026D01*
X115029999Y-116299999D01*
X115006201Y-116328997D01*
X113790000Y-117545199D01*
X113790000Y-115884801D01*
X114614802Y-115060000D01*
X116802678Y-115060000D01*
X116840000Y-115063676D01*
X116877322Y-115060000D01*
X116877333Y-115060000D01*
X116988986Y-115049003D01*
X117132247Y-115005546D01*
X117264276Y-114934974D01*
X117380001Y-114840001D01*
X117403804Y-114810997D01*
X118621003Y-113593799D01*
X118650001Y-113570001D01*
X118744974Y-113454276D01*
X118815546Y-113322247D01*
X118859003Y-113178986D01*
X118870000Y-113067333D01*
X118870000Y-113067324D01*
X118873676Y-113030001D01*
X118870000Y-112992678D01*
X118870000Y-112093329D01*
X121643284Y-112093329D01*
X121675953Y-112201044D01*
X121786208Y-112438392D01*
X121940649Y-112649670D01*
X122133340Y-112826759D01*
X122356877Y-112962853D01*
X122602670Y-113052722D01*
X122809000Y-112930201D01*
X122809000Y-111887000D01*
X123063000Y-111887000D01*
X123063000Y-112930201D01*
X123269330Y-113052722D01*
X123515123Y-112962853D01*
X123738660Y-112826759D01*
X123931351Y-112649670D01*
X124085792Y-112438392D01*
X124196047Y-112201044D01*
X124228716Y-112093329D01*
X124105374Y-111887000D01*
X123063000Y-111887000D01*
X122809000Y-111887000D01*
X121766626Y-111887000D01*
X121643284Y-112093329D01*
X118870000Y-112093329D01*
X118870000Y-111426671D01*
X121643284Y-111426671D01*
X121766626Y-111633000D01*
X122809000Y-111633000D01*
X122809000Y-110589799D01*
X123063000Y-110589799D01*
X123063000Y-111633000D01*
X124105374Y-111633000D01*
X124228716Y-111426671D01*
X124196047Y-111318956D01*
X124085792Y-111081608D01*
X123931351Y-110870330D01*
X123738660Y-110693241D01*
X123515123Y-110557147D01*
X123269330Y-110467278D01*
X123063000Y-110589799D01*
X122809000Y-110589799D01*
X122602670Y-110467278D01*
X122356877Y-110557147D01*
X122133340Y-110693241D01*
X121940649Y-110870330D01*
X121786208Y-111081608D01*
X121675953Y-111318956D01*
X121643284Y-111426671D01*
X118870000Y-111426671D01*
X118870000Y-107987322D01*
X118873676Y-107949999D01*
X118870000Y-107912676D01*
X118870000Y-107912667D01*
X118859003Y-107801014D01*
X118815546Y-107657753D01*
X118744974Y-107525724D01*
X118650001Y-107409999D01*
X118621003Y-107386201D01*
X117403804Y-106169003D01*
X117380001Y-106139999D01*
X117264276Y-106045026D01*
X117132247Y-105974454D01*
X116988986Y-105930997D01*
X116877333Y-105920000D01*
X116877322Y-105920000D01*
X116840000Y-105916324D01*
X116802678Y-105920000D01*
X116413775Y-105920000D01*
X116352962Y-105828987D01*
X116167013Y-105643038D01*
X115948359Y-105496939D01*
X115705405Y-105396304D01*
X115447486Y-105345000D01*
X115184514Y-105345000D01*
X114926595Y-105396304D01*
X114683641Y-105496939D01*
X114464987Y-105643038D01*
X114279038Y-105828987D01*
X114132939Y-106047641D01*
X114032304Y-106290595D01*
X113981000Y-106548514D01*
X113981000Y-106811486D01*
X114032304Y-107069405D01*
X114132939Y-107312359D01*
X114279038Y-107531013D01*
X114464987Y-107716962D01*
X114683641Y-107863061D01*
X114926595Y-107963696D01*
X115184514Y-108015000D01*
X115447486Y-108015000D01*
X115705405Y-107963696D01*
X115948359Y-107863061D01*
X116167013Y-107716962D01*
X116352962Y-107531013D01*
X116413775Y-107440000D01*
X116525199Y-107440000D01*
X117350000Y-108264802D01*
X117350001Y-112715197D01*
X116525199Y-113540000D01*
X114337322Y-113540000D01*
X114299999Y-113536324D01*
X114262676Y-113540000D01*
X114262667Y-113540000D01*
X114151014Y-113550997D01*
X114007753Y-113594454D01*
X113875724Y-113665026D01*
X113759999Y-113759999D01*
X113736201Y-113788997D01*
X112519003Y-115006196D01*
X112489999Y-115029999D01*
X112434871Y-115097174D01*
X112395026Y-115145724D01*
X112358126Y-115214759D01*
X112324454Y-115277754D01*
X112280997Y-115421015D01*
X112270000Y-115532668D01*
X112270000Y-115532678D01*
X112266324Y-115570000D01*
X112270000Y-115607323D01*
X112270001Y-119065197D01*
X111445199Y-119890000D01*
X108264802Y-119890000D01*
X107440000Y-119065199D01*
X107440000Y-97827322D01*
X107443676Y-97789999D01*
X107440000Y-97752676D01*
X107440000Y-97752667D01*
X107429003Y-97641014D01*
X107385546Y-97497753D01*
X107314974Y-97365724D01*
X107220001Y-97249999D01*
X107191003Y-97226201D01*
X105973804Y-96009003D01*
X105950001Y-95979999D01*
X105834276Y-95885026D01*
X105702247Y-95814454D01*
X105558986Y-95770997D01*
X105447333Y-95760000D01*
X105447322Y-95760000D01*
X105410000Y-95756324D01*
X105372678Y-95760000D01*
X96468043Y-95760000D01*
X96364637Y-95605241D01*
X96164759Y-95405363D01*
X95932241Y-95250000D01*
X96164759Y-95094637D01*
X96364637Y-94894759D01*
X96521680Y-94659727D01*
X96629853Y-94398574D01*
X96685000Y-94121335D01*
X96685000Y-93838665D01*
X96629853Y-93561426D01*
X96521680Y-93300273D01*
X96364637Y-93065241D01*
X96164759Y-92865363D01*
X95932241Y-92710000D01*
X96164759Y-92554637D01*
X96364637Y-92354759D01*
X96521680Y-92119727D01*
X96629853Y-91858574D01*
X96685000Y-91581335D01*
X96685000Y-91298665D01*
X96629853Y-91021426D01*
X96521680Y-90760273D01*
X96364637Y-90525241D01*
X96164759Y-90325363D01*
X95932241Y-90170000D01*
X96164759Y-90014637D01*
X96364637Y-89814759D01*
X96521680Y-89579727D01*
X96629853Y-89318574D01*
X96685000Y-89041335D01*
X96685000Y-88758665D01*
X96629853Y-88481426D01*
X96521680Y-88220273D01*
X96364637Y-87985241D01*
X96164759Y-87785363D01*
X95932241Y-87630000D01*
X96164759Y-87474637D01*
X96364637Y-87274759D01*
X96521680Y-87039727D01*
X96629853Y-86778574D01*
X96685000Y-86501335D01*
X96685000Y-86218665D01*
X96629853Y-85941426D01*
X96521680Y-85680273D01*
X96364637Y-85445241D01*
X96164759Y-85245363D01*
X95932241Y-85090000D01*
X96164759Y-84934637D01*
X96364637Y-84734759D01*
X96521680Y-84499727D01*
X96629853Y-84238574D01*
X96685000Y-83961335D01*
X96685000Y-83678665D01*
X96629853Y-83401426D01*
X96521680Y-83140273D01*
X96364637Y-82905241D01*
X96166039Y-82706643D01*
X96174482Y-82705812D01*
X96294180Y-82669502D01*
X96404494Y-82610537D01*
X96501185Y-82531185D01*
X96580537Y-82434494D01*
X96639502Y-82324180D01*
X96675812Y-82204482D01*
X96688072Y-82080000D01*
X96688072Y-80480000D01*
X96675812Y-80355518D01*
X96639502Y-80235820D01*
X96580537Y-80125506D01*
X96501185Y-80028815D01*
X96404494Y-79949463D01*
X96294180Y-79890498D01*
X96174482Y-79854188D01*
X96050000Y-79841928D01*
X94450000Y-79841928D01*
X94325518Y-79854188D01*
X94205820Y-79890498D01*
X94095506Y-79949463D01*
X93998815Y-80028815D01*
X93919463Y-80125506D01*
X93860498Y-80235820D01*
X93824188Y-80355518D01*
X93811928Y-80480000D01*
X93811928Y-82080000D01*
X93824188Y-82204482D01*
X93860498Y-82324180D01*
X93919463Y-82434494D01*
X93998815Y-82531185D01*
X94095506Y-82610537D01*
X94205820Y-82669502D01*
X94325518Y-82705812D01*
X94333961Y-82706643D01*
X94135363Y-82905241D01*
X93978320Y-83140273D01*
X93870147Y-83401426D01*
X93815000Y-83678665D01*
X93815000Y-83961335D01*
X93870147Y-84238574D01*
X93978320Y-84499727D01*
X94135363Y-84734759D01*
X94335241Y-84934637D01*
X94567759Y-85090000D01*
X94335241Y-85245363D01*
X94135363Y-85445241D01*
X93978320Y-85680273D01*
X93870147Y-85941426D01*
X93815000Y-86218665D01*
X93815000Y-86501335D01*
X93870147Y-86778574D01*
X93978320Y-87039727D01*
X94135363Y-87274759D01*
X94335241Y-87474637D01*
X94567759Y-87630000D01*
X94335241Y-87785363D01*
X94135363Y-87985241D01*
X93978320Y-88220273D01*
X93870147Y-88481426D01*
X93815000Y-88758665D01*
X93815000Y-89041335D01*
X93870147Y-89318574D01*
X93978320Y-89579727D01*
X94135363Y-89814759D01*
X94335241Y-90014637D01*
X94567759Y-90170000D01*
X94335241Y-90325363D01*
X94135363Y-90525241D01*
X93978320Y-90760273D01*
X93870147Y-91021426D01*
X93815000Y-91298665D01*
X93815000Y-91581335D01*
X93870147Y-91858574D01*
X93978320Y-92119727D01*
X94135363Y-92354759D01*
X94335241Y-92554637D01*
X94567759Y-92710000D01*
X94335241Y-92865363D01*
X94135363Y-93065241D01*
X93978320Y-93300273D01*
X93870147Y-93561426D01*
X93815000Y-93838665D01*
X93815000Y-94121335D01*
X93870147Y-94398574D01*
X93978320Y-94659727D01*
X94135363Y-94894759D01*
X94335241Y-95094637D01*
X94567759Y-95250000D01*
X94335241Y-95405363D01*
X94135363Y-95605241D01*
X93978320Y-95840273D01*
X93870147Y-96101426D01*
X93815000Y-96378665D01*
X93815000Y-96661335D01*
X93870147Y-96938574D01*
X93978320Y-97199727D01*
X94135363Y-97434759D01*
X94335241Y-97634637D01*
X94567759Y-97790000D01*
X94335241Y-97945363D01*
X94137703Y-98142901D01*
X93470000Y-97475199D01*
X93470000Y-86397322D01*
X93473676Y-86359999D01*
X93470000Y-86322676D01*
X93470000Y-86322667D01*
X93459003Y-86211014D01*
X93415546Y-86067753D01*
X93344974Y-85935724D01*
X93250001Y-85819999D01*
X93221003Y-85796201D01*
X92003804Y-84579003D01*
X91980001Y-84549999D01*
X91864276Y-84455026D01*
X91732247Y-84384454D01*
X91588986Y-84340997D01*
X91477333Y-84330000D01*
X91477322Y-84330000D01*
X91440000Y-84326324D01*
X91402678Y-84330000D01*
X87848072Y-84330000D01*
X87848072Y-84240000D01*
X87835812Y-84115518D01*
X87799502Y-83995820D01*
X87740537Y-83885506D01*
X87661185Y-83788815D01*
X87564494Y-83709463D01*
X87454180Y-83650498D01*
X87334482Y-83614188D01*
X87210000Y-83601928D01*
X85510000Y-83601928D01*
X85385518Y-83614188D01*
X85265820Y-83650498D01*
X85155506Y-83709463D01*
X85058815Y-83788815D01*
X84979463Y-83885506D01*
X84920498Y-83995820D01*
X84884188Y-84115518D01*
X84871928Y-84240000D01*
X84871928Y-85940000D01*
X84884188Y-86064482D01*
X84920498Y-86184180D01*
X84979463Y-86294494D01*
X85058815Y-86391185D01*
X85155506Y-86470537D01*
X85265820Y-86529502D01*
X85338380Y-86551513D01*
X85206525Y-86683368D01*
X85044010Y-86926589D01*
X84932068Y-87196842D01*
X84875000Y-87483740D01*
X84875000Y-87776260D01*
X84932068Y-88063158D01*
X85044010Y-88333411D01*
X85206525Y-88576632D01*
X85413368Y-88783475D01*
X85587760Y-88900000D01*
X85413368Y-89016525D01*
X85206525Y-89223368D01*
X85044010Y-89466589D01*
X84932068Y-89736842D01*
X84875000Y-90023740D01*
X84875000Y-90316260D01*
X84932068Y-90603158D01*
X84963897Y-90680000D01*
X84580000Y-90680000D01*
X84580000Y-80324801D01*
X85404802Y-79500000D01*
X98745199Y-79500000D01*
X104650000Y-85404802D01*
X104650001Y-87592668D01*
X104646324Y-87630000D01*
X104650001Y-87667333D01*
X104660998Y-87778986D01*
X104674180Y-87822442D01*
X104704454Y-87922246D01*
X104775026Y-88054276D01*
X104842361Y-88136323D01*
X104870000Y-88170001D01*
X104898998Y-88193799D01*
X106116201Y-89411003D01*
X106139999Y-89440001D01*
X106255724Y-89534974D01*
X106387753Y-89605546D01*
X106531014Y-89649003D01*
X106642667Y-89660000D01*
X106642676Y-89660000D01*
X106679999Y-89663676D01*
X106717322Y-89660000D01*
X109271957Y-89660000D01*
X109375363Y-89814759D01*
X109575241Y-90014637D01*
X109807759Y-90170000D01*
X109575241Y-90325363D01*
X109375363Y-90525241D01*
X109218320Y-90760273D01*
X109110147Y-91021426D01*
X109055000Y-91298665D01*
X109055000Y-91581335D01*
X109110147Y-91858574D01*
X109218320Y-92119727D01*
X109375363Y-92354759D01*
X109575241Y-92554637D01*
X109807759Y-92710000D01*
X109575241Y-92865363D01*
X109375363Y-93065241D01*
X109218320Y-93300273D01*
X109110147Y-93561426D01*
X109055000Y-93838665D01*
X109055000Y-94121335D01*
X109110147Y-94398574D01*
X109218320Y-94659727D01*
X109375363Y-94894759D01*
X109575241Y-95094637D01*
X109807759Y-95250000D01*
X109575241Y-95405363D01*
X109375363Y-95605241D01*
X109218320Y-95840273D01*
X109110147Y-96101426D01*
X109055000Y-96378665D01*
X109055000Y-96661335D01*
X109110147Y-96938574D01*
X109218320Y-97199727D01*
X109375363Y-97434759D01*
X109575241Y-97634637D01*
X109807759Y-97790000D01*
X109575241Y-97945363D01*
X109375363Y-98145241D01*
X109218320Y-98380273D01*
X109110147Y-98641426D01*
X109055000Y-98918665D01*
X109055000Y-99201335D01*
X109110147Y-99478574D01*
X109218320Y-99739727D01*
X109375363Y-99974759D01*
X109575241Y-100174637D01*
X109807759Y-100330000D01*
X109575241Y-100485363D01*
X109375363Y-100685241D01*
X109218320Y-100920273D01*
X109110147Y-101181426D01*
X109055000Y-101458665D01*
X109055000Y-101741335D01*
X109110147Y-102018574D01*
X109218320Y-102279727D01*
X109375363Y-102514759D01*
X109575241Y-102714637D01*
X109807759Y-102870000D01*
X109575241Y-103025363D01*
X109375363Y-103225241D01*
X109218320Y-103460273D01*
X109110147Y-103721426D01*
X109055000Y-103998665D01*
X109055000Y-104281335D01*
X109110147Y-104558574D01*
X109218320Y-104819727D01*
X109375363Y-105054759D01*
X109575241Y-105254637D01*
X109807759Y-105410000D01*
X109575241Y-105565363D01*
X109375363Y-105765241D01*
X109218320Y-106000273D01*
X109110147Y-106261426D01*
X109055000Y-106538665D01*
X109055000Y-106821335D01*
X109110147Y-107098574D01*
X109218320Y-107359727D01*
X109375363Y-107594759D01*
X109575241Y-107794637D01*
X109807759Y-107950000D01*
X109575241Y-108105363D01*
X109375363Y-108305241D01*
X109218320Y-108540273D01*
X109110147Y-108801426D01*
X109055000Y-109078665D01*
X109055000Y-109361335D01*
X109110147Y-109638574D01*
X109218320Y-109899727D01*
X109375363Y-110134759D01*
X109575241Y-110334637D01*
X109807759Y-110490000D01*
X109575241Y-110645363D01*
X109375363Y-110845241D01*
X109218320Y-111080273D01*
X109110147Y-111341426D01*
X109055000Y-111618665D01*
X109055000Y-111901335D01*
X109110147Y-112178574D01*
X109218320Y-112439727D01*
X109375363Y-112674759D01*
X109575241Y-112874637D01*
X109807759Y-113030000D01*
X109575241Y-113185363D01*
X109375363Y-113385241D01*
X109218320Y-113620273D01*
X109110147Y-113881426D01*
X109055000Y-114158665D01*
X109055000Y-114441335D01*
X109110147Y-114718574D01*
X109218320Y-114979727D01*
X109375363Y-115214759D01*
X109575241Y-115414637D01*
X109807759Y-115570000D01*
X109575241Y-115725363D01*
X109375363Y-115925241D01*
X109218320Y-116160273D01*
X109110147Y-116421426D01*
X109055000Y-116698665D01*
X109055000Y-116981335D01*
X109110147Y-117258574D01*
X109218320Y-117519727D01*
X109375363Y-117754759D01*
X109575241Y-117954637D01*
X109810273Y-118111680D01*
X110071426Y-118219853D01*
X110348665Y-118275000D01*
X110631335Y-118275000D01*
X110908574Y-118219853D01*
X111169727Y-118111680D01*
X111404759Y-117954637D01*
X111604637Y-117754759D01*
X111761680Y-117519727D01*
X111869853Y-117258574D01*
X111925000Y-116981335D01*
X111925000Y-116698665D01*
X111869853Y-116421426D01*
X111761680Y-116160273D01*
X111604637Y-115925241D01*
X111404759Y-115725363D01*
X111172241Y-115570000D01*
X111404759Y-115414637D01*
X111604637Y-115214759D01*
X111761680Y-114979727D01*
X111869853Y-114718574D01*
X111925000Y-114441335D01*
X111925000Y-114158665D01*
X111869853Y-113881426D01*
X111761680Y-113620273D01*
X111604637Y-113385241D01*
X111404759Y-113185363D01*
X111172241Y-113030000D01*
X111404759Y-112874637D01*
X111604637Y-112674759D01*
X111761680Y-112439727D01*
X111869853Y-112178574D01*
X111925000Y-111901335D01*
X111925000Y-111618665D01*
X111869853Y-111341426D01*
X111761680Y-111080273D01*
X111604637Y-110845241D01*
X111404759Y-110645363D01*
X111172241Y-110490000D01*
X111404759Y-110334637D01*
X111604637Y-110134759D01*
X111708043Y-109980000D01*
X113985199Y-109980000D01*
X114556001Y-110550803D01*
X114556001Y-110662225D01*
X114464987Y-110723038D01*
X114279038Y-110908987D01*
X114132939Y-111127641D01*
X114032304Y-111370595D01*
X113981000Y-111628514D01*
X113981000Y-111891486D01*
X114032304Y-112149405D01*
X114132939Y-112392359D01*
X114279038Y-112611013D01*
X114464987Y-112796962D01*
X114683641Y-112943061D01*
X114926595Y-113043696D01*
X115184514Y-113095000D01*
X115447486Y-113095000D01*
X115705405Y-113043696D01*
X115948359Y-112943061D01*
X116167013Y-112796962D01*
X116352962Y-112611013D01*
X116499061Y-112392359D01*
X116599696Y-112149405D01*
X116651000Y-111891486D01*
X116651000Y-111628514D01*
X116599696Y-111370595D01*
X116499061Y-111127641D01*
X116352962Y-110908987D01*
X116167013Y-110723038D01*
X116076000Y-110662225D01*
X116076000Y-110273322D01*
X116079676Y-110236000D01*
X116076000Y-110198677D01*
X116076000Y-110198667D01*
X116065003Y-110087014D01*
X116021546Y-109943753D01*
X115998013Y-109899727D01*
X115950974Y-109811723D01*
X115879799Y-109724997D01*
X115856001Y-109695999D01*
X115827003Y-109672201D01*
X114863804Y-108709002D01*
X114840001Y-108679999D01*
X114724276Y-108585026D01*
X114592247Y-108514454D01*
X114448986Y-108470997D01*
X114337333Y-108460000D01*
X114337322Y-108460000D01*
X114300000Y-108456324D01*
X114262678Y-108460000D01*
X112324802Y-108460000D01*
X113541008Y-107243795D01*
X113570001Y-107220001D01*
X113593795Y-107191008D01*
X113593799Y-107191004D01*
X113664973Y-107104277D01*
X113664974Y-107104276D01*
X113735546Y-106972247D01*
X113779003Y-106828986D01*
X113790000Y-106717333D01*
X113790000Y-106717324D01*
X113793676Y-106680001D01*
X113790000Y-106642678D01*
X113790000Y-99381681D01*
X117129087Y-99381681D01*
X117176554Y-99620263D01*
X117269654Y-99845000D01*
X117404809Y-100047256D01*
X117576826Y-100219258D01*
X117779093Y-100354396D01*
X118003838Y-100447477D01*
X118046391Y-100453462D01*
X118237000Y-100328731D01*
X118237000Y-99187000D01*
X118491000Y-99187000D01*
X118491000Y-100328731D01*
X118681609Y-100453462D01*
X118724162Y-100447477D01*
X118948907Y-100354396D01*
X119151174Y-100219258D01*
X119323191Y-100047256D01*
X119458346Y-99845000D01*
X119551446Y-99620263D01*
X119598913Y-99381681D01*
X119443994Y-99187000D01*
X118491000Y-99187000D01*
X118237000Y-99187000D01*
X117284006Y-99187000D01*
X117129087Y-99381681D01*
X113790000Y-99381681D01*
X113790000Y-96398363D01*
X117129000Y-96398363D01*
X117129000Y-96641637D01*
X117176460Y-96880236D01*
X117269557Y-97104992D01*
X117404713Y-97307267D01*
X117576733Y-97479287D01*
X117779008Y-97614443D01*
X117961529Y-97690046D01*
X117779093Y-97765604D01*
X117576826Y-97900742D01*
X117404809Y-98072744D01*
X117269654Y-98275000D01*
X117176554Y-98499737D01*
X117129087Y-98738319D01*
X117284006Y-98933000D01*
X118237000Y-98933000D01*
X118237000Y-98913000D01*
X118491000Y-98913000D01*
X118491000Y-98933000D01*
X119166235Y-98933000D01*
X119273764Y-98977540D01*
X119512363Y-99025000D01*
X119755637Y-99025000D01*
X119994236Y-98977540D01*
X120218992Y-98884443D01*
X120421267Y-98749287D01*
X120593287Y-98577267D01*
X120611506Y-98550000D01*
X121859199Y-98550000D01*
X122176000Y-98866802D01*
X122176000Y-99276668D01*
X122176001Y-105582225D01*
X122084987Y-105643038D01*
X121899038Y-105828987D01*
X121752939Y-106047641D01*
X121652304Y-106290595D01*
X121601000Y-106548514D01*
X121601000Y-106811486D01*
X121652304Y-107069405D01*
X121752939Y-107312359D01*
X121899038Y-107531013D01*
X122084987Y-107716962D01*
X122303641Y-107863061D01*
X122546595Y-107963696D01*
X122804514Y-108015000D01*
X123067486Y-108015000D01*
X123325405Y-107963696D01*
X123568359Y-107863061D01*
X123787013Y-107716962D01*
X123972962Y-107531013D01*
X124119061Y-107312359D01*
X124219696Y-107069405D01*
X124271000Y-106811486D01*
X124271000Y-106548514D01*
X124219696Y-106290595D01*
X124119061Y-106047641D01*
X123972962Y-105828987D01*
X123787013Y-105643038D01*
X123696000Y-105582225D01*
X123696000Y-98589325D01*
X123699676Y-98552000D01*
X123696000Y-98514675D01*
X123696000Y-98514667D01*
X123685003Y-98403014D01*
X123641546Y-98259753D01*
X123570974Y-98127724D01*
X123476001Y-98011999D01*
X123447004Y-97988202D01*
X122737803Y-97279002D01*
X122714001Y-97249999D01*
X122598276Y-97155026D01*
X122466247Y-97084454D01*
X122322986Y-97040997D01*
X122211333Y-97030000D01*
X122211322Y-97030000D01*
X122174000Y-97026324D01*
X122136678Y-97030000D01*
X120611506Y-97030000D01*
X120593287Y-97002733D01*
X120421267Y-96830713D01*
X120218992Y-96695557D01*
X119994236Y-96602460D01*
X119755637Y-96555000D01*
X119599000Y-96555000D01*
X119599000Y-96398363D01*
X119592602Y-96366199D01*
X119948802Y-96010000D01*
X135852678Y-96010000D01*
X135890000Y-96013676D01*
X135927322Y-96010000D01*
X135927333Y-96010000D01*
X136038986Y-95999003D01*
X136182247Y-95955546D01*
X136314276Y-95884974D01*
X136430001Y-95790001D01*
X136453803Y-95760998D01*
X137163004Y-95051798D01*
X137192001Y-95028001D01*
X137286974Y-94912276D01*
X137357546Y-94780247D01*
X137401003Y-94636986D01*
X137412000Y-94525333D01*
X137412000Y-94525325D01*
X137415676Y-94488000D01*
X137412000Y-94450675D01*
X137412000Y-93553775D01*
X137503013Y-93492962D01*
X137688962Y-93307013D01*
X137835061Y-93088359D01*
X137935696Y-92845405D01*
X137987000Y-92587486D01*
X137987000Y-92324514D01*
X137935696Y-92066595D01*
X137916549Y-92020370D01*
X137920000Y-91985333D01*
X137920000Y-91985324D01*
X137923676Y-91948001D01*
X137920000Y-91910678D01*
X137920000Y-87578043D01*
X138074759Y-87474637D01*
X138274637Y-87274759D01*
X138431680Y-87039727D01*
X138539853Y-86778574D01*
X138595000Y-86501335D01*
X138595000Y-86218665D01*
X138539853Y-85941426D01*
X138431680Y-85680273D01*
X138274637Y-85445241D01*
X138074759Y-85245363D01*
X137839727Y-85088320D01*
X137578574Y-84980147D01*
X137301335Y-84925000D01*
X137018665Y-84925000D01*
X136741426Y-84980147D01*
X136480273Y-85088320D01*
X136245241Y-85245363D01*
X136045363Y-85445241D01*
X135888320Y-85680273D01*
X135780147Y-85941426D01*
X135725000Y-86218665D01*
X135725000Y-86501335D01*
X135780147Y-86778574D01*
X135888320Y-87039727D01*
X136045363Y-87274759D01*
X136245241Y-87474637D01*
X136400000Y-87578044D01*
X136400001Y-91144972D01*
X136262595Y-91172304D01*
X136019641Y-91272939D01*
X135800987Y-91419038D01*
X135615038Y-91604987D01*
X135468939Y-91823641D01*
X135368304Y-92066595D01*
X135317000Y-92324514D01*
X135317000Y-92587486D01*
X135368304Y-92845405D01*
X135468939Y-93088359D01*
X135615038Y-93307013D01*
X135800987Y-93492962D01*
X135892000Y-93553775D01*
X135892000Y-94173198D01*
X135575199Y-94490000D01*
X119671322Y-94490000D01*
X119633999Y-94486324D01*
X119596676Y-94490000D01*
X119596667Y-94490000D01*
X119485014Y-94500997D01*
X119341753Y-94544454D01*
X119209724Y-94615026D01*
X119093999Y-94709999D01*
X119070201Y-94738997D01*
X118517801Y-95291398D01*
X118485637Y-95285000D01*
X118242363Y-95285000D01*
X118003764Y-95332460D01*
X117779008Y-95425557D01*
X117576733Y-95560713D01*
X117404713Y-95732733D01*
X117269557Y-95935008D01*
X117176460Y-96159764D01*
X117129000Y-96398363D01*
X113790000Y-96398363D01*
X113790000Y-93024801D01*
X114614802Y-92200000D01*
X120612678Y-92200000D01*
X120650000Y-92203676D01*
X120687322Y-92200000D01*
X120687333Y-92200000D01*
X120798986Y-92189003D01*
X120942247Y-92145546D01*
X121074276Y-92074974D01*
X121190001Y-91980001D01*
X121213804Y-91950997D01*
X123419334Y-89745469D01*
X123423038Y-89751013D01*
X123608987Y-89936962D01*
X123827641Y-90083061D01*
X124070595Y-90183696D01*
X124328514Y-90235000D01*
X124591486Y-90235000D01*
X124849405Y-90183696D01*
X125092359Y-90083061D01*
X125311013Y-89936962D01*
X125496962Y-89751013D01*
X125643061Y-89532359D01*
X125743696Y-89289405D01*
X125795000Y-89031486D01*
X125795000Y-88768514D01*
X125743696Y-88510595D01*
X125643061Y-88267641D01*
X125496962Y-88048987D01*
X125311013Y-87863038D01*
X125092359Y-87716939D01*
X124849405Y-87616304D01*
X124591486Y-87565000D01*
X124328514Y-87565000D01*
X124070595Y-87616304D01*
X123827641Y-87716939D01*
X123608987Y-87863038D01*
X123423038Y-88048987D01*
X123362225Y-88140000D01*
X123227322Y-88140000D01*
X123189999Y-88136324D01*
X123152676Y-88140000D01*
X123152667Y-88140000D01*
X123041014Y-88150997D01*
X122897753Y-88194454D01*
X122765724Y-88265026D01*
X122765722Y-88265027D01*
X122765723Y-88265027D01*
X122678996Y-88336201D01*
X122678992Y-88336205D01*
X122649999Y-88359999D01*
X122626205Y-88388992D01*
X120335199Y-90680000D01*
X114337322Y-90680000D01*
X114299999Y-90676324D01*
X114262676Y-90680000D01*
X114262667Y-90680000D01*
X114151014Y-90690997D01*
X114007753Y-90734454D01*
X113875724Y-90805026D01*
X113759999Y-90899999D01*
X113736201Y-90928997D01*
X112519003Y-92146196D01*
X112489999Y-92169999D01*
X112434871Y-92237174D01*
X112395026Y-92285724D01*
X112358126Y-92354759D01*
X112324454Y-92417754D01*
X112280997Y-92561015D01*
X112270000Y-92672668D01*
X112270000Y-92672678D01*
X112266324Y-92710000D01*
X112270000Y-92747322D01*
X112270001Y-106365196D01*
X111925000Y-106710197D01*
X111925000Y-106538665D01*
X111869853Y-106261426D01*
X111761680Y-106000273D01*
X111604637Y-105765241D01*
X111404759Y-105565363D01*
X111172241Y-105410000D01*
X111404759Y-105254637D01*
X111604637Y-105054759D01*
X111761680Y-104819727D01*
X111869853Y-104558574D01*
X111925000Y-104281335D01*
X111925000Y-103998665D01*
X111869853Y-103721426D01*
X111761680Y-103460273D01*
X111604637Y-103225241D01*
X111404759Y-103025363D01*
X111172241Y-102870000D01*
X111404759Y-102714637D01*
X111604637Y-102514759D01*
X111761680Y-102279727D01*
X111869853Y-102018574D01*
X111925000Y-101741335D01*
X111925000Y-101458665D01*
X111869853Y-101181426D01*
X111761680Y-100920273D01*
X111604637Y-100685241D01*
X111404759Y-100485363D01*
X111172241Y-100330000D01*
X111404759Y-100174637D01*
X111604637Y-99974759D01*
X111761680Y-99739727D01*
X111869853Y-99478574D01*
X111925000Y-99201335D01*
X111925000Y-98918665D01*
X111869853Y-98641426D01*
X111761680Y-98380273D01*
X111604637Y-98145241D01*
X111404759Y-97945363D01*
X111172241Y-97790000D01*
X111404759Y-97634637D01*
X111604637Y-97434759D01*
X111761680Y-97199727D01*
X111869853Y-96938574D01*
X111925000Y-96661335D01*
X111925000Y-96378665D01*
X111869853Y-96101426D01*
X111761680Y-95840273D01*
X111604637Y-95605241D01*
X111404759Y-95405363D01*
X111172241Y-95250000D01*
X111404759Y-95094637D01*
X111604637Y-94894759D01*
X111761680Y-94659727D01*
X111869853Y-94398574D01*
X111925000Y-94121335D01*
X111925000Y-93838665D01*
X111869853Y-93561426D01*
X111761680Y-93300273D01*
X111604637Y-93065241D01*
X111404759Y-92865363D01*
X111172241Y-92710000D01*
X111404759Y-92554637D01*
X111604637Y-92354759D01*
X111761680Y-92119727D01*
X111869853Y-91858574D01*
X111925000Y-91581335D01*
X111925000Y-91298665D01*
X111869853Y-91021426D01*
X111761680Y-90760273D01*
X111604637Y-90525241D01*
X111404759Y-90325363D01*
X111172241Y-90170000D01*
X111404759Y-90014637D01*
X111604637Y-89814759D01*
X111708043Y-89660000D01*
X116671928Y-89660000D01*
X116671928Y-89700000D01*
X116684188Y-89824482D01*
X116720498Y-89944180D01*
X116779463Y-90054494D01*
X116858815Y-90151185D01*
X116955506Y-90230537D01*
X117065820Y-90289502D01*
X117185518Y-90325812D01*
X117310000Y-90338072D01*
X118910000Y-90338072D01*
X119034482Y-90325812D01*
X119154180Y-90289502D01*
X119264494Y-90230537D01*
X119361185Y-90151185D01*
X119440537Y-90054494D01*
X119499502Y-89944180D01*
X119535812Y-89824482D01*
X119548072Y-89700000D01*
X119548072Y-89660000D01*
X120612678Y-89660000D01*
X120650000Y-89663676D01*
X120687322Y-89660000D01*
X120687333Y-89660000D01*
X120798986Y-89649003D01*
X120942247Y-89605546D01*
X121074276Y-89534974D01*
X121190001Y-89440001D01*
X121213804Y-89410997D01*
X123504803Y-87120000D01*
X128101928Y-87120000D01*
X128101928Y-87160000D01*
X128114188Y-87284482D01*
X128150498Y-87404180D01*
X128209463Y-87514494D01*
X128288815Y-87611185D01*
X128385506Y-87690537D01*
X128495820Y-87749502D01*
X128615518Y-87785812D01*
X128740000Y-87798072D01*
X128780000Y-87798072D01*
X128780001Y-91117928D01*
X128332000Y-91117928D01*
X128207518Y-91130188D01*
X128087820Y-91166498D01*
X127977506Y-91225463D01*
X127880815Y-91304815D01*
X127801463Y-91401506D01*
X127742498Y-91511820D01*
X127706188Y-91631518D01*
X127693928Y-91756000D01*
X127693928Y-93156000D01*
X127706188Y-93280482D01*
X127742498Y-93400180D01*
X127801463Y-93510494D01*
X127880815Y-93607185D01*
X127977506Y-93686537D01*
X128087820Y-93745502D01*
X128207518Y-93781812D01*
X128332000Y-93794072D01*
X129732000Y-93794072D01*
X129856482Y-93781812D01*
X129976180Y-93745502D01*
X130086494Y-93686537D01*
X130183185Y-93607185D01*
X130262537Y-93510494D01*
X130321502Y-93400180D01*
X130357812Y-93280482D01*
X130370072Y-93156000D01*
X130370072Y-91756000D01*
X130357812Y-91631518D01*
X130321502Y-91511820D01*
X130300000Y-91471593D01*
X130300000Y-87798072D01*
X130340000Y-87798072D01*
X130464482Y-87785812D01*
X130584180Y-87749502D01*
X130694494Y-87690537D01*
X130791185Y-87611185D01*
X130870537Y-87514494D01*
X130929502Y-87404180D01*
X130965812Y-87284482D01*
X130978072Y-87160000D01*
X130978072Y-85560000D01*
X130965812Y-85435518D01*
X130929502Y-85315820D01*
X130870537Y-85205506D01*
X130791185Y-85108815D01*
X130694494Y-85029463D01*
X130584180Y-84970498D01*
X130464482Y-84934188D01*
X130340000Y-84921928D01*
X128740000Y-84921928D01*
X128615518Y-84934188D01*
X128495820Y-84970498D01*
X128385506Y-85029463D01*
X128288815Y-85108815D01*
X128209463Y-85205506D01*
X128150498Y-85315820D01*
X128114188Y-85435518D01*
X128101928Y-85560000D01*
X128101928Y-85600000D01*
X123227322Y-85600000D01*
X123189999Y-85596324D01*
X123152676Y-85600000D01*
X123152667Y-85600000D01*
X123041014Y-85610997D01*
X122897753Y-85654454D01*
X122765724Y-85725026D01*
X122765722Y-85725027D01*
X122765723Y-85725027D01*
X122678996Y-85796201D01*
X122678992Y-85796205D01*
X122649999Y-85819999D01*
X122626205Y-85848992D01*
X120335199Y-88140000D01*
X119548072Y-88140000D01*
X119548072Y-88100000D01*
X119535812Y-87975518D01*
X119499502Y-87855820D01*
X119440537Y-87745506D01*
X119361185Y-87648815D01*
X119264494Y-87569463D01*
X119154180Y-87510498D01*
X119034482Y-87474188D01*
X118910000Y-87461928D01*
X118902785Y-87461928D01*
X118923097Y-87392702D01*
X118110000Y-86579605D01*
X117296903Y-87392702D01*
X117317215Y-87461928D01*
X117310000Y-87461928D01*
X117185518Y-87474188D01*
X117065820Y-87510498D01*
X116955506Y-87569463D01*
X116858815Y-87648815D01*
X116779463Y-87745506D01*
X116720498Y-87855820D01*
X116684188Y-87975518D01*
X116671928Y-88100000D01*
X116671928Y-88140000D01*
X111708043Y-88140000D01*
X111604637Y-87985241D01*
X111404759Y-87785363D01*
X111172241Y-87630000D01*
X111404759Y-87474637D01*
X111604637Y-87274759D01*
X111761680Y-87039727D01*
X111869853Y-86778574D01*
X111925000Y-86501335D01*
X111925000Y-86470512D01*
X116669783Y-86470512D01*
X116711213Y-86750130D01*
X116806397Y-87016292D01*
X116873329Y-87141514D01*
X117117298Y-87213097D01*
X117930395Y-86400000D01*
X118289605Y-86400000D01*
X119102702Y-87213097D01*
X119346671Y-87141514D01*
X119467571Y-86886004D01*
X119536300Y-86611816D01*
X119550217Y-86329488D01*
X119508787Y-86049870D01*
X119413603Y-85783708D01*
X119346671Y-85658486D01*
X119102702Y-85586903D01*
X118289605Y-86400000D01*
X117930395Y-86400000D01*
X117117298Y-85586903D01*
X116873329Y-85658486D01*
X116752429Y-85913996D01*
X116683700Y-86188184D01*
X116669783Y-86470512D01*
X111925000Y-86470512D01*
X111925000Y-86218665D01*
X111869853Y-85941426D01*
X111761680Y-85680273D01*
X111604637Y-85445241D01*
X111566694Y-85407298D01*
X117296903Y-85407298D01*
X118110000Y-86220395D01*
X118923097Y-85407298D01*
X118851514Y-85163329D01*
X118596004Y-85042429D01*
X118321816Y-84973700D01*
X118039488Y-84959783D01*
X117759870Y-85001213D01*
X117493708Y-85096397D01*
X117368486Y-85163329D01*
X117296903Y-85407298D01*
X111566694Y-85407298D01*
X111404759Y-85245363D01*
X111169727Y-85088320D01*
X111159135Y-85083933D01*
X111345131Y-84972385D01*
X111553519Y-84783414D01*
X111721037Y-84557420D01*
X111841246Y-84303087D01*
X111881904Y-84169039D01*
X111759915Y-83947000D01*
X110617000Y-83947000D01*
X110617000Y-83967000D01*
X110363000Y-83967000D01*
X110363000Y-83947000D01*
X109220085Y-83947000D01*
X109098096Y-84169039D01*
X109138754Y-84303087D01*
X109258963Y-84557420D01*
X109426481Y-84783414D01*
X109634869Y-84972385D01*
X109820865Y-85083933D01*
X109810273Y-85088320D01*
X109575241Y-85245363D01*
X109375363Y-85445241D01*
X109218320Y-85680273D01*
X109110147Y-85941426D01*
X109055000Y-86218665D01*
X109055000Y-86501335D01*
X109110147Y-86778574D01*
X109218320Y-87039727D01*
X109375363Y-87274759D01*
X109575241Y-87474637D01*
X109807759Y-87630000D01*
X109575241Y-87785363D01*
X109375363Y-87985241D01*
X109271957Y-88140000D01*
X106994802Y-88140000D01*
X106170000Y-87315199D01*
X106170000Y-85127322D01*
X106173676Y-85089999D01*
X106170000Y-85052676D01*
X106170000Y-85052667D01*
X106159003Y-84941014D01*
X106115546Y-84797753D01*
X106044975Y-84665725D01*
X106044974Y-84665723D01*
X105973799Y-84578997D01*
X105950001Y-84549999D01*
X105921003Y-84526201D01*
X99623804Y-78229003D01*
X99600001Y-78199999D01*
X99484276Y-78105026D01*
X99352247Y-78034454D01*
X99208986Y-77990997D01*
X99097333Y-77980000D01*
X99097322Y-77980000D01*
X99060000Y-77976324D01*
X99022678Y-77980000D01*
X85127322Y-77980000D01*
X85089999Y-77976324D01*
X85052676Y-77980000D01*
X85052667Y-77980000D01*
X84941014Y-77990997D01*
X84797753Y-78034454D01*
X84665724Y-78105026D01*
X84549999Y-78199999D01*
X84526201Y-78228997D01*
X83308998Y-79446201D01*
X83280000Y-79469999D01*
X83256202Y-79498997D01*
X83256201Y-79498998D01*
X83185026Y-79585724D01*
X83114454Y-79717754D01*
X83070998Y-79861015D01*
X83056324Y-80010000D01*
X83060001Y-80047332D01*
X83060000Y-91402667D01*
X83056323Y-91440000D01*
X81407000Y-91440000D01*
X81407000Y-76327000D01*
X142113000Y-76327000D01*
X142113000Y-124333000D01*
G04 #@! TA.AperFunction,Conductor*
D22*
G36*
X142113000Y-124333000D02*
G01*
X81407000Y-124333000D01*
X81407000Y-114720000D01*
X84871928Y-114720000D01*
X84875000Y-115284250D01*
X85033750Y-115443000D01*
X86233000Y-115443000D01*
X86233000Y-114243750D01*
X86487000Y-114243750D01*
X86487000Y-115443000D01*
X87686250Y-115443000D01*
X87845000Y-115284250D01*
X87848072Y-114720000D01*
X87835812Y-114595518D01*
X87799502Y-114475820D01*
X87740537Y-114365506D01*
X87661185Y-114268815D01*
X87564494Y-114189463D01*
X87454180Y-114130498D01*
X87334482Y-114094188D01*
X87210000Y-114081928D01*
X86645750Y-114085000D01*
X86487000Y-114243750D01*
X86233000Y-114243750D01*
X86074250Y-114085000D01*
X85510000Y-114081928D01*
X85385518Y-114094188D01*
X85265820Y-114130498D01*
X85155506Y-114189463D01*
X85058815Y-114268815D01*
X84979463Y-114365506D01*
X84920498Y-114475820D01*
X84884188Y-114595518D01*
X84871928Y-114720000D01*
X81407000Y-114720000D01*
X81407000Y-102020000D01*
X84871928Y-102020000D01*
X84875000Y-102584250D01*
X85033750Y-102743000D01*
X86233000Y-102743000D01*
X86233000Y-101543750D01*
X86487000Y-101543750D01*
X86487000Y-102743000D01*
X87686250Y-102743000D01*
X87845000Y-102584250D01*
X87848072Y-102020000D01*
X87835812Y-101895518D01*
X87799502Y-101775820D01*
X87740537Y-101665506D01*
X87661185Y-101568815D01*
X87564494Y-101489463D01*
X87454180Y-101430498D01*
X87334482Y-101394188D01*
X87210000Y-101381928D01*
X86645750Y-101385000D01*
X86487000Y-101543750D01*
X86233000Y-101543750D01*
X86074250Y-101385000D01*
X85510000Y-101381928D01*
X85385518Y-101394188D01*
X85265820Y-101430498D01*
X85155506Y-101489463D01*
X85058815Y-101568815D01*
X84979463Y-101665506D01*
X84920498Y-101775820D01*
X84884188Y-101895518D01*
X84871928Y-102020000D01*
X81407000Y-102020000D01*
X81407000Y-95606890D01*
X84918524Y-95606890D01*
X84963175Y-95754099D01*
X85088359Y-96016920D01*
X85262412Y-96250269D01*
X85478645Y-96445178D01*
X85728748Y-96594157D01*
X86003109Y-96691481D01*
X86233000Y-96570814D01*
X86233000Y-95377000D01*
X86487000Y-95377000D01*
X86487000Y-96570814D01*
X86716891Y-96691481D01*
X86991252Y-96594157D01*
X87241355Y-96445178D01*
X87457588Y-96250269D01*
X87631641Y-96016920D01*
X87756825Y-95754099D01*
X87801476Y-95606890D01*
X87680155Y-95377000D01*
X86487000Y-95377000D01*
X86233000Y-95377000D01*
X85039845Y-95377000D01*
X84918524Y-95606890D01*
X81407000Y-95606890D01*
X81407000Y-91440000D01*
X83056323Y-91440000D01*
X83070997Y-91588986D01*
X83114454Y-91732247D01*
X83185026Y-91864276D01*
X83256201Y-91951003D01*
X83279999Y-91980001D01*
X83395724Y-92074974D01*
X83527753Y-92145546D01*
X83671014Y-92189003D01*
X83820000Y-92203677D01*
X83857333Y-92200000D01*
X84963897Y-92200000D01*
X84932068Y-92276842D01*
X84875000Y-92563740D01*
X84875000Y-92856260D01*
X84932068Y-93143158D01*
X85044010Y-93413411D01*
X85206525Y-93656632D01*
X85413368Y-93863475D01*
X85595534Y-93985195D01*
X85478645Y-94054822D01*
X85262412Y-94249731D01*
X85088359Y-94483080D01*
X84963175Y-94745901D01*
X84918524Y-94893110D01*
X85039845Y-95123000D01*
X86233000Y-95123000D01*
X86233000Y-95103000D01*
X86487000Y-95103000D01*
X86487000Y-95123000D01*
X87680155Y-95123000D01*
X87801476Y-94893110D01*
X87756825Y-94745901D01*
X87631641Y-94483080D01*
X87457588Y-94249731D01*
X87241355Y-94054822D01*
X87124466Y-93985195D01*
X87306632Y-93863475D01*
X87513475Y-93656632D01*
X87675990Y-93413411D01*
X87787932Y-93143158D01*
X87845000Y-92856260D01*
X87845000Y-92563740D01*
X87787932Y-92276842D01*
X87756103Y-92200000D01*
X88140001Y-92200000D01*
X88140000Y-101562678D01*
X88136324Y-101600000D01*
X88140000Y-101637322D01*
X88140000Y-101637332D01*
X88150997Y-101748985D01*
X88194454Y-101892246D01*
X88265026Y-102024276D01*
X88304871Y-102072826D01*
X88359999Y-102140001D01*
X88389003Y-102163804D01*
X89410001Y-103184803D01*
X89410000Y-103825198D01*
X88585199Y-104650000D01*
X87638178Y-104650000D01*
X87513475Y-104463368D01*
X87381620Y-104331513D01*
X87454180Y-104309502D01*
X87564494Y-104250537D01*
X87661185Y-104171185D01*
X87740537Y-104074494D01*
X87799502Y-103964180D01*
X87835812Y-103844482D01*
X87848072Y-103720000D01*
X87845000Y-103155750D01*
X87686250Y-102997000D01*
X86487000Y-102997000D01*
X86487000Y-103017000D01*
X86233000Y-103017000D01*
X86233000Y-102997000D01*
X85033750Y-102997000D01*
X84875000Y-103155750D01*
X84871928Y-103720000D01*
X84884188Y-103844482D01*
X84920498Y-103964180D01*
X84979463Y-104074494D01*
X85058815Y-104171185D01*
X85155506Y-104250537D01*
X85265820Y-104309502D01*
X85338380Y-104331513D01*
X85206525Y-104463368D01*
X85044010Y-104706589D01*
X84932068Y-104976842D01*
X84875000Y-105263740D01*
X84875000Y-105556260D01*
X84932068Y-105843158D01*
X85044010Y-106113411D01*
X85206525Y-106356632D01*
X85413368Y-106563475D01*
X85587760Y-106680000D01*
X85413368Y-106796525D01*
X85206525Y-107003368D01*
X85044010Y-107246589D01*
X84932068Y-107516842D01*
X84875000Y-107803740D01*
X84875000Y-108096260D01*
X84932068Y-108383158D01*
X85044010Y-108653411D01*
X85206525Y-108896632D01*
X85413368Y-109103475D01*
X85656589Y-109265990D01*
X85926842Y-109377932D01*
X86213740Y-109435000D01*
X86506260Y-109435000D01*
X86793158Y-109377932D01*
X87063411Y-109265990D01*
X87306632Y-109103475D01*
X87507653Y-108902454D01*
X88140000Y-109534802D01*
X88140001Y-116080000D01*
X87846221Y-116080000D01*
X87845000Y-115855750D01*
X87686250Y-115697000D01*
X86487000Y-115697000D01*
X86487000Y-115717000D01*
X86233000Y-115717000D01*
X86233000Y-115697000D01*
X85033750Y-115697000D01*
X84875000Y-115855750D01*
X84873779Y-116080000D01*
X83857333Y-116080000D01*
X83820000Y-116076323D01*
X83782667Y-116080000D01*
X83671014Y-116090997D01*
X83527753Y-116134454D01*
X83395724Y-116205026D01*
X83279999Y-116299999D01*
X83185026Y-116415724D01*
X83114454Y-116547753D01*
X83070997Y-116691014D01*
X83056323Y-116840000D01*
X83060000Y-116877332D01*
X83060001Y-119342657D01*
X83056323Y-119380000D01*
X83070997Y-119528986D01*
X83114454Y-119672247D01*
X83185026Y-119804276D01*
X83279999Y-119920001D01*
X83395724Y-120014974D01*
X83527753Y-120085546D01*
X83671014Y-120129003D01*
X83782667Y-120140000D01*
X83820000Y-120143677D01*
X83857333Y-120140000D01*
X84963897Y-120140000D01*
X84932068Y-120216842D01*
X84875000Y-120503740D01*
X84875000Y-120796260D01*
X84932068Y-121083158D01*
X85044010Y-121353411D01*
X85206525Y-121596632D01*
X85413368Y-121803475D01*
X85656589Y-121965990D01*
X85926842Y-122077932D01*
X86213740Y-122135000D01*
X86506260Y-122135000D01*
X86793158Y-122077932D01*
X87063411Y-121965990D01*
X87306632Y-121803475D01*
X87513475Y-121596632D01*
X87638178Y-121410000D01*
X91402678Y-121410000D01*
X91440000Y-121413676D01*
X91477322Y-121410000D01*
X91477333Y-121410000D01*
X91588986Y-121399003D01*
X91732247Y-121355546D01*
X91864276Y-121284974D01*
X91980001Y-121190001D01*
X92003804Y-121160997D01*
X93221003Y-119943799D01*
X93250001Y-119920001D01*
X93344974Y-119804276D01*
X93415546Y-119672247D01*
X93459003Y-119528986D01*
X93470000Y-119417333D01*
X93470000Y-119417324D01*
X93473676Y-119380001D01*
X93470000Y-119342678D01*
X93470000Y-113344801D01*
X94137703Y-112677099D01*
X94335241Y-112874637D01*
X94567759Y-113030000D01*
X94335241Y-113185363D01*
X94135363Y-113385241D01*
X93978320Y-113620273D01*
X93870147Y-113881426D01*
X93815000Y-114158665D01*
X93815000Y-114441335D01*
X93870147Y-114718574D01*
X93978320Y-114979727D01*
X94135363Y-115214759D01*
X94335241Y-115414637D01*
X94567759Y-115570000D01*
X94335241Y-115725363D01*
X94135363Y-115925241D01*
X93978320Y-116160273D01*
X93870147Y-116421426D01*
X93815000Y-116698665D01*
X93815000Y-116981335D01*
X93870147Y-117258574D01*
X93978320Y-117519727D01*
X94135363Y-117754759D01*
X94335241Y-117954637D01*
X94570273Y-118111680D01*
X94831426Y-118219853D01*
X95108665Y-118275000D01*
X95391335Y-118275000D01*
X95668574Y-118219853D01*
X95929727Y-118111680D01*
X96164759Y-117954637D01*
X96364637Y-117754759D01*
X96521680Y-117519727D01*
X96629853Y-117258574D01*
X96685000Y-116981335D01*
X96685000Y-116698665D01*
X96629853Y-116421426D01*
X96521680Y-116160273D01*
X96364637Y-115925241D01*
X96164759Y-115725363D01*
X95932241Y-115570000D01*
X96164759Y-115414637D01*
X96364637Y-115214759D01*
X96521680Y-114979727D01*
X96629853Y-114718574D01*
X96685000Y-114441335D01*
X96685000Y-114158665D01*
X96629853Y-113881426D01*
X96521680Y-113620273D01*
X96364637Y-113385241D01*
X96164759Y-113185363D01*
X95932241Y-113030000D01*
X96164759Y-112874637D01*
X96364637Y-112674759D01*
X96521680Y-112439727D01*
X96629853Y-112178574D01*
X96685000Y-111901335D01*
X96685000Y-111618665D01*
X96629853Y-111341426D01*
X96521680Y-111080273D01*
X96364637Y-110845241D01*
X96164759Y-110645363D01*
X95932241Y-110490000D01*
X96164759Y-110334637D01*
X96364637Y-110134759D01*
X96521680Y-109899727D01*
X96629853Y-109638574D01*
X96685000Y-109361335D01*
X96685000Y-109078665D01*
X96629853Y-108801426D01*
X96521680Y-108540273D01*
X96364637Y-108305241D01*
X96164759Y-108105363D01*
X95932241Y-107950000D01*
X96164759Y-107794637D01*
X96364637Y-107594759D01*
X96468043Y-107440000D01*
X103825199Y-107440000D01*
X104650001Y-108264803D01*
X104650000Y-120612678D01*
X104646324Y-120650000D01*
X104650000Y-120687322D01*
X104650000Y-120687332D01*
X104660997Y-120798985D01*
X104704454Y-120942246D01*
X104775026Y-121074276D01*
X104814871Y-121122826D01*
X104869999Y-121190001D01*
X104899003Y-121213804D01*
X106116201Y-122431003D01*
X106139999Y-122460001D01*
X106255724Y-122554974D01*
X106387753Y-122625546D01*
X106531014Y-122669003D01*
X106642667Y-122680000D01*
X106642676Y-122680000D01*
X106679999Y-122683676D01*
X106717322Y-122680000D01*
X112992678Y-122680000D01*
X113030000Y-122683676D01*
X113067322Y-122680000D01*
X113067333Y-122680000D01*
X113178986Y-122669003D01*
X113322247Y-122625546D01*
X113454276Y-122554974D01*
X113570001Y-122460001D01*
X113593804Y-122430997D01*
X114811003Y-121213799D01*
X114840001Y-121190001D01*
X114934974Y-121074276D01*
X115005546Y-120942247D01*
X115049003Y-120798986D01*
X115055009Y-120738000D01*
X116621928Y-120738000D01*
X116634188Y-120862482D01*
X116670498Y-120982180D01*
X116729463Y-121092494D01*
X116808815Y-121189185D01*
X116905506Y-121268537D01*
X117015820Y-121327502D01*
X117135518Y-121363812D01*
X117260000Y-121376072D01*
X117824250Y-121373000D01*
X117983000Y-121214250D01*
X117983000Y-120015000D01*
X116783750Y-120015000D01*
X116625000Y-120173750D01*
X116621928Y-120738000D01*
X115055009Y-120738000D01*
X115060000Y-120687333D01*
X115060000Y-120687324D01*
X115063676Y-120650001D01*
X115060000Y-120612678D01*
X115060000Y-119038000D01*
X116621928Y-119038000D01*
X116625000Y-119602250D01*
X116783750Y-119761000D01*
X117983000Y-119761000D01*
X117983000Y-118561750D01*
X117824250Y-118403000D01*
X117260000Y-118399928D01*
X117135518Y-118412188D01*
X117015820Y-118448498D01*
X116905506Y-118507463D01*
X116808815Y-118586815D01*
X116729463Y-118683506D01*
X116670498Y-118793820D01*
X116634188Y-118913518D01*
X116621928Y-119038000D01*
X115060000Y-119038000D01*
X115060000Y-118424801D01*
X115884802Y-117600000D01*
X119065199Y-117600000D01*
X119890001Y-118424803D01*
X119890001Y-118609821D01*
X119703368Y-118734525D01*
X119571513Y-118866380D01*
X119549502Y-118793820D01*
X119490537Y-118683506D01*
X119411185Y-118586815D01*
X119314494Y-118507463D01*
X119204180Y-118448498D01*
X119084482Y-118412188D01*
X118960000Y-118399928D01*
X118395750Y-118403000D01*
X118237000Y-118561750D01*
X118237000Y-119761000D01*
X118257000Y-119761000D01*
X118257000Y-120015000D01*
X118237000Y-120015000D01*
X118237000Y-121214250D01*
X118395750Y-121373000D01*
X118960000Y-121376072D01*
X119084482Y-121363812D01*
X119204180Y-121327502D01*
X119314494Y-121268537D01*
X119411185Y-121189185D01*
X119490537Y-121092494D01*
X119549502Y-120982180D01*
X119571513Y-120909620D01*
X119703368Y-121041475D01*
X119946589Y-121203990D01*
X120216842Y-121315932D01*
X120503740Y-121373000D01*
X120796260Y-121373000D01*
X121083158Y-121315932D01*
X121353411Y-121203990D01*
X121596632Y-121041475D01*
X121803475Y-120834632D01*
X121920000Y-120660240D01*
X122036525Y-120834632D01*
X122243368Y-121041475D01*
X122486589Y-121203990D01*
X122756842Y-121315932D01*
X123043740Y-121373000D01*
X123336260Y-121373000D01*
X123623158Y-121315932D01*
X123893411Y-121203990D01*
X124136632Y-121041475D01*
X124343475Y-120834632D01*
X124460000Y-120660240D01*
X124576525Y-120834632D01*
X124783368Y-121041475D01*
X125026589Y-121203990D01*
X125296842Y-121315932D01*
X125583740Y-121373000D01*
X125876260Y-121373000D01*
X126163158Y-121315932D01*
X126433411Y-121203990D01*
X126676632Y-121041475D01*
X126883475Y-120834632D01*
X127006125Y-120651073D01*
X127037322Y-120648000D01*
X127037333Y-120648000D01*
X127148986Y-120637003D01*
X127292247Y-120593546D01*
X127424276Y-120522974D01*
X127540001Y-120428001D01*
X127563804Y-120398997D01*
X130362802Y-117600000D01*
X131099928Y-117600000D01*
X131099928Y-117690000D01*
X131112188Y-117814482D01*
X131148498Y-117934180D01*
X131207463Y-118044494D01*
X131286815Y-118141185D01*
X131383506Y-118220537D01*
X131493820Y-118279502D01*
X131613518Y-118315812D01*
X131738000Y-118328072D01*
X133438000Y-118328072D01*
X133562482Y-118315812D01*
X133682180Y-118279502D01*
X133792494Y-118220537D01*
X133889185Y-118141185D01*
X133968537Y-118044494D01*
X134027502Y-117934180D01*
X134051966Y-117853534D01*
X134127731Y-117937588D01*
X134361080Y-118111641D01*
X134623901Y-118236825D01*
X134771110Y-118281476D01*
X135001000Y-118160155D01*
X135001000Y-116967000D01*
X135255000Y-116967000D01*
X135255000Y-118160155D01*
X135484890Y-118281476D01*
X135632099Y-118236825D01*
X135894920Y-118111641D01*
X136128269Y-117937588D01*
X136323178Y-117721355D01*
X136472157Y-117471252D01*
X136569481Y-117196891D01*
X136448814Y-116967000D01*
X135255000Y-116967000D01*
X135001000Y-116967000D01*
X134981000Y-116967000D01*
X134981000Y-116713000D01*
X135001000Y-116713000D01*
X135001000Y-115519845D01*
X135255000Y-115519845D01*
X135255000Y-116713000D01*
X136448814Y-116713000D01*
X136569481Y-116483109D01*
X136472157Y-116208748D01*
X136323178Y-115958645D01*
X136128269Y-115742412D01*
X135894920Y-115568359D01*
X135632099Y-115443175D01*
X135484890Y-115398524D01*
X135255000Y-115519845D01*
X135001000Y-115519845D01*
X134771110Y-115398524D01*
X134623901Y-115443175D01*
X134361080Y-115568359D01*
X134127731Y-115742412D01*
X134051966Y-115826466D01*
X134027502Y-115745820D01*
X133968537Y-115635506D01*
X133889185Y-115538815D01*
X133792494Y-115459463D01*
X133682180Y-115400498D01*
X133562482Y-115364188D01*
X133438000Y-115351928D01*
X133348000Y-115351928D01*
X133348000Y-110114514D01*
X135327000Y-110114514D01*
X135327000Y-110377486D01*
X135378304Y-110635405D01*
X135478939Y-110878359D01*
X135625038Y-111097013D01*
X135810987Y-111282962D01*
X136029641Y-111429061D01*
X136272595Y-111529696D01*
X136530514Y-111581000D01*
X136793486Y-111581000D01*
X137051405Y-111529696D01*
X137294359Y-111429061D01*
X137513013Y-111282962D01*
X137698962Y-111097013D01*
X137845061Y-110878359D01*
X137945696Y-110635405D01*
X137997000Y-110377486D01*
X137997000Y-110114514D01*
X137945696Y-109856595D01*
X137845061Y-109613641D01*
X137698962Y-109394987D01*
X137513013Y-109209038D01*
X137294359Y-109062939D01*
X137051405Y-108962304D01*
X136793486Y-108911000D01*
X136530514Y-108911000D01*
X136272595Y-108962304D01*
X136029641Y-109062939D01*
X135810987Y-109209038D01*
X135625038Y-109394987D01*
X135478939Y-109613641D01*
X135378304Y-109856595D01*
X135327000Y-110114514D01*
X133348000Y-110114514D01*
X133348000Y-105034514D01*
X135327000Y-105034514D01*
X135327000Y-105297486D01*
X135378304Y-105555405D01*
X135478939Y-105798359D01*
X135625038Y-106017013D01*
X135810987Y-106202962D01*
X136029641Y-106349061D01*
X136272595Y-106449696D01*
X136530514Y-106501000D01*
X136793486Y-106501000D01*
X137051405Y-106449696D01*
X137294359Y-106349061D01*
X137513013Y-106202962D01*
X137698962Y-106017013D01*
X137845061Y-105798359D01*
X137945696Y-105555405D01*
X137997000Y-105297486D01*
X137997000Y-105034514D01*
X137945696Y-104776595D01*
X137845061Y-104533641D01*
X137698962Y-104314987D01*
X137513013Y-104129038D01*
X137294359Y-103982939D01*
X137051405Y-103882304D01*
X136793486Y-103831000D01*
X136530514Y-103831000D01*
X136272595Y-103882304D01*
X136029641Y-103982939D01*
X135810987Y-104129038D01*
X135625038Y-104314987D01*
X135478939Y-104533641D01*
X135378304Y-104776595D01*
X135327000Y-105034514D01*
X133348000Y-105034514D01*
X133348000Y-101637322D01*
X133351676Y-101599999D01*
X133348000Y-101562676D01*
X133348000Y-101562667D01*
X133337003Y-101451014D01*
X133293546Y-101307753D01*
X133222974Y-101175724D01*
X133171467Y-101112962D01*
X133151799Y-101088996D01*
X133151795Y-101088992D01*
X133128001Y-101059999D01*
X133099008Y-101036205D01*
X132007316Y-99944514D01*
X135317000Y-99944514D01*
X135317000Y-100207486D01*
X135368304Y-100465405D01*
X135468939Y-100708359D01*
X135615038Y-100927013D01*
X135800987Y-101112962D01*
X136019641Y-101259061D01*
X136262595Y-101359696D01*
X136520514Y-101411000D01*
X136783486Y-101411000D01*
X137041405Y-101359696D01*
X137284359Y-101259061D01*
X137503013Y-101112962D01*
X137688962Y-100927013D01*
X137835061Y-100708359D01*
X137935696Y-100465405D01*
X137987000Y-100207486D01*
X137987000Y-99944514D01*
X137935696Y-99686595D01*
X137835061Y-99443641D01*
X137688962Y-99224987D01*
X137503013Y-99039038D01*
X137284359Y-98892939D01*
X137041405Y-98792304D01*
X136783486Y-98741000D01*
X136520514Y-98741000D01*
X136262595Y-98792304D01*
X136019641Y-98892939D01*
X135800987Y-99039038D01*
X135615038Y-99224987D01*
X135468939Y-99443641D01*
X135368304Y-99686595D01*
X135317000Y-99944514D01*
X132007316Y-99944514D01*
X131627803Y-99565002D01*
X131604001Y-99535999D01*
X131488276Y-99441026D01*
X131356247Y-99370454D01*
X131212986Y-99326997D01*
X131101333Y-99316000D01*
X131101322Y-99316000D01*
X131064000Y-99312324D01*
X131026678Y-99316000D01*
X130129775Y-99316000D01*
X130068962Y-99224987D01*
X129883013Y-99039038D01*
X129664359Y-98892939D01*
X129421405Y-98792304D01*
X129163486Y-98741000D01*
X128900514Y-98741000D01*
X128642595Y-98792304D01*
X128399641Y-98892939D01*
X128180987Y-99039038D01*
X127995038Y-99224987D01*
X127848939Y-99443641D01*
X127760000Y-99658358D01*
X127760000Y-99374801D01*
X128584802Y-98550000D01*
X139662678Y-98550000D01*
X139700000Y-98553676D01*
X139737322Y-98550000D01*
X139737333Y-98550000D01*
X139848986Y-98539003D01*
X139992247Y-98495546D01*
X140124276Y-98424974D01*
X140240001Y-98330001D01*
X140263804Y-98300997D01*
X141481004Y-97083798D01*
X141510001Y-97060001D01*
X141604974Y-96944276D01*
X141675546Y-96812247D01*
X141719003Y-96668986D01*
X141730000Y-96557333D01*
X141730000Y-96557324D01*
X141733676Y-96520001D01*
X141730000Y-96482678D01*
X141730000Y-82587322D01*
X141733676Y-82549999D01*
X141730000Y-82512676D01*
X141730000Y-82512667D01*
X141719003Y-82401014D01*
X141675546Y-82257753D01*
X141604974Y-82125724D01*
X141510001Y-82009999D01*
X141481003Y-81986201D01*
X140263804Y-80769003D01*
X140240001Y-80739999D01*
X140124276Y-80645026D01*
X139992247Y-80574454D01*
X139848986Y-80530997D01*
X139737333Y-80520000D01*
X139737322Y-80520000D01*
X139700000Y-80516324D01*
X139662678Y-80520000D01*
X125557775Y-80520000D01*
X125496962Y-80428987D01*
X125311013Y-80243038D01*
X125092359Y-80096939D01*
X124849405Y-79996304D01*
X124591486Y-79945000D01*
X124328514Y-79945000D01*
X124070595Y-79996304D01*
X123827641Y-80096939D01*
X123608987Y-80243038D01*
X123423038Y-80428987D01*
X123362225Y-80520000D01*
X111708043Y-80520000D01*
X111604637Y-80365241D01*
X111404759Y-80165363D01*
X111169727Y-80008320D01*
X110908574Y-79900147D01*
X110631335Y-79845000D01*
X110348665Y-79845000D01*
X110071426Y-79900147D01*
X109810273Y-80008320D01*
X109575241Y-80165363D01*
X109375363Y-80365241D01*
X109218320Y-80600273D01*
X109110147Y-80861426D01*
X109055000Y-81138665D01*
X109055000Y-81421335D01*
X109110147Y-81698574D01*
X109218320Y-81959727D01*
X109375363Y-82194759D01*
X109575241Y-82394637D01*
X109810273Y-82551680D01*
X109820865Y-82556067D01*
X109634869Y-82667615D01*
X109426481Y-82856586D01*
X109258963Y-83082580D01*
X109138754Y-83336913D01*
X109098096Y-83470961D01*
X109220085Y-83693000D01*
X110363000Y-83693000D01*
X110363000Y-83673000D01*
X110617000Y-83673000D01*
X110617000Y-83693000D01*
X111759915Y-83693000D01*
X111881904Y-83470961D01*
X111841246Y-83336913D01*
X111721037Y-83082580D01*
X111553519Y-82856586D01*
X111345131Y-82667615D01*
X111159135Y-82556067D01*
X111169727Y-82551680D01*
X111404759Y-82394637D01*
X111604637Y-82194759D01*
X111708043Y-82040000D01*
X123362225Y-82040000D01*
X123423038Y-82131013D01*
X123608987Y-82316962D01*
X123827641Y-82463061D01*
X124070595Y-82563696D01*
X124328514Y-82615000D01*
X124591486Y-82615000D01*
X124849405Y-82563696D01*
X125092359Y-82463061D01*
X125311013Y-82316962D01*
X125496962Y-82131013D01*
X125557775Y-82040000D01*
X139385199Y-82040000D01*
X140210001Y-82864803D01*
X140210000Y-96205198D01*
X139385199Y-97030000D01*
X128307322Y-97030000D01*
X128269999Y-97026324D01*
X128232676Y-97030000D01*
X128232667Y-97030000D01*
X128121014Y-97040997D01*
X127977753Y-97084454D01*
X127845724Y-97155026D01*
X127729999Y-97249999D01*
X127706201Y-97278997D01*
X126488998Y-98496201D01*
X126460000Y-98519999D01*
X126436202Y-98548997D01*
X126436201Y-98548998D01*
X126365026Y-98635724D01*
X126294454Y-98767754D01*
X126264180Y-98867558D01*
X126250998Y-98911014D01*
X126248833Y-98933000D01*
X126236324Y-99060000D01*
X126240001Y-99097332D01*
X126240000Y-109182678D01*
X126236324Y-109220000D01*
X126240000Y-109257322D01*
X126240000Y-109257332D01*
X126250997Y-109368985D01*
X126282344Y-109472323D01*
X126294454Y-109512246D01*
X126365026Y-109644276D01*
X126404871Y-109692826D01*
X126459999Y-109760001D01*
X126489002Y-109783804D01*
X127452201Y-110747003D01*
X127475999Y-110776001D01*
X127504997Y-110799799D01*
X127591723Y-110870974D01*
X127662840Y-110908987D01*
X127723753Y-110941546D01*
X127867014Y-110985003D01*
X127931095Y-110991314D01*
X127995038Y-111087013D01*
X128180987Y-111272962D01*
X128272001Y-111333775D01*
X128272000Y-114493197D01*
X127193199Y-115572000D01*
X123735322Y-115572000D01*
X123697999Y-115568324D01*
X123660676Y-115572000D01*
X123660667Y-115572000D01*
X123549014Y-115582997D01*
X123405753Y-115626454D01*
X123273724Y-115697026D01*
X123157999Y-115791999D01*
X123134200Y-115820998D01*
X122679002Y-116276197D01*
X122649999Y-116299999D01*
X122594871Y-116367174D01*
X122555026Y-116415724D01*
X122520142Y-116480987D01*
X122484454Y-116547754D01*
X122440997Y-116691015D01*
X122430000Y-116802668D01*
X122430000Y-116802678D01*
X122426324Y-116840000D01*
X122430000Y-116877323D01*
X122430001Y-118609821D01*
X122243368Y-118734525D01*
X122036525Y-118941368D01*
X121920000Y-119115760D01*
X121803475Y-118941368D01*
X121596632Y-118734525D01*
X121410000Y-118609822D01*
X121410000Y-118147322D01*
X121413676Y-118109999D01*
X121410000Y-118072676D01*
X121410000Y-118072667D01*
X121399003Y-117961014D01*
X121355546Y-117817753D01*
X121284974Y-117685724D01*
X121190001Y-117569999D01*
X121161003Y-117546201D01*
X119943804Y-116329003D01*
X119920001Y-116299999D01*
X119804276Y-116205026D01*
X119672247Y-116134454D01*
X119528986Y-116090997D01*
X119417333Y-116080000D01*
X119417322Y-116080000D01*
X119380000Y-116076324D01*
X119342678Y-116080000D01*
X115607322Y-116080000D01*
X115569999Y-116076324D01*
X115532676Y-116080000D01*
X115532667Y-116080000D01*
X115421014Y-116090997D01*
X115277753Y-116134454D01*
X115145724Y-116205026D01*
X115029999Y-116299999D01*
X115006201Y-116328997D01*
X113790000Y-117545199D01*
X113790000Y-115884801D01*
X114614802Y-115060000D01*
X116802678Y-115060000D01*
X116840000Y-115063676D01*
X116877322Y-115060000D01*
X116877333Y-115060000D01*
X116988986Y-115049003D01*
X117132247Y-115005546D01*
X117264276Y-114934974D01*
X117380001Y-114840001D01*
X117403804Y-114810997D01*
X118621003Y-113593799D01*
X118650001Y-113570001D01*
X118744974Y-113454276D01*
X118815546Y-113322247D01*
X118859003Y-113178986D01*
X118870000Y-113067333D01*
X118870000Y-113067324D01*
X118873676Y-113030001D01*
X118870000Y-112992678D01*
X118870000Y-112093329D01*
X121643284Y-112093329D01*
X121675953Y-112201044D01*
X121786208Y-112438392D01*
X121940649Y-112649670D01*
X122133340Y-112826759D01*
X122356877Y-112962853D01*
X122602670Y-113052722D01*
X122809000Y-112930201D01*
X122809000Y-111887000D01*
X123063000Y-111887000D01*
X123063000Y-112930201D01*
X123269330Y-113052722D01*
X123515123Y-112962853D01*
X123738660Y-112826759D01*
X123931351Y-112649670D01*
X124085792Y-112438392D01*
X124196047Y-112201044D01*
X124228716Y-112093329D01*
X124105374Y-111887000D01*
X123063000Y-111887000D01*
X122809000Y-111887000D01*
X121766626Y-111887000D01*
X121643284Y-112093329D01*
X118870000Y-112093329D01*
X118870000Y-111426671D01*
X121643284Y-111426671D01*
X121766626Y-111633000D01*
X122809000Y-111633000D01*
X122809000Y-110589799D01*
X123063000Y-110589799D01*
X123063000Y-111633000D01*
X124105374Y-111633000D01*
X124228716Y-111426671D01*
X124196047Y-111318956D01*
X124085792Y-111081608D01*
X123931351Y-110870330D01*
X123738660Y-110693241D01*
X123515123Y-110557147D01*
X123269330Y-110467278D01*
X123063000Y-110589799D01*
X122809000Y-110589799D01*
X122602670Y-110467278D01*
X122356877Y-110557147D01*
X122133340Y-110693241D01*
X121940649Y-110870330D01*
X121786208Y-111081608D01*
X121675953Y-111318956D01*
X121643284Y-111426671D01*
X118870000Y-111426671D01*
X118870000Y-107987322D01*
X118873676Y-107949999D01*
X118870000Y-107912676D01*
X118870000Y-107912667D01*
X118859003Y-107801014D01*
X118815546Y-107657753D01*
X118744974Y-107525724D01*
X118650001Y-107409999D01*
X118621003Y-107386201D01*
X117403804Y-106169003D01*
X117380001Y-106139999D01*
X117264276Y-106045026D01*
X117132247Y-105974454D01*
X116988986Y-105930997D01*
X116877333Y-105920000D01*
X116877322Y-105920000D01*
X116840000Y-105916324D01*
X116802678Y-105920000D01*
X116413775Y-105920000D01*
X116352962Y-105828987D01*
X116167013Y-105643038D01*
X115948359Y-105496939D01*
X115705405Y-105396304D01*
X115447486Y-105345000D01*
X115184514Y-105345000D01*
X114926595Y-105396304D01*
X114683641Y-105496939D01*
X114464987Y-105643038D01*
X114279038Y-105828987D01*
X114132939Y-106047641D01*
X114032304Y-106290595D01*
X113981000Y-106548514D01*
X113981000Y-106811486D01*
X114032304Y-107069405D01*
X114132939Y-107312359D01*
X114279038Y-107531013D01*
X114464987Y-107716962D01*
X114683641Y-107863061D01*
X114926595Y-107963696D01*
X115184514Y-108015000D01*
X115447486Y-108015000D01*
X115705405Y-107963696D01*
X115948359Y-107863061D01*
X116167013Y-107716962D01*
X116352962Y-107531013D01*
X116413775Y-107440000D01*
X116525199Y-107440000D01*
X117350000Y-108264802D01*
X117350001Y-112715197D01*
X116525199Y-113540000D01*
X114337322Y-113540000D01*
X114299999Y-113536324D01*
X114262676Y-113540000D01*
X114262667Y-113540000D01*
X114151014Y-113550997D01*
X114007753Y-113594454D01*
X113875724Y-113665026D01*
X113759999Y-113759999D01*
X113736201Y-113788997D01*
X112519003Y-115006196D01*
X112489999Y-115029999D01*
X112434871Y-115097174D01*
X112395026Y-115145724D01*
X112358126Y-115214759D01*
X112324454Y-115277754D01*
X112280997Y-115421015D01*
X112270000Y-115532668D01*
X112270000Y-115532678D01*
X112266324Y-115570000D01*
X112270000Y-115607323D01*
X112270001Y-119065197D01*
X111445199Y-119890000D01*
X108264802Y-119890000D01*
X107440000Y-119065199D01*
X107440000Y-97827322D01*
X107443676Y-97789999D01*
X107440000Y-97752676D01*
X107440000Y-97752667D01*
X107429003Y-97641014D01*
X107385546Y-97497753D01*
X107314974Y-97365724D01*
X107220001Y-97249999D01*
X107191003Y-97226201D01*
X105973804Y-96009003D01*
X105950001Y-95979999D01*
X105834276Y-95885026D01*
X105702247Y-95814454D01*
X105558986Y-95770997D01*
X105447333Y-95760000D01*
X105447322Y-95760000D01*
X105410000Y-95756324D01*
X105372678Y-95760000D01*
X96468043Y-95760000D01*
X96364637Y-95605241D01*
X96164759Y-95405363D01*
X95932241Y-95250000D01*
X96164759Y-95094637D01*
X96364637Y-94894759D01*
X96521680Y-94659727D01*
X96629853Y-94398574D01*
X96685000Y-94121335D01*
X96685000Y-93838665D01*
X96629853Y-93561426D01*
X96521680Y-93300273D01*
X96364637Y-93065241D01*
X96164759Y-92865363D01*
X95932241Y-92710000D01*
X96164759Y-92554637D01*
X96364637Y-92354759D01*
X96521680Y-92119727D01*
X96629853Y-91858574D01*
X96685000Y-91581335D01*
X96685000Y-91298665D01*
X96629853Y-91021426D01*
X96521680Y-90760273D01*
X96364637Y-90525241D01*
X96164759Y-90325363D01*
X95932241Y-90170000D01*
X96164759Y-90014637D01*
X96364637Y-89814759D01*
X96521680Y-89579727D01*
X96629853Y-89318574D01*
X96685000Y-89041335D01*
X96685000Y-88758665D01*
X96629853Y-88481426D01*
X96521680Y-88220273D01*
X96364637Y-87985241D01*
X96164759Y-87785363D01*
X95932241Y-87630000D01*
X96164759Y-87474637D01*
X96364637Y-87274759D01*
X96521680Y-87039727D01*
X96629853Y-86778574D01*
X96685000Y-86501335D01*
X96685000Y-86218665D01*
X96629853Y-85941426D01*
X96521680Y-85680273D01*
X96364637Y-85445241D01*
X96164759Y-85245363D01*
X95932241Y-85090000D01*
X96164759Y-84934637D01*
X96364637Y-84734759D01*
X96521680Y-84499727D01*
X96629853Y-84238574D01*
X96685000Y-83961335D01*
X96685000Y-83678665D01*
X96629853Y-83401426D01*
X96521680Y-83140273D01*
X96364637Y-82905241D01*
X96166039Y-82706643D01*
X96174482Y-82705812D01*
X96294180Y-82669502D01*
X96404494Y-82610537D01*
X96501185Y-82531185D01*
X96580537Y-82434494D01*
X96639502Y-82324180D01*
X96675812Y-82204482D01*
X96688072Y-82080000D01*
X96688072Y-80480000D01*
X96675812Y-80355518D01*
X96639502Y-80235820D01*
X96580537Y-80125506D01*
X96501185Y-80028815D01*
X96404494Y-79949463D01*
X96294180Y-79890498D01*
X96174482Y-79854188D01*
X96050000Y-79841928D01*
X94450000Y-79841928D01*
X94325518Y-79854188D01*
X94205820Y-79890498D01*
X94095506Y-79949463D01*
X93998815Y-80028815D01*
X93919463Y-80125506D01*
X93860498Y-80235820D01*
X93824188Y-80355518D01*
X93811928Y-80480000D01*
X93811928Y-82080000D01*
X93824188Y-82204482D01*
X93860498Y-82324180D01*
X93919463Y-82434494D01*
X93998815Y-82531185D01*
X94095506Y-82610537D01*
X94205820Y-82669502D01*
X94325518Y-82705812D01*
X94333961Y-82706643D01*
X94135363Y-82905241D01*
X93978320Y-83140273D01*
X93870147Y-83401426D01*
X93815000Y-83678665D01*
X93815000Y-83961335D01*
X93870147Y-84238574D01*
X93978320Y-84499727D01*
X94135363Y-84734759D01*
X94335241Y-84934637D01*
X94567759Y-85090000D01*
X94335241Y-85245363D01*
X94135363Y-85445241D01*
X93978320Y-85680273D01*
X93870147Y-85941426D01*
X93815000Y-86218665D01*
X93815000Y-86501335D01*
X93870147Y-86778574D01*
X93978320Y-87039727D01*
X94135363Y-87274759D01*
X94335241Y-87474637D01*
X94567759Y-87630000D01*
X94335241Y-87785363D01*
X94135363Y-87985241D01*
X93978320Y-88220273D01*
X93870147Y-88481426D01*
X93815000Y-88758665D01*
X93815000Y-89041335D01*
X93870147Y-89318574D01*
X93978320Y-89579727D01*
X94135363Y-89814759D01*
X94335241Y-90014637D01*
X94567759Y-90170000D01*
X94335241Y-90325363D01*
X94135363Y-90525241D01*
X93978320Y-90760273D01*
X93870147Y-91021426D01*
X93815000Y-91298665D01*
X93815000Y-91581335D01*
X93870147Y-91858574D01*
X93978320Y-92119727D01*
X94135363Y-92354759D01*
X94335241Y-92554637D01*
X94567759Y-92710000D01*
X94335241Y-92865363D01*
X94135363Y-93065241D01*
X93978320Y-93300273D01*
X93870147Y-93561426D01*
X93815000Y-93838665D01*
X93815000Y-94121335D01*
X93870147Y-94398574D01*
X93978320Y-94659727D01*
X94135363Y-94894759D01*
X94335241Y-95094637D01*
X94567759Y-95250000D01*
X94335241Y-95405363D01*
X94135363Y-95605241D01*
X93978320Y-95840273D01*
X93870147Y-96101426D01*
X93815000Y-96378665D01*
X93815000Y-96661335D01*
X93870147Y-96938574D01*
X93978320Y-97199727D01*
X94135363Y-97434759D01*
X94335241Y-97634637D01*
X94567759Y-97790000D01*
X94335241Y-97945363D01*
X94137703Y-98142901D01*
X93470000Y-97475199D01*
X93470000Y-86397322D01*
X93473676Y-86359999D01*
X93470000Y-86322676D01*
X93470000Y-86322667D01*
X93459003Y-86211014D01*
X93415546Y-86067753D01*
X93344974Y-85935724D01*
X93250001Y-85819999D01*
X93221003Y-85796201D01*
X92003804Y-84579003D01*
X91980001Y-84549999D01*
X91864276Y-84455026D01*
X91732247Y-84384454D01*
X91588986Y-84340997D01*
X91477333Y-84330000D01*
X91477322Y-84330000D01*
X91440000Y-84326324D01*
X91402678Y-84330000D01*
X87848072Y-84330000D01*
X87848072Y-84240000D01*
X87835812Y-84115518D01*
X87799502Y-83995820D01*
X87740537Y-83885506D01*
X87661185Y-83788815D01*
X87564494Y-83709463D01*
X87454180Y-83650498D01*
X87334482Y-83614188D01*
X87210000Y-83601928D01*
X85510000Y-83601928D01*
X85385518Y-83614188D01*
X85265820Y-83650498D01*
X85155506Y-83709463D01*
X85058815Y-83788815D01*
X84979463Y-83885506D01*
X84920498Y-83995820D01*
X84884188Y-84115518D01*
X84871928Y-84240000D01*
X84871928Y-85940000D01*
X84884188Y-86064482D01*
X84920498Y-86184180D01*
X84979463Y-86294494D01*
X85058815Y-86391185D01*
X85155506Y-86470537D01*
X85265820Y-86529502D01*
X85338380Y-86551513D01*
X85206525Y-86683368D01*
X85044010Y-86926589D01*
X84932068Y-87196842D01*
X84875000Y-87483740D01*
X84875000Y-87776260D01*
X84932068Y-88063158D01*
X85044010Y-88333411D01*
X85206525Y-88576632D01*
X85413368Y-88783475D01*
X85587760Y-88900000D01*
X85413368Y-89016525D01*
X85206525Y-89223368D01*
X85044010Y-89466589D01*
X84932068Y-89736842D01*
X84875000Y-90023740D01*
X84875000Y-90316260D01*
X84932068Y-90603158D01*
X84963897Y-90680000D01*
X84580000Y-90680000D01*
X84580000Y-80324801D01*
X85404802Y-79500000D01*
X98745199Y-79500000D01*
X104650000Y-85404802D01*
X104650001Y-87592668D01*
X104646324Y-87630000D01*
X104650001Y-87667333D01*
X104660998Y-87778986D01*
X104674180Y-87822442D01*
X104704454Y-87922246D01*
X104775026Y-88054276D01*
X104842361Y-88136323D01*
X104870000Y-88170001D01*
X104898998Y-88193799D01*
X106116201Y-89411003D01*
X106139999Y-89440001D01*
X106255724Y-89534974D01*
X106387753Y-89605546D01*
X106531014Y-89649003D01*
X106642667Y-89660000D01*
X106642676Y-89660000D01*
X106679999Y-89663676D01*
X106717322Y-89660000D01*
X109271957Y-89660000D01*
X109375363Y-89814759D01*
X109575241Y-90014637D01*
X109807759Y-90170000D01*
X109575241Y-90325363D01*
X109375363Y-90525241D01*
X109218320Y-90760273D01*
X109110147Y-91021426D01*
X109055000Y-91298665D01*
X109055000Y-91581335D01*
X109110147Y-91858574D01*
X109218320Y-92119727D01*
X109375363Y-92354759D01*
X109575241Y-92554637D01*
X109807759Y-92710000D01*
X109575241Y-92865363D01*
X109375363Y-93065241D01*
X109218320Y-93300273D01*
X109110147Y-93561426D01*
X109055000Y-93838665D01*
X109055000Y-94121335D01*
X109110147Y-94398574D01*
X109218320Y-94659727D01*
X109375363Y-94894759D01*
X109575241Y-95094637D01*
X109807759Y-95250000D01*
X109575241Y-95405363D01*
X109375363Y-95605241D01*
X109218320Y-95840273D01*
X109110147Y-96101426D01*
X109055000Y-96378665D01*
X109055000Y-96661335D01*
X109110147Y-96938574D01*
X109218320Y-97199727D01*
X109375363Y-97434759D01*
X109575241Y-97634637D01*
X109807759Y-97790000D01*
X109575241Y-97945363D01*
X109375363Y-98145241D01*
X109218320Y-98380273D01*
X109110147Y-98641426D01*
X109055000Y-98918665D01*
X109055000Y-99201335D01*
X109110147Y-99478574D01*
X109218320Y-99739727D01*
X109375363Y-99974759D01*
X109575241Y-100174637D01*
X109807759Y-100330000D01*
X109575241Y-100485363D01*
X109375363Y-100685241D01*
X109218320Y-100920273D01*
X109110147Y-101181426D01*
X109055000Y-101458665D01*
X109055000Y-101741335D01*
X109110147Y-102018574D01*
X109218320Y-102279727D01*
X109375363Y-102514759D01*
X109575241Y-102714637D01*
X109807759Y-102870000D01*
X109575241Y-103025363D01*
X109375363Y-103225241D01*
X109218320Y-103460273D01*
X109110147Y-103721426D01*
X109055000Y-103998665D01*
X109055000Y-104281335D01*
X109110147Y-104558574D01*
X109218320Y-104819727D01*
X109375363Y-105054759D01*
X109575241Y-105254637D01*
X109807759Y-105410000D01*
X109575241Y-105565363D01*
X109375363Y-105765241D01*
X109218320Y-106000273D01*
X109110147Y-106261426D01*
X109055000Y-106538665D01*
X109055000Y-106821335D01*
X109110147Y-107098574D01*
X109218320Y-107359727D01*
X109375363Y-107594759D01*
X109575241Y-107794637D01*
X109807759Y-107950000D01*
X109575241Y-108105363D01*
X109375363Y-108305241D01*
X109218320Y-108540273D01*
X109110147Y-108801426D01*
X109055000Y-109078665D01*
X109055000Y-109361335D01*
X109110147Y-109638574D01*
X109218320Y-109899727D01*
X109375363Y-110134759D01*
X109575241Y-110334637D01*
X109807759Y-110490000D01*
X109575241Y-110645363D01*
X109375363Y-110845241D01*
X109218320Y-111080273D01*
X109110147Y-111341426D01*
X109055000Y-111618665D01*
X109055000Y-111901335D01*
X109110147Y-112178574D01*
X109218320Y-112439727D01*
X109375363Y-112674759D01*
X109575241Y-112874637D01*
X109807759Y-113030000D01*
X109575241Y-113185363D01*
X109375363Y-113385241D01*
X109218320Y-113620273D01*
X109110147Y-113881426D01*
X109055000Y-114158665D01*
X109055000Y-114441335D01*
X109110147Y-114718574D01*
X109218320Y-114979727D01*
X109375363Y-115214759D01*
X109575241Y-115414637D01*
X109807759Y-115570000D01*
X109575241Y-115725363D01*
X109375363Y-115925241D01*
X109218320Y-116160273D01*
X109110147Y-116421426D01*
X109055000Y-116698665D01*
X109055000Y-116981335D01*
X109110147Y-117258574D01*
X109218320Y-117519727D01*
X109375363Y-117754759D01*
X109575241Y-117954637D01*
X109810273Y-118111680D01*
X110071426Y-118219853D01*
X110348665Y-118275000D01*
X110631335Y-118275000D01*
X110908574Y-118219853D01*
X111169727Y-118111680D01*
X111404759Y-117954637D01*
X111604637Y-117754759D01*
X111761680Y-117519727D01*
X111869853Y-117258574D01*
X111925000Y-116981335D01*
X111925000Y-116698665D01*
X111869853Y-116421426D01*
X111761680Y-116160273D01*
X111604637Y-115925241D01*
X111404759Y-115725363D01*
X111172241Y-115570000D01*
X111404759Y-115414637D01*
X111604637Y-115214759D01*
X111761680Y-114979727D01*
X111869853Y-114718574D01*
X111925000Y-114441335D01*
X111925000Y-114158665D01*
X111869853Y-113881426D01*
X111761680Y-113620273D01*
X111604637Y-113385241D01*
X111404759Y-113185363D01*
X111172241Y-113030000D01*
X111404759Y-112874637D01*
X111604637Y-112674759D01*
X111761680Y-112439727D01*
X111869853Y-112178574D01*
X111925000Y-111901335D01*
X111925000Y-111618665D01*
X111869853Y-111341426D01*
X111761680Y-111080273D01*
X111604637Y-110845241D01*
X111404759Y-110645363D01*
X111172241Y-110490000D01*
X111404759Y-110334637D01*
X111604637Y-110134759D01*
X111708043Y-109980000D01*
X113985199Y-109980000D01*
X114556001Y-110550803D01*
X114556001Y-110662225D01*
X114464987Y-110723038D01*
X114279038Y-110908987D01*
X114132939Y-111127641D01*
X114032304Y-111370595D01*
X113981000Y-111628514D01*
X113981000Y-111891486D01*
X114032304Y-112149405D01*
X114132939Y-112392359D01*
X114279038Y-112611013D01*
X114464987Y-112796962D01*
X114683641Y-112943061D01*
X114926595Y-113043696D01*
X115184514Y-113095000D01*
X115447486Y-113095000D01*
X115705405Y-113043696D01*
X115948359Y-112943061D01*
X116167013Y-112796962D01*
X116352962Y-112611013D01*
X116499061Y-112392359D01*
X116599696Y-112149405D01*
X116651000Y-111891486D01*
X116651000Y-111628514D01*
X116599696Y-111370595D01*
X116499061Y-111127641D01*
X116352962Y-110908987D01*
X116167013Y-110723038D01*
X116076000Y-110662225D01*
X116076000Y-110273322D01*
X116079676Y-110236000D01*
X116076000Y-110198677D01*
X116076000Y-110198667D01*
X116065003Y-110087014D01*
X116021546Y-109943753D01*
X115998013Y-109899727D01*
X115950974Y-109811723D01*
X115879799Y-109724997D01*
X115856001Y-109695999D01*
X115827003Y-109672201D01*
X114863804Y-108709002D01*
X114840001Y-108679999D01*
X114724276Y-108585026D01*
X114592247Y-108514454D01*
X114448986Y-108470997D01*
X114337333Y-108460000D01*
X114337322Y-108460000D01*
X114300000Y-108456324D01*
X114262678Y-108460000D01*
X112324802Y-108460000D01*
X113541008Y-107243795D01*
X113570001Y-107220001D01*
X113593795Y-107191008D01*
X113593799Y-107191004D01*
X113664973Y-107104277D01*
X113664974Y-107104276D01*
X113735546Y-106972247D01*
X113779003Y-106828986D01*
X113790000Y-106717333D01*
X113790000Y-106717324D01*
X113793676Y-106680001D01*
X113790000Y-106642678D01*
X113790000Y-99381681D01*
X117129087Y-99381681D01*
X117176554Y-99620263D01*
X117269654Y-99845000D01*
X117404809Y-100047256D01*
X117576826Y-100219258D01*
X117779093Y-100354396D01*
X118003838Y-100447477D01*
X118046391Y-100453462D01*
X118237000Y-100328731D01*
X118237000Y-99187000D01*
X118491000Y-99187000D01*
X118491000Y-100328731D01*
X118681609Y-100453462D01*
X118724162Y-100447477D01*
X118948907Y-100354396D01*
X119151174Y-100219258D01*
X119323191Y-100047256D01*
X119458346Y-99845000D01*
X119551446Y-99620263D01*
X119598913Y-99381681D01*
X119443994Y-99187000D01*
X118491000Y-99187000D01*
X118237000Y-99187000D01*
X117284006Y-99187000D01*
X117129087Y-99381681D01*
X113790000Y-99381681D01*
X113790000Y-96398363D01*
X117129000Y-96398363D01*
X117129000Y-96641637D01*
X117176460Y-96880236D01*
X117269557Y-97104992D01*
X117404713Y-97307267D01*
X117576733Y-97479287D01*
X117779008Y-97614443D01*
X117961529Y-97690046D01*
X117779093Y-97765604D01*
X117576826Y-97900742D01*
X117404809Y-98072744D01*
X117269654Y-98275000D01*
X117176554Y-98499737D01*
X117129087Y-98738319D01*
X117284006Y-98933000D01*
X118237000Y-98933000D01*
X118237000Y-98913000D01*
X118491000Y-98913000D01*
X118491000Y-98933000D01*
X119166235Y-98933000D01*
X119273764Y-98977540D01*
X119512363Y-99025000D01*
X119755637Y-99025000D01*
X119994236Y-98977540D01*
X120218992Y-98884443D01*
X120421267Y-98749287D01*
X120593287Y-98577267D01*
X120611506Y-98550000D01*
X121859199Y-98550000D01*
X122176000Y-98866802D01*
X122176000Y-99276668D01*
X122176001Y-105582225D01*
X122084987Y-105643038D01*
X121899038Y-105828987D01*
X121752939Y-106047641D01*
X121652304Y-106290595D01*
X121601000Y-106548514D01*
X121601000Y-106811486D01*
X121652304Y-107069405D01*
X121752939Y-107312359D01*
X121899038Y-107531013D01*
X122084987Y-107716962D01*
X122303641Y-107863061D01*
X122546595Y-107963696D01*
X122804514Y-108015000D01*
X123067486Y-108015000D01*
X123325405Y-107963696D01*
X123568359Y-107863061D01*
X123787013Y-107716962D01*
X123972962Y-107531013D01*
X124119061Y-107312359D01*
X124219696Y-107069405D01*
X124271000Y-106811486D01*
X124271000Y-106548514D01*
X124219696Y-106290595D01*
X124119061Y-106047641D01*
X123972962Y-105828987D01*
X123787013Y-105643038D01*
X123696000Y-105582225D01*
X123696000Y-98589325D01*
X123699676Y-98552000D01*
X123696000Y-98514675D01*
X123696000Y-98514667D01*
X123685003Y-98403014D01*
X123641546Y-98259753D01*
X123570974Y-98127724D01*
X123476001Y-98011999D01*
X123447004Y-97988202D01*
X122737803Y-97279002D01*
X122714001Y-97249999D01*
X122598276Y-97155026D01*
X122466247Y-97084454D01*
X122322986Y-97040997D01*
X122211333Y-97030000D01*
X122211322Y-97030000D01*
X122174000Y-97026324D01*
X122136678Y-97030000D01*
X120611506Y-97030000D01*
X120593287Y-97002733D01*
X120421267Y-96830713D01*
X120218992Y-96695557D01*
X119994236Y-96602460D01*
X119755637Y-96555000D01*
X119599000Y-96555000D01*
X119599000Y-96398363D01*
X119592602Y-96366199D01*
X119948802Y-96010000D01*
X135852678Y-96010000D01*
X135890000Y-96013676D01*
X135927322Y-96010000D01*
X135927333Y-96010000D01*
X136038986Y-95999003D01*
X136182247Y-95955546D01*
X136314276Y-95884974D01*
X136430001Y-95790001D01*
X136453803Y-95760998D01*
X137163004Y-95051798D01*
X137192001Y-95028001D01*
X137286974Y-94912276D01*
X137357546Y-94780247D01*
X137401003Y-94636986D01*
X137412000Y-94525333D01*
X137412000Y-94525325D01*
X137415676Y-94488000D01*
X137412000Y-94450675D01*
X137412000Y-93553775D01*
X137503013Y-93492962D01*
X137688962Y-93307013D01*
X137835061Y-93088359D01*
X137935696Y-92845405D01*
X137987000Y-92587486D01*
X137987000Y-92324514D01*
X137935696Y-92066595D01*
X137916549Y-92020370D01*
X137920000Y-91985333D01*
X137920000Y-91985324D01*
X137923676Y-91948001D01*
X137920000Y-91910678D01*
X137920000Y-87578043D01*
X138074759Y-87474637D01*
X138274637Y-87274759D01*
X138431680Y-87039727D01*
X138539853Y-86778574D01*
X138595000Y-86501335D01*
X138595000Y-86218665D01*
X138539853Y-85941426D01*
X138431680Y-85680273D01*
X138274637Y-85445241D01*
X138074759Y-85245363D01*
X137839727Y-85088320D01*
X137578574Y-84980147D01*
X137301335Y-84925000D01*
X137018665Y-84925000D01*
X136741426Y-84980147D01*
X136480273Y-85088320D01*
X136245241Y-85245363D01*
X136045363Y-85445241D01*
X135888320Y-85680273D01*
X135780147Y-85941426D01*
X135725000Y-86218665D01*
X135725000Y-86501335D01*
X135780147Y-86778574D01*
X135888320Y-87039727D01*
X136045363Y-87274759D01*
X136245241Y-87474637D01*
X136400000Y-87578044D01*
X136400001Y-91144972D01*
X136262595Y-91172304D01*
X136019641Y-91272939D01*
X135800987Y-91419038D01*
X135615038Y-91604987D01*
X135468939Y-91823641D01*
X135368304Y-92066595D01*
X135317000Y-92324514D01*
X135317000Y-92587486D01*
X135368304Y-92845405D01*
X135468939Y-93088359D01*
X135615038Y-93307013D01*
X135800987Y-93492962D01*
X135892000Y-93553775D01*
X135892000Y-94173198D01*
X135575199Y-94490000D01*
X119671322Y-94490000D01*
X119633999Y-94486324D01*
X119596676Y-94490000D01*
X119596667Y-94490000D01*
X119485014Y-94500997D01*
X119341753Y-94544454D01*
X119209724Y-94615026D01*
X119093999Y-94709999D01*
X119070201Y-94738997D01*
X118517801Y-95291398D01*
X118485637Y-95285000D01*
X118242363Y-95285000D01*
X118003764Y-95332460D01*
X117779008Y-95425557D01*
X117576733Y-95560713D01*
X117404713Y-95732733D01*
X117269557Y-95935008D01*
X117176460Y-96159764D01*
X117129000Y-96398363D01*
X113790000Y-96398363D01*
X113790000Y-93024801D01*
X114614802Y-92200000D01*
X120612678Y-92200000D01*
X120650000Y-92203676D01*
X120687322Y-92200000D01*
X120687333Y-92200000D01*
X120798986Y-92189003D01*
X120942247Y-92145546D01*
X121074276Y-92074974D01*
X121190001Y-91980001D01*
X121213804Y-91950997D01*
X123419334Y-89745469D01*
X123423038Y-89751013D01*
X123608987Y-89936962D01*
X123827641Y-90083061D01*
X124070595Y-90183696D01*
X124328514Y-90235000D01*
X124591486Y-90235000D01*
X124849405Y-90183696D01*
X125092359Y-90083061D01*
X125311013Y-89936962D01*
X125496962Y-89751013D01*
X125643061Y-89532359D01*
X125743696Y-89289405D01*
X125795000Y-89031486D01*
X125795000Y-88768514D01*
X125743696Y-88510595D01*
X125643061Y-88267641D01*
X125496962Y-88048987D01*
X125311013Y-87863038D01*
X125092359Y-87716939D01*
X124849405Y-87616304D01*
X124591486Y-87565000D01*
X124328514Y-87565000D01*
X124070595Y-87616304D01*
X123827641Y-87716939D01*
X123608987Y-87863038D01*
X123423038Y-88048987D01*
X123362225Y-88140000D01*
X123227322Y-88140000D01*
X123189999Y-88136324D01*
X123152676Y-88140000D01*
X123152667Y-88140000D01*
X123041014Y-88150997D01*
X122897753Y-88194454D01*
X122765724Y-88265026D01*
X122765722Y-88265027D01*
X122765723Y-88265027D01*
X122678996Y-88336201D01*
X122678992Y-88336205D01*
X122649999Y-88359999D01*
X122626205Y-88388992D01*
X120335199Y-90680000D01*
X114337322Y-90680000D01*
X114299999Y-90676324D01*
X114262676Y-90680000D01*
X114262667Y-90680000D01*
X114151014Y-90690997D01*
X114007753Y-90734454D01*
X113875724Y-90805026D01*
X113759999Y-90899999D01*
X113736201Y-90928997D01*
X112519003Y-92146196D01*
X112489999Y-92169999D01*
X112434871Y-92237174D01*
X112395026Y-92285724D01*
X112358126Y-92354759D01*
X112324454Y-92417754D01*
X112280997Y-92561015D01*
X112270000Y-92672668D01*
X112270000Y-92672678D01*
X112266324Y-92710000D01*
X112270000Y-92747322D01*
X112270001Y-106365196D01*
X111925000Y-106710197D01*
X111925000Y-106538665D01*
X111869853Y-106261426D01*
X111761680Y-106000273D01*
X111604637Y-105765241D01*
X111404759Y-105565363D01*
X111172241Y-105410000D01*
X111404759Y-105254637D01*
X111604637Y-105054759D01*
X111761680Y-104819727D01*
X111869853Y-104558574D01*
X111925000Y-104281335D01*
X111925000Y-103998665D01*
X111869853Y-103721426D01*
X111761680Y-103460273D01*
X111604637Y-103225241D01*
X111404759Y-103025363D01*
X111172241Y-102870000D01*
X111404759Y-102714637D01*
X111604637Y-102514759D01*
X111761680Y-102279727D01*
X111869853Y-102018574D01*
X111925000Y-101741335D01*
X111925000Y-101458665D01*
X111869853Y-101181426D01*
X111761680Y-100920273D01*
X111604637Y-100685241D01*
X111404759Y-100485363D01*
X111172241Y-100330000D01*
X111404759Y-100174637D01*
X111604637Y-99974759D01*
X111761680Y-99739727D01*
X111869853Y-99478574D01*
X111925000Y-99201335D01*
X111925000Y-98918665D01*
X111869853Y-98641426D01*
X111761680Y-98380273D01*
X111604637Y-98145241D01*
X111404759Y-97945363D01*
X111172241Y-97790000D01*
X111404759Y-97634637D01*
X111604637Y-97434759D01*
X111761680Y-97199727D01*
X111869853Y-96938574D01*
X111925000Y-96661335D01*
X111925000Y-96378665D01*
X111869853Y-96101426D01*
X111761680Y-95840273D01*
X111604637Y-95605241D01*
X111404759Y-95405363D01*
X111172241Y-95250000D01*
X111404759Y-95094637D01*
X111604637Y-94894759D01*
X111761680Y-94659727D01*
X111869853Y-94398574D01*
X111925000Y-94121335D01*
X111925000Y-93838665D01*
X111869853Y-93561426D01*
X111761680Y-93300273D01*
X111604637Y-93065241D01*
X111404759Y-92865363D01*
X111172241Y-92710000D01*
X111404759Y-92554637D01*
X111604637Y-92354759D01*
X111761680Y-92119727D01*
X111869853Y-91858574D01*
X111925000Y-91581335D01*
X111925000Y-91298665D01*
X111869853Y-91021426D01*
X111761680Y-90760273D01*
X111604637Y-90525241D01*
X111404759Y-90325363D01*
X111172241Y-90170000D01*
X111404759Y-90014637D01*
X111604637Y-89814759D01*
X111708043Y-89660000D01*
X116671928Y-89660000D01*
X116671928Y-89700000D01*
X116684188Y-89824482D01*
X116720498Y-89944180D01*
X116779463Y-90054494D01*
X116858815Y-90151185D01*
X116955506Y-90230537D01*
X117065820Y-90289502D01*
X117185518Y-90325812D01*
X117310000Y-90338072D01*
X118910000Y-90338072D01*
X119034482Y-90325812D01*
X119154180Y-90289502D01*
X119264494Y-90230537D01*
X119361185Y-90151185D01*
X119440537Y-90054494D01*
X119499502Y-89944180D01*
X119535812Y-89824482D01*
X119548072Y-89700000D01*
X119548072Y-89660000D01*
X120612678Y-89660000D01*
X120650000Y-89663676D01*
X120687322Y-89660000D01*
X120687333Y-89660000D01*
X120798986Y-89649003D01*
X120942247Y-89605546D01*
X121074276Y-89534974D01*
X121190001Y-89440001D01*
X121213804Y-89410997D01*
X123504803Y-87120000D01*
X128101928Y-87120000D01*
X128101928Y-87160000D01*
X128114188Y-87284482D01*
X128150498Y-87404180D01*
X128209463Y-87514494D01*
X128288815Y-87611185D01*
X128385506Y-87690537D01*
X128495820Y-87749502D01*
X128615518Y-87785812D01*
X128740000Y-87798072D01*
X128780000Y-87798072D01*
X128780001Y-91117928D01*
X128332000Y-91117928D01*
X128207518Y-91130188D01*
X128087820Y-91166498D01*
X127977506Y-91225463D01*
X127880815Y-91304815D01*
X127801463Y-91401506D01*
X127742498Y-91511820D01*
X127706188Y-91631518D01*
X127693928Y-91756000D01*
X127693928Y-93156000D01*
X127706188Y-93280482D01*
X127742498Y-93400180D01*
X127801463Y-93510494D01*
X127880815Y-93607185D01*
X127977506Y-93686537D01*
X128087820Y-93745502D01*
X128207518Y-93781812D01*
X128332000Y-93794072D01*
X129732000Y-93794072D01*
X129856482Y-93781812D01*
X129976180Y-93745502D01*
X130086494Y-93686537D01*
X130183185Y-93607185D01*
X130262537Y-93510494D01*
X130321502Y-93400180D01*
X130357812Y-93280482D01*
X130370072Y-93156000D01*
X130370072Y-91756000D01*
X130357812Y-91631518D01*
X130321502Y-91511820D01*
X130300000Y-91471593D01*
X130300000Y-87798072D01*
X130340000Y-87798072D01*
X130464482Y-87785812D01*
X130584180Y-87749502D01*
X130694494Y-87690537D01*
X130791185Y-87611185D01*
X130870537Y-87514494D01*
X130929502Y-87404180D01*
X130965812Y-87284482D01*
X130978072Y-87160000D01*
X130978072Y-85560000D01*
X130965812Y-85435518D01*
X130929502Y-85315820D01*
X130870537Y-85205506D01*
X130791185Y-85108815D01*
X130694494Y-85029463D01*
X130584180Y-84970498D01*
X130464482Y-84934188D01*
X130340000Y-84921928D01*
X128740000Y-84921928D01*
X128615518Y-84934188D01*
X128495820Y-84970498D01*
X128385506Y-85029463D01*
X128288815Y-85108815D01*
X128209463Y-85205506D01*
X128150498Y-85315820D01*
X128114188Y-85435518D01*
X128101928Y-85560000D01*
X128101928Y-85600000D01*
X123227322Y-85600000D01*
X123189999Y-85596324D01*
X123152676Y-85600000D01*
X123152667Y-85600000D01*
X123041014Y-85610997D01*
X122897753Y-85654454D01*
X122765724Y-85725026D01*
X122765722Y-85725027D01*
X122765723Y-85725027D01*
X122678996Y-85796201D01*
X122678992Y-85796205D01*
X122649999Y-85819999D01*
X122626205Y-85848992D01*
X120335199Y-88140000D01*
X119548072Y-88140000D01*
X119548072Y-88100000D01*
X119535812Y-87975518D01*
X119499502Y-87855820D01*
X119440537Y-87745506D01*
X119361185Y-87648815D01*
X119264494Y-87569463D01*
X119154180Y-87510498D01*
X119034482Y-87474188D01*
X118910000Y-87461928D01*
X118902785Y-87461928D01*
X118923097Y-87392702D01*
X118110000Y-86579605D01*
X117296903Y-87392702D01*
X117317215Y-87461928D01*
X117310000Y-87461928D01*
X117185518Y-87474188D01*
X117065820Y-87510498D01*
X116955506Y-87569463D01*
X116858815Y-87648815D01*
X116779463Y-87745506D01*
X116720498Y-87855820D01*
X116684188Y-87975518D01*
X116671928Y-88100000D01*
X116671928Y-88140000D01*
X111708043Y-88140000D01*
X111604637Y-87985241D01*
X111404759Y-87785363D01*
X111172241Y-87630000D01*
X111404759Y-87474637D01*
X111604637Y-87274759D01*
X111761680Y-87039727D01*
X111869853Y-86778574D01*
X111925000Y-86501335D01*
X111925000Y-86470512D01*
X116669783Y-86470512D01*
X116711213Y-86750130D01*
X116806397Y-87016292D01*
X116873329Y-87141514D01*
X117117298Y-87213097D01*
X117930395Y-86400000D01*
X118289605Y-86400000D01*
X119102702Y-87213097D01*
X119346671Y-87141514D01*
X119467571Y-86886004D01*
X119536300Y-86611816D01*
X119550217Y-86329488D01*
X119508787Y-86049870D01*
X119413603Y-85783708D01*
X119346671Y-85658486D01*
X119102702Y-85586903D01*
X118289605Y-86400000D01*
X117930395Y-86400000D01*
X117117298Y-85586903D01*
X116873329Y-85658486D01*
X116752429Y-85913996D01*
X116683700Y-86188184D01*
X116669783Y-86470512D01*
X111925000Y-86470512D01*
X111925000Y-86218665D01*
X111869853Y-85941426D01*
X111761680Y-85680273D01*
X111604637Y-85445241D01*
X111566694Y-85407298D01*
X117296903Y-85407298D01*
X118110000Y-86220395D01*
X118923097Y-85407298D01*
X118851514Y-85163329D01*
X118596004Y-85042429D01*
X118321816Y-84973700D01*
X118039488Y-84959783D01*
X117759870Y-85001213D01*
X117493708Y-85096397D01*
X117368486Y-85163329D01*
X117296903Y-85407298D01*
X111566694Y-85407298D01*
X111404759Y-85245363D01*
X111169727Y-85088320D01*
X111159135Y-85083933D01*
X111345131Y-84972385D01*
X111553519Y-84783414D01*
X111721037Y-84557420D01*
X111841246Y-84303087D01*
X111881904Y-84169039D01*
X111759915Y-83947000D01*
X110617000Y-83947000D01*
X110617000Y-83967000D01*
X110363000Y-83967000D01*
X110363000Y-83947000D01*
X109220085Y-83947000D01*
X109098096Y-84169039D01*
X109138754Y-84303087D01*
X109258963Y-84557420D01*
X109426481Y-84783414D01*
X109634869Y-84972385D01*
X109820865Y-85083933D01*
X109810273Y-85088320D01*
X109575241Y-85245363D01*
X109375363Y-85445241D01*
X109218320Y-85680273D01*
X109110147Y-85941426D01*
X109055000Y-86218665D01*
X109055000Y-86501335D01*
X109110147Y-86778574D01*
X109218320Y-87039727D01*
X109375363Y-87274759D01*
X109575241Y-87474637D01*
X109807759Y-87630000D01*
X109575241Y-87785363D01*
X109375363Y-87985241D01*
X109271957Y-88140000D01*
X106994802Y-88140000D01*
X106170000Y-87315199D01*
X106170000Y-85127322D01*
X106173676Y-85089999D01*
X106170000Y-85052676D01*
X106170000Y-85052667D01*
X106159003Y-84941014D01*
X106115546Y-84797753D01*
X106044975Y-84665725D01*
X106044974Y-84665723D01*
X105973799Y-84578997D01*
X105950001Y-84549999D01*
X105921003Y-84526201D01*
X99623804Y-78229003D01*
X99600001Y-78199999D01*
X99484276Y-78105026D01*
X99352247Y-78034454D01*
X99208986Y-77990997D01*
X99097333Y-77980000D01*
X99097322Y-77980000D01*
X99060000Y-77976324D01*
X99022678Y-77980000D01*
X85127322Y-77980000D01*
X85089999Y-77976324D01*
X85052676Y-77980000D01*
X85052667Y-77980000D01*
X84941014Y-77990997D01*
X84797753Y-78034454D01*
X84665724Y-78105026D01*
X84549999Y-78199999D01*
X84526201Y-78228997D01*
X83308998Y-79446201D01*
X83280000Y-79469999D01*
X83256202Y-79498997D01*
X83256201Y-79498998D01*
X83185026Y-79585724D01*
X83114454Y-79717754D01*
X83070998Y-79861015D01*
X83056324Y-80010000D01*
X83060001Y-80047332D01*
X83060000Y-91402667D01*
X83056323Y-91440000D01*
X81407000Y-91440000D01*
X81407000Y-76327000D01*
X142113000Y-76327000D01*
X142113000Y-124333000D01*
G37*
G04 #@! TD.AperFunction*
M02*
