G04 #@! TF.GenerationSoftware,KiCad,Pcbnew,5.1.8-db9833491~88~ubuntu18.04.1*
G04 #@! TF.CreationDate,2020-12-12T18:03:07+01:00*
G04 #@! TF.ProjectId,UselessBox,5573656c-6573-4734-926f-782e6b696361,rev?*
G04 #@! TF.SameCoordinates,Original*
G04 #@! TF.FileFunction,Legend,Top*
G04 #@! TF.FilePolarity,Positive*
%FSLAX46Y46*%
G04 Gerber Fmt 4.6, Leading zero omitted, Abs format (unit mm)*
G04 Created by KiCad (PCBNEW 5.1.8-db9833491~88~ubuntu18.04.1) date 2020-12-12 18:03:07*
%MOMM*%
%LPD*%
G01*
G04 APERTURE LIST*
%ADD10C,0.150000*%
%ADD11C,0.120000*%
G04 APERTURE END LIST*
D10*
X126936666Y-116292380D02*
X127270000Y-117292380D01*
X127603333Y-116292380D01*
X127936666Y-117292380D02*
X127936666Y-116292380D01*
X128174761Y-116292380D01*
X128317619Y-116340000D01*
X128412857Y-116435238D01*
X128460476Y-116530476D01*
X128508095Y-116720952D01*
X128508095Y-116863809D01*
X128460476Y-117054285D01*
X128412857Y-117149523D01*
X128317619Y-117244761D01*
X128174761Y-117292380D01*
X127936666Y-117292380D01*
X128936666Y-117292380D02*
X128936666Y-116292380D01*
X129174761Y-116292380D01*
X129317619Y-116340000D01*
X129412857Y-116435238D01*
X129460476Y-116530476D01*
X129508095Y-116720952D01*
X129508095Y-116863809D01*
X129460476Y-117054285D01*
X129412857Y-117149523D01*
X129317619Y-117244761D01*
X129174761Y-117292380D01*
X128936666Y-117292380D01*
X138938095Y-116340000D02*
X138842857Y-116292380D01*
X138700000Y-116292380D01*
X138557142Y-116340000D01*
X138461904Y-116435238D01*
X138414285Y-116530476D01*
X138366666Y-116720952D01*
X138366666Y-116863809D01*
X138414285Y-117054285D01*
X138461904Y-117149523D01*
X138557142Y-117244761D01*
X138700000Y-117292380D01*
X138795238Y-117292380D01*
X138938095Y-117244761D01*
X138985714Y-117197142D01*
X138985714Y-116863809D01*
X138795238Y-116863809D01*
X139414285Y-117292380D02*
X139414285Y-116292380D01*
X139985714Y-117292380D01*
X139985714Y-116292380D01*
X140461904Y-117292380D02*
X140461904Y-116292380D01*
X140700000Y-116292380D01*
X140842857Y-116340000D01*
X140938095Y-116435238D01*
X140985714Y-116530476D01*
X141033333Y-116720952D01*
X141033333Y-116863809D01*
X140985714Y-117054285D01*
X140938095Y-117149523D01*
X140842857Y-117244761D01*
X140700000Y-117292380D01*
X140461904Y-117292380D01*
D11*
X116807719Y-99372331D02*
X115895552Y-100284499D01*
X115895552Y-100284499D02*
X116885501Y-101274448D01*
X116885501Y-101274448D02*
X117797669Y-100362281D01*
X117797456Y-100362150D02*
G75*
G03*
X116807719Y-99372331I1582544J2572150D01*
G01*
X115395000Y-90409698D02*
X116195000Y-90409698D01*
X115795000Y-90809698D02*
X115795000Y-90009698D01*
X117577000Y-82319000D02*
X118643000Y-82319000D01*
X117342000Y-82359000D02*
X118878000Y-82359000D01*
X117162000Y-82399000D02*
X119058000Y-82399000D01*
X117012000Y-82439000D02*
X119208000Y-82439000D01*
X116881000Y-82479000D02*
X119339000Y-82479000D01*
X116764000Y-82519000D02*
X119456000Y-82519000D01*
X116657000Y-82559000D02*
X119563000Y-82559000D01*
X116558000Y-82599000D02*
X119662000Y-82599000D01*
X116465000Y-82639000D02*
X119755000Y-82639000D01*
X116379000Y-82679000D02*
X119841000Y-82679000D01*
X116297000Y-82719000D02*
X119923000Y-82719000D01*
X116220000Y-82759000D02*
X120000000Y-82759000D01*
X116146000Y-82799000D02*
X120074000Y-82799000D01*
X116076000Y-82839000D02*
X120144000Y-82839000D01*
X119150000Y-82879000D02*
X120212000Y-82879000D01*
X116008000Y-82879000D02*
X117070000Y-82879000D01*
X119150000Y-82919000D02*
X120276000Y-82919000D01*
X115944000Y-82919000D02*
X117070000Y-82919000D01*
X119150000Y-82959000D02*
X120338000Y-82959000D01*
X115882000Y-82959000D02*
X117070000Y-82959000D01*
X119150000Y-82999000D02*
X120397000Y-82999000D01*
X115823000Y-82999000D02*
X117070000Y-82999000D01*
X119150000Y-83039000D02*
X120455000Y-83039000D01*
X115765000Y-83039000D02*
X117070000Y-83039000D01*
X119150000Y-83079000D02*
X120510000Y-83079000D01*
X115710000Y-83079000D02*
X117070000Y-83079000D01*
X119150000Y-83119000D02*
X120564000Y-83119000D01*
X115656000Y-83119000D02*
X117070000Y-83119000D01*
X119150000Y-83159000D02*
X120615000Y-83159000D01*
X115605000Y-83159000D02*
X117070000Y-83159000D01*
X119150000Y-83199000D02*
X120666000Y-83199000D01*
X115554000Y-83199000D02*
X117070000Y-83199000D01*
X119150000Y-83239000D02*
X120714000Y-83239000D01*
X115506000Y-83239000D02*
X117070000Y-83239000D01*
X119150000Y-83279000D02*
X120761000Y-83279000D01*
X115459000Y-83279000D02*
X117070000Y-83279000D01*
X119150000Y-83319000D02*
X120807000Y-83319000D01*
X115413000Y-83319000D02*
X117070000Y-83319000D01*
X119150000Y-83359000D02*
X120851000Y-83359000D01*
X115369000Y-83359000D02*
X117070000Y-83359000D01*
X119150000Y-83399000D02*
X120894000Y-83399000D01*
X115326000Y-83399000D02*
X117070000Y-83399000D01*
X119150000Y-83439000D02*
X120936000Y-83439000D01*
X115284000Y-83439000D02*
X117070000Y-83439000D01*
X119150000Y-83479000D02*
X120977000Y-83479000D01*
X115243000Y-83479000D02*
X117070000Y-83479000D01*
X119150000Y-83519000D02*
X121017000Y-83519000D01*
X115203000Y-83519000D02*
X117070000Y-83519000D01*
X119150000Y-83559000D02*
X121055000Y-83559000D01*
X115165000Y-83559000D02*
X117070000Y-83559000D01*
X119150000Y-83599000D02*
X121093000Y-83599000D01*
X115127000Y-83599000D02*
X117070000Y-83599000D01*
X119150000Y-83639000D02*
X121129000Y-83639000D01*
X115091000Y-83639000D02*
X117070000Y-83639000D01*
X119150000Y-83679000D02*
X121165000Y-83679000D01*
X115055000Y-83679000D02*
X117070000Y-83679000D01*
X119150000Y-83719000D02*
X121200000Y-83719000D01*
X115020000Y-83719000D02*
X117070000Y-83719000D01*
X119150000Y-83759000D02*
X121234000Y-83759000D01*
X114986000Y-83759000D02*
X117070000Y-83759000D01*
X119150000Y-83799000D02*
X121266000Y-83799000D01*
X114954000Y-83799000D02*
X117070000Y-83799000D01*
X119150000Y-83839000D02*
X121299000Y-83839000D01*
X114921000Y-83839000D02*
X117070000Y-83839000D01*
X119150000Y-83879000D02*
X121330000Y-83879000D01*
X114890000Y-83879000D02*
X117070000Y-83879000D01*
X119150000Y-83919000D02*
X121360000Y-83919000D01*
X114860000Y-83919000D02*
X117070000Y-83919000D01*
X119150000Y-83959000D02*
X121390000Y-83959000D01*
X114830000Y-83959000D02*
X117070000Y-83959000D01*
X119150000Y-83999000D02*
X121419000Y-83999000D01*
X114801000Y-83999000D02*
X117070000Y-83999000D01*
X119150000Y-84039000D02*
X121448000Y-84039000D01*
X114772000Y-84039000D02*
X117070000Y-84039000D01*
X119150000Y-84079000D02*
X121475000Y-84079000D01*
X114745000Y-84079000D02*
X117070000Y-84079000D01*
X119150000Y-84119000D02*
X121502000Y-84119000D01*
X114718000Y-84119000D02*
X117070000Y-84119000D01*
X119150000Y-84159000D02*
X121528000Y-84159000D01*
X114692000Y-84159000D02*
X117070000Y-84159000D01*
X119150000Y-84199000D02*
X121554000Y-84199000D01*
X114666000Y-84199000D02*
X117070000Y-84199000D01*
X119150000Y-84239000D02*
X121579000Y-84239000D01*
X114641000Y-84239000D02*
X117070000Y-84239000D01*
X119150000Y-84279000D02*
X121603000Y-84279000D01*
X114617000Y-84279000D02*
X117070000Y-84279000D01*
X119150000Y-84319000D02*
X121627000Y-84319000D01*
X114593000Y-84319000D02*
X117070000Y-84319000D01*
X119150000Y-84359000D02*
X121650000Y-84359000D01*
X114570000Y-84359000D02*
X117070000Y-84359000D01*
X119150000Y-84399000D02*
X121672000Y-84399000D01*
X114548000Y-84399000D02*
X117070000Y-84399000D01*
X119150000Y-84439000D02*
X121694000Y-84439000D01*
X114526000Y-84439000D02*
X117070000Y-84439000D01*
X119150000Y-84479000D02*
X121716000Y-84479000D01*
X114504000Y-84479000D02*
X117070000Y-84479000D01*
X119150000Y-84519000D02*
X121737000Y-84519000D01*
X114483000Y-84519000D02*
X117070000Y-84519000D01*
X119150000Y-84559000D02*
X121757000Y-84559000D01*
X114463000Y-84559000D02*
X117070000Y-84559000D01*
X119150000Y-84599000D02*
X121776000Y-84599000D01*
X114444000Y-84599000D02*
X117070000Y-84599000D01*
X119150000Y-84639000D02*
X121796000Y-84639000D01*
X114424000Y-84639000D02*
X117070000Y-84639000D01*
X119150000Y-84679000D02*
X121814000Y-84679000D01*
X114406000Y-84679000D02*
X117070000Y-84679000D01*
X119150000Y-84719000D02*
X121832000Y-84719000D01*
X114388000Y-84719000D02*
X117070000Y-84719000D01*
X119150000Y-84759000D02*
X121850000Y-84759000D01*
X114370000Y-84759000D02*
X117070000Y-84759000D01*
X119150000Y-84799000D02*
X121867000Y-84799000D01*
X114353000Y-84799000D02*
X117070000Y-84799000D01*
X119150000Y-84839000D02*
X121884000Y-84839000D01*
X114336000Y-84839000D02*
X117070000Y-84839000D01*
X119150000Y-84879000D02*
X121900000Y-84879000D01*
X114320000Y-84879000D02*
X117070000Y-84879000D01*
X119150000Y-84919000D02*
X121915000Y-84919000D01*
X114305000Y-84919000D02*
X117070000Y-84919000D01*
X114289000Y-84959000D02*
X121931000Y-84959000D01*
X114275000Y-84999000D02*
X121945000Y-84999000D01*
X114260000Y-85039000D02*
X121960000Y-85039000D01*
X114247000Y-85079000D02*
X121973000Y-85079000D01*
X114233000Y-85119000D02*
X121987000Y-85119000D01*
X114221000Y-85159000D02*
X121999000Y-85159000D01*
X114208000Y-85199000D02*
X122012000Y-85199000D01*
X114196000Y-85239000D02*
X122024000Y-85239000D01*
X114185000Y-85279000D02*
X122035000Y-85279000D01*
X114174000Y-85319000D02*
X122046000Y-85319000D01*
X114163000Y-85359000D02*
X122057000Y-85359000D01*
X114153000Y-85399000D02*
X122067000Y-85399000D01*
X114143000Y-85439000D02*
X122077000Y-85439000D01*
X114134000Y-85479000D02*
X122086000Y-85479000D01*
X114125000Y-85519000D02*
X122095000Y-85519000D01*
X114116000Y-85559000D02*
X122104000Y-85559000D01*
X114108000Y-85599000D02*
X122112000Y-85599000D01*
X114100000Y-85639000D02*
X122120000Y-85639000D01*
X114093000Y-85679000D02*
X122127000Y-85679000D01*
X114086000Y-85720000D02*
X122134000Y-85720000D01*
X114080000Y-85760000D02*
X122140000Y-85760000D01*
X114073000Y-85800000D02*
X122147000Y-85800000D01*
X114068000Y-85840000D02*
X122152000Y-85840000D01*
X114062000Y-85880000D02*
X122158000Y-85880000D01*
X114058000Y-85920000D02*
X122162000Y-85920000D01*
X114053000Y-85960000D02*
X122167000Y-85960000D01*
X114049000Y-86000000D02*
X122171000Y-86000000D01*
X114045000Y-86040000D02*
X122175000Y-86040000D01*
X114042000Y-86080000D02*
X122178000Y-86080000D01*
X114039000Y-86120000D02*
X122181000Y-86120000D01*
X114036000Y-86160000D02*
X122184000Y-86160000D01*
X114034000Y-86200000D02*
X122186000Y-86200000D01*
X114033000Y-86240000D02*
X122187000Y-86240000D01*
X114031000Y-86280000D02*
X122189000Y-86280000D01*
X114030000Y-86320000D02*
X122190000Y-86320000D01*
X114030000Y-86360000D02*
X122190000Y-86360000D01*
X114030000Y-86400000D02*
X122190000Y-86400000D01*
X122230000Y-86400000D02*
G75*
G03*
X122230000Y-86400000I-4120000J0D01*
G01*
X127522000Y-90856000D02*
X128732000Y-90856000D01*
X127522000Y-92156000D02*
X127522000Y-90856000D01*
X127682000Y-91006000D02*
X127682000Y-111676000D01*
X127682000Y-111676000D02*
X138002000Y-111676000D01*
X138002000Y-111676000D02*
X138002000Y-91006000D01*
X138002000Y-91006000D02*
X127682000Y-91006000D01*
X131332000Y-91006000D02*
X131332000Y-92046000D01*
X131332000Y-92066000D02*
X134332000Y-92066000D01*
X134332000Y-92066000D02*
X134332000Y-91006000D01*
X132502000Y-92846000D02*
X131402000Y-92846000D01*
X133202000Y-92846000D02*
X134302000Y-92846000D01*
X132502000Y-93016000D02*
X133202000Y-92616000D01*
X132502000Y-92216000D02*
X132502000Y-93416000D01*
X132502000Y-93416000D02*
X133202000Y-93416000D01*
X133202000Y-93416000D02*
X133202000Y-92216000D01*
X133202000Y-92216000D02*
X132502000Y-92216000D01*
X96520000Y-82550000D02*
X96520000Y-80010000D01*
X96520000Y-80010000D02*
X93850000Y-80010000D01*
X93850000Y-82550000D02*
X93850000Y-120780000D01*
X93850000Y-77340000D02*
X93850000Y-80010000D01*
X109220000Y-80010000D02*
X111890000Y-80010000D01*
X109220000Y-80010000D02*
X109220000Y-118110000D01*
X109220000Y-118110000D02*
X111890000Y-118110000D01*
X96520000Y-82550000D02*
X93850000Y-82550000D01*
X96520000Y-82550000D02*
X96520000Y-118110000D01*
X96520000Y-118110000D02*
X93850000Y-118110000D01*
X93850000Y-120780000D02*
X111890000Y-120780000D01*
X111890000Y-120780000D02*
X111890000Y-77340000D01*
X111890000Y-77340000D02*
X93850000Y-77340000D01*
X131230000Y-85240000D02*
X131230000Y-87480000D01*
X131230000Y-87480000D02*
X135470000Y-87480000D01*
X135470000Y-87480000D02*
X135470000Y-85240000D01*
X135470000Y-85240000D02*
X131230000Y-85240000D01*
X130580000Y-86360000D02*
X131230000Y-86360000D01*
X136120000Y-86360000D02*
X135470000Y-86360000D01*
X131950000Y-85240000D02*
X131950000Y-87480000D01*
X132070000Y-85240000D02*
X132070000Y-87480000D01*
X131830000Y-85240000D02*
X131830000Y-87480000D01*
X136458000Y-118170000D02*
X136458000Y-115510000D01*
X133858000Y-118170000D02*
X136458000Y-118170000D01*
X133858000Y-115510000D02*
X136458000Y-115510000D01*
X133858000Y-118170000D02*
X133858000Y-115510000D01*
X132588000Y-118170000D02*
X131258000Y-118170000D01*
X131258000Y-118170000D02*
X131258000Y-116840000D01*
X85030000Y-109280000D02*
X87690000Y-109280000D01*
X85030000Y-104140000D02*
X85030000Y-109280000D01*
X87690000Y-104140000D02*
X87690000Y-109280000D01*
X85030000Y-104140000D02*
X87690000Y-104140000D01*
X85030000Y-102870000D02*
X85030000Y-101540000D01*
X85030000Y-101540000D02*
X86360000Y-101540000D01*
X85030000Y-114240000D02*
X86360000Y-114240000D01*
X85030000Y-115570000D02*
X85030000Y-114240000D01*
X85030000Y-116840000D02*
X87690000Y-116840000D01*
X87690000Y-116840000D02*
X87690000Y-121980000D01*
X85030000Y-116840000D02*
X85030000Y-121980000D01*
X85030000Y-121980000D02*
X87690000Y-121980000D01*
X85030000Y-96580000D02*
X87690000Y-96580000D01*
X85030000Y-86360000D02*
X85030000Y-96580000D01*
X87690000Y-86360000D02*
X87690000Y-96580000D01*
X85030000Y-86360000D02*
X87690000Y-86360000D01*
X85030000Y-85090000D02*
X85030000Y-83760000D01*
X85030000Y-83760000D02*
X86360000Y-83760000D01*
X125380000Y-83170000D02*
X123540000Y-83170000D01*
X123540000Y-83170000D02*
X123540000Y-87010000D01*
X123540000Y-87010000D02*
X125380000Y-87010000D01*
X125380000Y-87010000D02*
X125380000Y-83170000D01*
X124460000Y-82220000D02*
X124460000Y-83170000D01*
X124460000Y-87960000D02*
X124460000Y-87010000D01*
X121996000Y-111760000D02*
X121046000Y-111760000D01*
X116256000Y-111760000D02*
X117206000Y-111760000D01*
X121046000Y-110840000D02*
X117206000Y-110840000D01*
X121046000Y-112680000D02*
X121046000Y-110840000D01*
X117206000Y-112680000D02*
X121046000Y-112680000D01*
X117206000Y-110840000D02*
X117206000Y-112680000D01*
X121046000Y-107600000D02*
X121046000Y-105760000D01*
X121046000Y-105760000D02*
X117206000Y-105760000D01*
X117206000Y-105760000D02*
X117206000Y-107600000D01*
X117206000Y-107600000D02*
X121046000Y-107600000D01*
X121996000Y-106680000D02*
X121046000Y-106680000D01*
X116256000Y-106680000D02*
X117206000Y-106680000D01*
X127060000Y-121218000D02*
X127060000Y-118558000D01*
X119380000Y-121218000D02*
X127060000Y-121218000D01*
X119380000Y-118558000D02*
X127060000Y-118558000D01*
X119380000Y-121218000D02*
X119380000Y-118558000D01*
X118110000Y-121218000D02*
X116780000Y-121218000D01*
X116780000Y-121218000D02*
X116780000Y-119888000D01*
D10*
X116744761Y-94527619D02*
X116649523Y-94480000D01*
X116554285Y-94384761D01*
X116411428Y-94241904D01*
X116316190Y-94194285D01*
X116220952Y-94194285D01*
X116268571Y-94432380D02*
X116173333Y-94384761D01*
X116078095Y-94289523D01*
X116030476Y-94099047D01*
X116030476Y-93765714D01*
X116078095Y-93575238D01*
X116173333Y-93480000D01*
X116268571Y-93432380D01*
X116459047Y-93432380D01*
X116554285Y-93480000D01*
X116649523Y-93575238D01*
X116697142Y-93765714D01*
X116697142Y-94099047D01*
X116649523Y-94289523D01*
X116554285Y-94384761D01*
X116459047Y-94432380D01*
X116268571Y-94432380D01*
X117649523Y-94432380D02*
X117078095Y-94432380D01*
X117363809Y-94432380D02*
X117363809Y-93432380D01*
X117268571Y-93575238D01*
X117173333Y-93670476D01*
X117078095Y-93718095D01*
X117943333Y-81637142D02*
X117895714Y-81684761D01*
X117752857Y-81732380D01*
X117657619Y-81732380D01*
X117514761Y-81684761D01*
X117419523Y-81589523D01*
X117371904Y-81494285D01*
X117324285Y-81303809D01*
X117324285Y-81160952D01*
X117371904Y-80970476D01*
X117419523Y-80875238D01*
X117514761Y-80780000D01*
X117657619Y-80732380D01*
X117752857Y-80732380D01*
X117895714Y-80780000D01*
X117943333Y-80827619D01*
X118895714Y-81732380D02*
X118324285Y-81732380D01*
X118610000Y-81732380D02*
X118610000Y-80732380D01*
X118514761Y-80875238D01*
X118419523Y-80970476D01*
X118324285Y-81018095D01*
X130071904Y-90622380D02*
X130071904Y-89622380D01*
X130643333Y-90622380D02*
X130214761Y-90050952D01*
X130643333Y-89622380D02*
X130071904Y-90193809D01*
X131595714Y-90622380D02*
X131024285Y-90622380D01*
X131310000Y-90622380D02*
X131310000Y-89622380D01*
X131214761Y-89765238D01*
X131119523Y-89860476D01*
X131024285Y-89908095D01*
X113585714Y-78906666D02*
X114061904Y-78906666D01*
X113490476Y-79192380D02*
X113823809Y-78192380D01*
X114157142Y-79192380D01*
X115014285Y-79192380D02*
X114442857Y-79192380D01*
X114728571Y-79192380D02*
X114728571Y-78192380D01*
X114633333Y-78335238D01*
X114538095Y-78430476D01*
X114442857Y-78478095D01*
X131341904Y-84272380D02*
X131341904Y-83272380D01*
X131580000Y-83272380D01*
X131722857Y-83320000D01*
X131818095Y-83415238D01*
X131865714Y-83510476D01*
X131913333Y-83700952D01*
X131913333Y-83843809D01*
X131865714Y-84034285D01*
X131818095Y-84129523D01*
X131722857Y-84224761D01*
X131580000Y-84272380D01*
X131341904Y-84272380D01*
X132865714Y-84272380D02*
X132294285Y-84272380D01*
X132580000Y-84272380D02*
X132580000Y-83272380D01*
X132484761Y-83415238D01*
X132389523Y-83510476D01*
X132294285Y-83558095D01*
X129278095Y-85012380D02*
X129278095Y-84012380D01*
X129849523Y-85012380D02*
X129420952Y-84440952D01*
X129849523Y-84012380D02*
X129278095Y-84583809D01*
X134286666Y-113752380D02*
X134286666Y-114466666D01*
X134239047Y-114609523D01*
X134143809Y-114704761D01*
X134000952Y-114752380D01*
X133905714Y-114752380D01*
X135286666Y-114752380D02*
X134715238Y-114752380D01*
X135000952Y-114752380D02*
X135000952Y-113752380D01*
X134905714Y-113895238D01*
X134810476Y-113990476D01*
X134715238Y-114038095D01*
X86026666Y-99992380D02*
X86026666Y-100706666D01*
X85979047Y-100849523D01*
X85883809Y-100944761D01*
X85740952Y-100992380D01*
X85645714Y-100992380D01*
X86931428Y-100325714D02*
X86931428Y-100992380D01*
X86693333Y-99944761D02*
X86455238Y-100659047D01*
X87074285Y-100659047D01*
X86026666Y-112692380D02*
X86026666Y-113406666D01*
X85979047Y-113549523D01*
X85883809Y-113644761D01*
X85740952Y-113692380D01*
X85645714Y-113692380D01*
X86979047Y-112692380D02*
X86502857Y-112692380D01*
X86455238Y-113168571D01*
X86502857Y-113120952D01*
X86598095Y-113073333D01*
X86836190Y-113073333D01*
X86931428Y-113120952D01*
X86979047Y-113168571D01*
X87026666Y-113263809D01*
X87026666Y-113501904D01*
X86979047Y-113597142D01*
X86931428Y-113644761D01*
X86836190Y-113692380D01*
X86598095Y-113692380D01*
X86502857Y-113644761D01*
X86455238Y-113597142D01*
X86026666Y-82212380D02*
X86026666Y-82926666D01*
X85979047Y-83069523D01*
X85883809Y-83164761D01*
X85740952Y-83212380D01*
X85645714Y-83212380D01*
X86931428Y-82212380D02*
X86740952Y-82212380D01*
X86645714Y-82260000D01*
X86598095Y-82307619D01*
X86502857Y-82450476D01*
X86455238Y-82640952D01*
X86455238Y-83021904D01*
X86502857Y-83117142D01*
X86550476Y-83164761D01*
X86645714Y-83212380D01*
X86836190Y-83212380D01*
X86931428Y-83164761D01*
X86979047Y-83117142D01*
X87026666Y-83021904D01*
X87026666Y-82783809D01*
X86979047Y-82688571D01*
X86931428Y-82640952D01*
X86836190Y-82593333D01*
X86645714Y-82593333D01*
X86550476Y-82640952D01*
X86502857Y-82688571D01*
X86455238Y-82783809D01*
X126213333Y-85542380D02*
X125880000Y-85066190D01*
X125641904Y-85542380D02*
X125641904Y-84542380D01*
X126022857Y-84542380D01*
X126118095Y-84590000D01*
X126165714Y-84637619D01*
X126213333Y-84732857D01*
X126213333Y-84875714D01*
X126165714Y-84970952D01*
X126118095Y-85018571D01*
X126022857Y-85066190D01*
X125641904Y-85066190D01*
X127165714Y-85542380D02*
X126594285Y-85542380D01*
X126880000Y-85542380D02*
X126880000Y-84542380D01*
X126784761Y-84685238D01*
X126689523Y-84780476D01*
X126594285Y-84828095D01*
X118959333Y-110292380D02*
X118626000Y-109816190D01*
X118387904Y-110292380D02*
X118387904Y-109292380D01*
X118768857Y-109292380D01*
X118864095Y-109340000D01*
X118911714Y-109387619D01*
X118959333Y-109482857D01*
X118959333Y-109625714D01*
X118911714Y-109720952D01*
X118864095Y-109768571D01*
X118768857Y-109816190D01*
X118387904Y-109816190D01*
X119340285Y-109387619D02*
X119387904Y-109340000D01*
X119483142Y-109292380D01*
X119721238Y-109292380D01*
X119816476Y-109340000D01*
X119864095Y-109387619D01*
X119911714Y-109482857D01*
X119911714Y-109578095D01*
X119864095Y-109720952D01*
X119292666Y-110292380D01*
X119911714Y-110292380D01*
X118959333Y-104592380D02*
X118626000Y-104116190D01*
X118387904Y-104592380D02*
X118387904Y-103592380D01*
X118768857Y-103592380D01*
X118864095Y-103640000D01*
X118911714Y-103687619D01*
X118959333Y-103782857D01*
X118959333Y-103925714D01*
X118911714Y-104020952D01*
X118864095Y-104068571D01*
X118768857Y-104116190D01*
X118387904Y-104116190D01*
X119292666Y-103592380D02*
X119911714Y-103592380D01*
X119578380Y-103973333D01*
X119721238Y-103973333D01*
X119816476Y-104020952D01*
X119864095Y-104068571D01*
X119911714Y-104163809D01*
X119911714Y-104401904D01*
X119864095Y-104497142D01*
X119816476Y-104544761D01*
X119721238Y-104592380D01*
X119435523Y-104592380D01*
X119340285Y-104544761D01*
X119292666Y-104497142D01*
X121586666Y-116292380D02*
X121586666Y-117006666D01*
X121539047Y-117149523D01*
X121443809Y-117244761D01*
X121300952Y-117292380D01*
X121205714Y-117292380D01*
X122015238Y-116387619D02*
X122062857Y-116340000D01*
X122158095Y-116292380D01*
X122396190Y-116292380D01*
X122491428Y-116340000D01*
X122539047Y-116387619D01*
X122586666Y-116482857D01*
X122586666Y-116578095D01*
X122539047Y-116720952D01*
X121967619Y-117292380D01*
X122586666Y-117292380D01*
M02*
